<?xml version="1.0" encoding="UTF-8" standalone="no"?>
<svg
   contentStyleType="text/css"
   height="811px"
   preserveAspectRatio="none"
   style="width:757px;height:811px;background:#FFFFFF;"
   version="1.1"
   viewBox="0 0 757 811"
   width="757px"
   zoomAndPan="magnify"
   id="svg247"
   sodipodi:docname="ICE attack.svg"
   inkscape:version="1.2.2 (b0a8486541, 2022-12-01)"
   xmlns:inkscape="http://www.inkscape.org/namespaces/inkscape"
   xmlns:sodipodi="http://sodipodi.sourceforge.net/DTD/sodipodi-0.dtd"
   xmlns="http://www.w3.org/2000/svg"
   xmlns:svg="http://www.w3.org/2000/svg">
  <sodipodi:namedview
     id="namedview249"
     pagecolor="#ffffff"
     bordercolor="#666666"
     borderopacity="1.0"
     inkscape:showpageshadow="2"
     inkscape:pageopacity="0.0"
     inkscape:pagecheckerboard="0"
     inkscape:deskcolor="#d1d1d1"
     showgrid="false"
     inkscape:zoom="1.6391625"
     inkscape:cx="487.44405"
     inkscape:cy="144.58603"
     inkscape:window-width="1366"
     inkscape:window-height="699"
     inkscape:window-x="0"
     inkscape:window-y="0"
     inkscape:window-maximized="1"
     inkscape:current-layer="g245" />
  <defs
     id="defs2" />
  <g
     id="g245">
    <rect
       fill="none"
       height="27.4999"
       id="_title"
       style="stroke:none;stroke-width:1.0;"
       width="72"
       x="341.25"
       y="15" />
    <ellipse
       cx="334"
       cy="58.4999"
       fill="#0FFF50"
       rx="10"
       ry="10"
       style="stroke:#222222;stroke-width:1.0;"
       id="ellipse7" />
    <path
       d="M449,84.75 L449,102 L429,106 L449,110 L449,127.25 A0,0 0 0 0 449,127.25 L637,127.25 A0,0 0 0 0 637,127.25 L637,94.75 L627,84.75 L449,84.75 A0,0 0 0 0 449,84.75 "
       fill="#FEFFDD"
       style="stroke:#181818;stroke-width:0.5;"
       id="path9" />
    <path
       d="M627,84.75 L627,94.75 L637,94.75 L627,84.75 "
       fill="#FEFFDD"
       style="stroke:#181818;stroke-width:0.5;"
       id="path11" />
    <text
       fill="#000000"
       font-family="Oxanium"
       font-size="13"
       lengthAdjust="spacing"
       textLength="167"
       x="455"
       y="103.27"
       id="text13">aktywacja oprogramowania</text>
    <text
       fill="#000000"
       font-family="Oxanium"
       font-size="13px"
       lengthAdjust="spacing"
       textLength="41"
       x="455"
       y="119.52"
       id="text15"
       transform="translate(62.817996)">hakera</text>
    <rect
       fill="#F1F1F1"
       height="35.0001"
       rx="12.5"
       ry="12.5"
       style="stroke:#2C84FA;stroke-width:0.5;"
       width="190"
       x="239"
       y="88.4999"
       id="rect17" />
    <text
       fill="#000000"
       font-family="Oxanium"
       font-size="12px"
       lengthAdjust="spacing"
       textLength="170"
       x="333.02802"
       y="110.98"
       id="text19"
       style="letter-spacing:0px"><tspan
         style="text-align:center;text-anchor:middle"
         id="tspan511">Roll node ICE attack dice</tspan></text>
    <rect
       fill="#F1F1F1"
       height="50.0002"
       rx="12.5"
       ry="12.5"
       style="stroke:#2C84FA;stroke-width:0.5;"
       width="181"
       x="243.5"
       y="147.25"
       id="rect21" />
    <text
       fill="#000000"
       font-family="Oxanium"
       font-size="12px"
       lengthAdjust="spacing"
       textLength="145"
       x="253.5"
       y="169.7301"
       id="text23"
       transform="translate(7.6640035)">Od rezultatu rzutu odejmij</text>
    <text
       fill="#000000"
       font-family="Oxanium"
       font-size="12"
       lengthAdjust="spacing"
       textLength="161"
       x="253.5"
       y="184.7302"
       id="text25">wartość pancerza INF hakera</text>
    <polygon
       fill="#F1F1F1"
       points="234.5,217.2502,433.5,217.2502,445.5,229.2502,433.5,241.2502,234.5,241.2502,222.5,229.2502,234.5,217.2502"
       style="stroke:#2C84FA;stroke-width:0.5;"
       id="polygon27" />
    <text
       fill="#000000"
       font-family="Oxanium"
       font-size="11"
       lengthAdjust="spacing"
       textLength="199"
       x="234.5"
       y="233.8152"
       id="text29">OCHR hakera mniejsza lub równa zero?</text>
    <text
       fill="#000000"
       font-family="Oxanium"
       font-size="11px"
       lengthAdjust="spacing"
       textLength="16"
       x="206.5"
       y="226.9402"
       id="text31"
       style="fill:#ffff00">yes</text>
    <text
       fill="#000000"
       font-family="Oxanium"
       font-size="11px"
       lengthAdjust="spacing"
       textLength="15"
       x="445.5"
       y="226.9402"
       id="text33"
       style="fill:#ffff00">no</text>
    <rect
       fill="#E949F5"
       height="50.0002"
       rx="12.5"
       ry="12.5"
       style="stroke:#2C84FA;stroke-width:0.5;"
       width="249"
       x="88"
       y="251.2502"
       id="rect35" />
    <text
       fill="#000000"
       font-family="Oxanium"
       font-size="12"
       lengthAdjust="spacing"
       textLength="229"
       x="98"
       y="273.7303"
       id="text37">haker nie może przemieszczać się w sieci</text>
    <text
       fill="#000000"
       font-family="Oxanium"
       font-size="12px"
       lengthAdjust="spacing"
       textLength="71"
       x="98"
       y="288.73041"
       id="text39"
       transform="translate(78.987996)">ani rozłączyć</text>
    <path
       d="M557.5,255.0003 L557.5,272.2503 L537.5,276.2503 L557.5,280.2503 L557.5,297.5003 A0,0 0 0 0 557.5,297.5003 L745.5,297.5003 A0,0 0 0 0 745.5,297.5003 L745.5,265.0003 L735.5,255.0003 L557.5,255.0003 A0,0 0 0 0 557.5,255.0003 "
       fill="#FEFFDD"
       style="stroke:#181818;stroke-width:0.5;"
       id="path41" />
    <path
       d="M735.5,255.0003 L735.5,265.0003 L745.5,265.0003 L735.5,255.0003 "
       fill="#FEFFDD"
       style="stroke:#181818;stroke-width:0.5;"
       id="path43" />
    <text
       fill="#000000"
       font-family="Oxanium"
       font-size="13"
       lengthAdjust="spacing"
       textLength="167"
       x="563.5"
       y="273.5203"
       id="text45">aktywacja oprogramowania</text>
    <text
       fill="#000000"
       font-family="Oxanium"
       font-size="13px"
       lengthAdjust="spacing"
       textLength="41"
       x="563.5"
       y="289.77029"
       id="text47"
       transform="translate(62.817996)">hakera</text>
    <rect
       fill="#F1F1F1"
       height="50.0002"
       rx="12.5"
       ry="12.5"
       style="stroke:#2C84FA;stroke-width:0.5;"
       width="164"
       x="373.5"
       y="251.2502"
       id="rect49" />
    <text
       fill="#000000"
       font-family="Oxanium"
       font-size="12px"
       lengthAdjust="spacing"
       textLength="131"
       x="383.5"
       y="273.73029"
       id="text51"
       transform="translate(6.4519923)">Odejmij punkty obrażeń</text>
    <g
       id="g535">
      <text
         fill="#000000"
         font-family="Oxanium"
         font-size="12"
         lengthAdjust="spacing"
         textLength="14"
         x="383.5"
         y="288.7304"
         id="text53">od</text>
      <text
         fill="#000000"
         font-family="Oxanium"
         font-size="12"
         lengthAdjust="spacing"
         text-decoration="underline"
         textLength="52"
         x="400.5"
         y="288.7304"
         id="text55">aktualnej</text>
      <text
         fill="#000000"
         font-family="Oxanium"
         font-size="12"
         lengthAdjust="spacing"
         textLength="72"
         x="455.5"
         y="288.7304"
         id="text57">OCHR hakera</text>
    </g>
    <polygon
       fill="#F1F1F1"
       points="334,307.2504,346,319.2504,334,331.2504,322,319.2504,334,307.2504"
       style="stroke:#2C84FA;stroke-width:0.5;"
       id="polygon59" />
    <polygon
       fill="#f1f1f1"
       points="446.5,351.2504 458.5,365.0003 446.5,378.7502 221.5,378.7502 209.5,365.0003 221.5,351.2504 "
       style="stroke:#2c84fa;stroke-width:0.5"
       id="polygon61"
       transform="matrix(1.0282927,0,0,1.1641723,-9.4497463,-59.922953)" />
    <text
       fill="#000000"
       font-family="Oxanium"
       font-size="11"
       lengthAdjust="spacing"
       textLength="222"
       x="221.5"
       y="362.6903"
       id="text63">ilość pozostałych punktów obrażeń większa</text>
    <text
       fill="#000000"
       font-family="Oxanium"
       font-size="11px"
       lengthAdjust="spacing"
       textLength="177"
       x="221.5"
       y="376.44019"
       id="text65"
       transform="translate(22.334997)">niż aktualny poziom OCHR hakera?</text>
    <text
       fill="#000000"
       font-family="Oxanium"
       font-size="11px"
       lengthAdjust="spacing"
       textLength="16"
       x="193.5"
       y="362.69031"
       id="text67"
       transform="translate(-11.105584,-0.8636085)"
       style="fill:#ffff00">tak</text>
    <text
       fill="#000000"
       font-family="Oxanium"
       font-size="11px"
       lengthAdjust="spacing"
       textLength="15"
       x="458.5"
       y="362.69031"
       id="text69"
       transform="translate(12.53975,-2.1757491)"
       style="fill:#ffff00">nie</text>
    <path
       d="M277,392.5003 L277,409.7503 L257,413.7503 L277,417.7503 L277,435.0003 A0,0 0 0 0 277,435.0003 L466,435.0003 A0,0 0 0 0 466,435.0003 L466,402.5003 L456,392.5003 L277,392.5003 A0,0 0 0 0 277,392.5003 "
       fill="#FEFFDD"
       style="stroke:#181818;stroke-width:0.5;"
       id="path71" />
    <path
       d="M456,392.5003 L456,402.5003 L466,402.5003 L456,392.5003 "
       fill="#FEFFDD"
       style="stroke:#181818;stroke-width:0.5;"
       id="path73" />
    <text
       fill="#000000"
       font-family="Oxanium"
       font-size="13"
       lengthAdjust="spacing"
       textLength="168"
       x="283"
       y="411.0203"
       id="text75">Aktywacja oprogramowania</text>
    <text
       fill="#000000"
       font-family="Oxanium"
       font-size="13px"
       lengthAdjust="spacing"
       textLength="41"
       x="283"
       y="427.27029"
       id="text77"
       transform="translate(63.110004)">hakera</text>
    <rect
       fill="#F1F1F1"
       height="50.0002"
       rx="12.5"
       ry="12.5"
       style="stroke:#2C84FA;stroke-width:0.5;"
       width="246"
       x="11"
       y="388.7502"
       id="rect79" />
    <text
       fill="#000000"
       font-family="Oxanium"
       font-size="12"
       lengthAdjust="spacing"
       textLength="226"
       x="21"
       y="411.2303"
       id="text81">odejmij pozostałą ilość punktów obrażeń</text>
    <text
       fill="#000000"
       font-family="Oxanium"
       font-size="12px"
       lengthAdjust="spacing"
       textLength="77"
       x="21"
       y="426.23041"
       id="text83"
       transform="translate(74.500008)">od INF hakera</text>
    <rect
       fill="#F1F1F1"
       height="35.0001"
       rx="12.5"
       ry="12.5"
       style="stroke:#2C84FA;stroke-width:0.5;"
       width="224"
       x="22"
       y="458.7504"
       id="rect85" />
    <text
       fill="#000000"
       font-family="Oxanium"
       font-size="12"
       lengthAdjust="spacing"
       textLength="204"
       x="32"
       y="481.2305"
       id="text87">Wykonaj test na obrażenia krytyczne</text>
    <polygon
       fill="#F1F1F1"
       points="104.5,513.7505,163.5,513.7505,175.5,525.7505,163.5,537.7505,104.5,537.7505,92.5,525.7505,104.5,513.7505"
       style="stroke:#2C84FA;stroke-width:0.5;"
       id="polygon89" />
    <text
       fill="#000000"
       font-family="Oxanium"
       font-size="11"
       lengthAdjust="spacing"
       textLength="59"
       x="104.5"
       y="530.3155"
       id="text91">test zdany?</text>
    <text
       fill="#000000"
       font-family="Oxanium"
       font-size="11"
       lengthAdjust="spacing"
       textLength="16"
       x="76.5"
       y="523.4405"
       id="text93"
       style="fill:#ffff00">tak</text>
    <text
       fill="#000000"
       font-family="Oxanium"
       font-size="11"
       lengthAdjust="spacing"
       textLength="15"
       x="175.5"
       y="523.4405"
       id="text95"
       style="fill:#ffff00">nie</text>
    <text
       fill="#000000"
       font-family="Oxanium"
       font-size="11px"
       lengthAdjust="spacing"
       textLength="15"
       x="175.5"
       y="523.44049"
       id="text95-3"
       transform="translate(80.336027,102.80575)"
       style="fill:#ffff00">nie</text>
    <ellipse
       cx="69.5"
       cy="557.7505"
       fill="none"
       rx="10"
       ry="10"
       style="stroke:#E949F5;stroke-width:1.5;"
       id="ellipse97" />
    <line
       style="stroke:#E949F5;stroke-width:2.5;"
       x1="63.3128"
       x2="75.6872"
       y1="551.5633"
       y2="563.9377"
       id="line99" />
    <line
       style="stroke:#E949F5;stroke-width:2.5;"
       x1="75.6872"
       x2="63.3128"
       y1="551.5633"
       y2="563.9377"
       id="line101" />
    <path
       d="M300,551.5006 L300,568.7506 L280,572.7506 L300,576.7506 L300,594.0006 A0,0 0 0 0 300,594.0006 L489,594.0006 A0,0 0 0 0 489,594.0006 L489,561.5006 L479,551.5006 L300,551.5006 A0,0 0 0 0 300,551.5006 "
       fill="#FEFFDD"
       style="stroke:#181818;stroke-width:0.5;"
       id="path103" />
    <path
       d="M479,551.5006 L479,561.5006 L489,561.5006 L479,551.5006 "
       fill="#FEFFDD"
       style="stroke:#181818;stroke-width:0.5;"
       id="path105" />
    <text
       fill="#000000"
       font-family="Oxanium"
       font-size="13"
       lengthAdjust="spacing"
       textLength="168"
       x="306"
       y="570.0206"
       id="text107">Aktywacja oprogramowania</text>
    <text
       fill="#000000"
       font-family="Oxanium"
       font-size="13px"
       lengthAdjust="spacing"
       textLength="41"
       x="306"
       y="586.27063"
       id="text109"
       transform="translate(63.110004)">hakera</text>
    <rect
       fill="#F1F1F1"
       height="50.0002"
       rx="12.5"
       ry="12.5"
       style="stroke:#2C84FA;stroke-width:0.5;"
       width="163"
       x="117"
       y="547.7505"
       id="rect111" />
    <text
       fill="#000000"
       font-family="Oxanium"
       font-size="12"
       lengthAdjust="spacing"
       textLength="143"
       x="127"
       y="570.2306"
       id="text113">zastosuj wszystkie efekty</text>
    <text
       fill="#000000"
       font-family="Oxanium"
       font-size="12px"
       lengthAdjust="spacing"
       textLength="113"
       x="127"
       y="585.23071"
       id="text115"
       transform="translate(15.203996)">obrażeń krytycznych</text>
    <rect
       fill="#F1F1F1"
       height="50.0002"
       rx="12.5"
       ry="12.5"
       style="stroke:#2C84FA;stroke-width:0.5;"
       width="168"
       x="114.5"
       y="666.6257"
       id="rect117" />
    <text
       fill="#000000"
       font-family="Oxanium"
       font-size="12"
       lengthAdjust="spacing"
       textLength="148"
       x="124.5"
       y="689.1058"
       id="text119">odejmij od PSY hakera tyle</text>
    <text
       fill="#000000"
       font-family="Oxanium"
       font-size="12"
       lengthAdjust="spacing"
       textLength="142"
       x="124.5"
       y="704.1059"
       id="text121">punktów ile odjęto od INF</text>
    <polygon
       fill="#F1F1F1"
       points="169.5,617.7507,227.5,617.7507,239.5,629.7507,227.5,641.7507,169.5,641.7507,157.5,629.7507,169.5,617.7507"
       style="stroke:#2C84FA;stroke-width:0.5;"
       id="polygon123" />
    <text
       fill="#000000"
       font-family="Oxanium"
       font-size="11"
       lengthAdjust="spacing"
       textLength="16"
       x="202.5"
       y="653.1906"
       id="text125"
       style="fill:#ffff00">tak</text>
    <text
       fill="#000000"
       font-family="Oxanium"
       font-size="11px"
       lengthAdjust="spacing"
       textLength="58"
       x="169.5"
       y="634.31567"
       id="text127">czarny LOD?</text>
    <polygon
       fill="#F1F1F1"
       points="198.5,736.6259,210.5,748.6259,198.5,760.6259,186.5,748.6259,198.5,736.6259"
       style="stroke:#2C84FA;stroke-width:0.5;"
       id="polygon129" />
    <ellipse
       cx="534"
       cy="398.7502"
       fill="none"
       rx="10"
       ry="10"
       style="stroke:#E949F5;stroke-width:1.5;"
       id="ellipse131" />
    <line
       style="stroke:#E949F5;stroke-width:2.5;"
       x1="527.8128"
       x2="540.1872"
       y1="392.563"
       y2="404.9374"
       id="line133" />
    <line
       style="stroke:#E949F5;stroke-width:2.5;"
       x1="540.1872"
       x2="527.8128"
       y1="392.563"
       y2="404.9374"
       id="line135" />
    <ellipse
       cx="334"
       cy="790.6259"
       fill="none"
       rx="10"
       ry="10"
       style="stroke:#E949F5;stroke-width:1.5;"
       id="ellipse137" />
    <line
       style="stroke:#E949F5;stroke-width:2.5;"
       x1="327.8128"
       x2="340.1872"
       y1="784.4387"
       y2="796.8131"
       id="line139" />
    <line
       style="stroke:#E949F5;stroke-width:2.5;"
       x1="340.1872"
       x2="327.8128"
       y1="784.4387"
       y2="796.8131"
       id="line141" />
    <line
       style="stroke:#2C84FA;stroke-width:1.0;"
       x1="334"
       x2="334"
       y1="68.4999"
       y2="88.4999"
       id="line143" />
    <polygon
       fill="#2C84FA"
       points="330,78.4999,334,88.4999,338,78.4999,334,82.4999"
       style="stroke:#2C84FA;stroke-width:1.0;"
       id="polygon145" />
    <line
       style="stroke:#2C84FA;stroke-width:1.0;"
       x1="334"
       x2="334"
       y1="123.5"
       y2="147.25"
       id="line147" />
    <polygon
       fill="#2C84FA"
       points="330,137.25,334,147.25,338,137.25,334,141.25"
       style="stroke:#2C84FA;stroke-width:1.0;"
       id="polygon149" />
    <line
       style="stroke:#2C84FA;stroke-width:1.0;"
       x1="222.5"
       x2="212.5"
       y1="229.2502"
       y2="229.2502"
       id="line151" />
    <line
       style="stroke:#2C84FA;stroke-width:1.0;"
       x1="212.5"
       x2="212.5"
       y1="229.2502"
       y2="251.2502"
       id="line153" />
    <polygon
       fill="#2C84FA"
       points="208.5,241.2502,212.5,251.2502,216.5,241.2502,212.5,245.2502"
       style="stroke:#2C84FA;stroke-width:1.0;"
       id="polygon155" />
    <line
       style="stroke:#2C84FA;stroke-width:1.0;"
       x1="445.5"
       x2="455.5"
       y1="229.2502"
       y2="229.2502"
       id="line157" />
    <line
       style="stroke:#2C84FA;stroke-width:1.0;"
       x1="455.5"
       x2="455.5"
       y1="229.2502"
       y2="251.2502"
       id="line159" />
    <polygon
       fill="#2C84FA"
       points="451.5,241.2502,455.5,251.2502,459.5,241.2502,455.5,245.2502"
       style="stroke:#2C84FA;stroke-width:1.0;"
       id="polygon161" />
    <line
       style="stroke:#2C84FA;stroke-width:1.0;"
       x1="212.5"
       x2="212.5"
       y1="301.2504"
       y2="319.2504"
       id="line163" />
    <line
       style="stroke:#2C84FA;stroke-width:1.0;"
       x1="212.5"
       x2="322"
       y1="319.2504"
       y2="319.2504"
       id="line165" />
    <polygon
       fill="#2C84FA"
       points="312,315.2504,322,319.2504,312,323.2504,316,319.2504"
       style="stroke:#2C84FA;stroke-width:1.0;"
       id="polygon167" />
    <line
       style="stroke:#2C84FA;stroke-width:1.0;"
       x1="455.5"
       x2="455.5"
       y1="301.2504"
       y2="319.2504"
       id="line169" />
    <line
       style="stroke:#2C84FA;stroke-width:1.0;"
       x1="455.5"
       x2="346"
       y1="319.2504"
       y2="319.2504"
       id="line171" />
    <polygon
       fill="#2C84FA"
       points="356,315.2504,346,319.2504,356,323.2504,352,319.2504"
       style="stroke:#2C84FA;stroke-width:1.0;"
       id="polygon173" />
    <line
       style="stroke:#2C84FA;stroke-width:1.0;"
       x1="334"
       x2="334"
       y1="197.2502"
       y2="217.2502"
       id="line175" />
    <polygon
       fill="#2C84FA"
       points="330,207.2502,334,217.2502,338,207.2502,334,211.2502"
       style="stroke:#2C84FA;stroke-width:1.0;"
       id="polygon177" />
    <line
       style="stroke:#2C84FA;stroke-width:1.0;"
       x1="134"
       x2="134"
       y1="438.7504"
       y2="458.7504"
       id="line179" />
    <polygon
       fill="#2C84FA"
       points="130,448.7504,134,458.7504,138,448.7504,134,452.7504"
       style="stroke:#2C84FA;stroke-width:1.0;"
       id="polygon181" />
    <line
       style="stroke:#2C84FA;stroke-width:1.0;"
       x1="198.5"
       x2="198.5"
       y1="641.7507"
       y2="666.6257"
       id="line183" />
    <polygon
       fill="#2C84FA"
       points="194.5,656.6257,198.5,666.6257,202.5,656.6257,198.5,660.6257"
       style="stroke:#2C84FA;stroke-width:1.0;"
       id="polygon185" />
    <line
       style="stroke:#2C84FA;stroke-width:1.0;"
       x1="239.5"
       x2="292.5"
       y1="629.7507"
       y2="629.7507"
       id="line187" />
    <polygon
       fill="#2C84FA"
       points="288.5,681.6258,292.5,691.6258,296.5,681.6258,292.5,685.6258"
       style="stroke:#2C84FA;stroke-width:1.0;"
       id="polygon189" />
    <line
       style="stroke:#2C84FA;stroke-width:1.0;"
       x1="292.5"
       x2="292.5"
       y1="629.7507"
       y2="748.6259"
       id="line191" />
    <line
       style="stroke:#2C84FA;stroke-width:1.0;"
       x1="292.5"
       x2="210.5"
       y1="748.6259"
       y2="748.6259"
       id="line193" />
    <polygon
       fill="#2C84FA"
       points="220.5,744.6259,210.5,748.6259,220.5,752.6259,216.5,748.6259"
       style="stroke:#2C84FA;stroke-width:1.0;"
       id="polygon195" />
    <line
       style="stroke:#2C84FA;stroke-width:1.0;"
       x1="198.5"
       x2="198.5"
       y1="716.6259"
       y2="736.6259"
       id="line197" />
    <polygon
       fill="#2C84FA"
       points="194.5,726.6259,198.5,736.6259,202.5,726.6259,198.5,730.6259"
       style="stroke:#2C84FA;stroke-width:1.0;"
       id="polygon199" />
    <line
       style="stroke:#2C84FA;stroke-width:1.0;"
       x1="198.5"
       x2="198.5"
       y1="597.7507"
       y2="617.7507"
       id="line201" />
    <polygon
       fill="#2C84FA"
       points="194.5,607.7507,198.5,617.7507,202.5,607.7507,198.5,611.7507"
       style="stroke:#2C84FA;stroke-width:1.0;"
       id="polygon203" />
    <line
       style="stroke:#2C84FA;stroke-width:1.0;"
       x1="92.5"
       x2="69.5"
       y1="525.7505"
       y2="525.7505"
       id="line205" />
    <line
       style="stroke:#2C84FA;stroke-width:1.0;"
       x1="69.5"
       x2="69.5"
       y1="525.7505"
       y2="547.7505"
       id="line207" />
    <polygon
       fill="#2C84FA"
       points="65.5,537.7505,69.5,547.7505,73.5,537.7505,69.5,541.7505"
       style="stroke:#2C84FA;stroke-width:1.0;"
       id="polygon209" />
    <line
       style="stroke:#2C84FA;stroke-width:1.0;"
       x1="175.5"
       x2="198.5"
       y1="525.7505"
       y2="525.7505"
       id="line211" />
    <line
       style="stroke:#2C84FA;stroke-width:1.0;"
       x1="198.5"
       x2="198.5"
       y1="525.7505"
       y2="547.7505"
       id="line213" />
    <polygon
       fill="#2C84FA"
       points="194.5,537.7505,198.5,547.7505,202.5,537.7505,198.5,541.7505"
       style="stroke:#2C84FA;stroke-width:1.0;"
       id="polygon215" />
    <line
       style="stroke:#2C84FA;stroke-width:1.0;"
       x1="198.5"
       x2="198.5"
       y1="760.6259"
       y2="765.6259"
       id="line217" />
    <line
       style="stroke:#2C84FA;stroke-width:1.0;"
       x1="198.5"
       x2="334"
       y1="765.6259"
       y2="765.6259"
       id="line219" />
    <line
       style="stroke:#2C84FA;stroke-width:1.0;"
       x1="334"
       x2="334"
       y1="765.6259"
       y2="780.6259"
       id="line221" />
    <polygon
       fill="#2C84FA"
       points="330,770.6259,334,780.6259,338,770.6259,334,774.6259"
       style="stroke:#2C84FA;stroke-width:1.0;"
       id="polygon223" />
    <line
       style="stroke:#2C84FA;stroke-width:1.0;"
       x1="134"
       x2="134"
       y1="493.7505"
       y2="513.7505"
       id="line225" />
    <polygon
       fill="#2C84FA"
       points="130,503.7505,134,513.7505,138,503.7505,134,507.7505"
       style="stroke:#2C84FA;stroke-width:1.0;"
       id="polygon227" />
    <line
       style="stroke:#2c84fa;stroke-width:0.978784"
       x1="206.33035"
       x2="134"
       y1="365.00031"
       y2="365.00031"
       id="line229" />
    <line
       style="stroke:#2C84FA;stroke-width:1.0;"
       x1="134"
       x2="134"
       y1="365.0003"
       y2="388.7502"
       id="line231" />
    <polygon
       fill="#2C84FA"
       points="130,378.7502,134,388.7502,138,378.7502,134,382.7502"
       style="stroke:#2C84FA;stroke-width:1.0;"
       id="polygon233" />
    <line
       style="stroke:#2c84fa;stroke-width:0.978276"
       x1="461.74463"
       x2="534"
       y1="365.00031"
       y2="365.00031"
       id="line235" />
    <line
       style="stroke:#2C84FA;stroke-width:1.0;"
       x1="534"
       x2="534"
       y1="365.0003"
       y2="388.7502"
       id="line237" />
    <polygon
       fill="#2C84FA"
       points="530,378.7502,534,388.7502,538,378.7502,534,382.7502"
       style="stroke:#2C84FA;stroke-width:1.0;"
       id="polygon239" />
    <line
       style="stroke:#2c84fa;stroke-width:0.880464"
       x1="334"
       x2="334"
       y1="331.2504"
       y2="346.75473"
       id="line241" />
    <polygon
       fill="#2c84fa"
       points="334,351.2504 338,341.2504 334,345.2504 330,341.2504 "
       style="stroke:#2c84fa;stroke-width:1"
       id="polygon243"
       transform="translate(-0.08936538,-3.6234683)" />
    <!--MD5=[869bab12f6cfb3c7b0dbaa05a6fd91c0]
@startuml "Atak LOD"
title "Atak LOD"
skinparam defaultFontName Oxanium
skinparam activity {
  StartColor #0fff50
  BarColor #2c84fa
  EndColor #e949f5
  BorderColor #2c84fa
  ArrowColor #2c84fa
  FontName Oxanium
}
start
:Wykonaj rzut kością LOD węzła;
note right
aktywacja oprogramowania
hakera
endnote 
:Od rezultatu rzutu odejmij 
wartość pancerza INF hakera;

if (OCHR hakera mniejsza lub równa zero?) then (tak)
#e949f5 :haker nie może przemieszczać się w sieci\nani rozłączyć;
else (nie)
 :Odejmij punkty obrażeń 
 od __aktualnej__ OCHR hakera;
 note right
 aktywacja oprogramowania
 hakera
 endnote
endif
if (ilość pozostałych punktów obrażeń większa 
niż aktualny poziom OCHR hakera?) then (tak)
:odejmij pozostałą ilość punktów obrażeń 
od INF hakera;
note right
Aktywacja oprogramowania
hakera
endnote
:Wykonaj test na obrażenia krytyczne;
if (test zdany?) then (tak)
  end
else (nie)
  :zastosuj wszystkie efekty 
  obrażeń krytycznych;
  note right
  Aktywacja oprogramowania
  hakera
  endnote
  if (czarny LOD) then (tak)
  :odejmij od PSY hakera tyle 
  punktów ile odjęto od INF;
  endif
endif
else (nie)
 end
endif
end
@enduml

PlantUML version 1.2022.7(Mon Aug 22 19:01:30 CEST 2022)
(GPL source distribution)
Java Runtime: OpenJDK Runtime Environment
JVM: OpenJDK 64-Bit Server VM
Default Encoding: UTF-8
Language: en
Country: GB
-->
  </g>
</svg>
