<?xml version="1.0" encoding="UTF-8" standalone="no"?>
<svg xmlns="http://www.w3.org/2000/svg" xmlns:xlink="http://www.w3.org/1999/xlink"
  contentStyleType="text/css" height="1174px" preserveAspectRatio="none"
  style="width:629px;height:1174px;background:transparent;" version="1.1" viewBox="0 0 629 1174"
  width="629px" zoomAndPan="magnify">
  <defs />
  <g>
    <rect fill="none" height="27.4999" id="_title" style="stroke:none;stroke-width:1.0;" width="127"
      x="249.5" y="15" />
    <text fill="#000000" font-family="Oxanium" font-size="14" font-weight="bold"
      lengthAdjust="spacing" textLength="117" x="254.5" y="34.5599">Infosphere attack</text>
    <ellipse cx="262.5" cy="58.4999" fill="#0FFF50" rx="10" ry="10"
      style="stroke:#222222;stroke-width:1.0;" />
    <rect fill="none" height="249.875" style="stroke:#000000;stroke-width:1.5;" width="282"
      x="121.5" y="78.4999" />
    <path d="M237.5,78.4999 L237.5,106.4998 L227.5,116.4998 L121.5,116.4998 " fill="none"
      style="stroke:#000000;stroke-width:1.5;" />
    <text fill="#000000" font-family="Oxanium" font-size="14" lengthAdjust="spacing" textLength="68"
      x="124.5" y="94.0599">Determine</text>
    <text fill="#000000" font-family="Oxanium" font-size="14" lengthAdjust="spacing"
      textLength="106" x="124.5" y="111.5598">the damage dice</text>
    <rect fill="#F1F1F1" height="35.0001" rx="12.5" ry="12.5"
      style="stroke:#2C84FA;stroke-width:0.5;" width="262" x="131.5" y="133.4998" />
    <text fill="#000000" font-family="Oxanium" font-size="12" lengthAdjust="spacing"
      textLength="242" x="141.5" y="155.9799">Neuroprocessor damage dice as a standard</text>
    <rect fill="#F1F1F1" height="35.0001" rx="12.5" ry="12.5"
      style="stroke:#2C84FA;stroke-width:0.5;" width="170" x="177.5" y="237.3748" />
    <text fill="#000000" font-family="Oxanium" font-size="12" lengthAdjust="spacing"
      textLength="150" x="187.5" y="259.8549">add a die for each attacker</text>
    <polygon fill="#F1F1F1"
      points="213.5,188.4999,311.5,188.4999,323.5,200.4999,311.5,212.4999,213.5,212.4999,201.5,200.4999,213.5,188.4999"
      style="stroke:#2C84FA;stroke-width:0.5;" />
    <text fill="#F2F230" font-family="Oxanium" font-size="11" lengthAdjust="spacing" textLength="18"
      x="269.5" y="223.9398">yes</text>
    <text fill="#000000" font-family="Oxanium" font-size="11" lengthAdjust="spacing" textLength="98"
      x="213.5" y="205.0648">multiple attackers?</text>
    <text fill="#F2F230" font-family="Oxanium" font-size="11" lengthAdjust="spacing" textLength="12"
      x="326.5" y="198.1899">no</text>
    <polygon fill="#F1F1F1"
      points="262.5,292.3749,274.5,304.3749,262.5,316.3749,250.5,304.3749,262.5,292.3749"
      style="stroke:#2C84FA;stroke-width:0.5;" />
    <rect fill="#F1F1F1" height="35.0001" rx="12.5" ry="12.5"
      style="stroke:#2C84FA;stroke-width:0.5;" width="106" x="209.5" y="348.3749" />
    <text fill="#000000" font-family="Oxanium" font-size="12" lengthAdjust="spacing" textLength="86"
      x="219.5" y="370.855">Make a dice roll</text>
    <rect fill="#F1F1F1" height="65.0003" rx="12.5" ry="12.5"
      style="stroke:#2C84FA;stroke-width:0.5;" width="215" x="155" y="403.375" />
    <text fill="#000000" font-family="Oxanium" font-size="12" lengthAdjust="spacing"
      textLength="126" x="165" y="425.8551">Select an attacker and</text>
    <text fill="#000000" font-family="Oxanium" font-size="12" lengthAdjust="spacing"
      textLength="195" x="165" y="440.8552">remember the result of his dice roll</text>
    <text fill="#000000" font-family="Oxanium" font-size="12" lengthAdjust="spacing"
      textLength="133" x="165" y="455.8553">(neuroprocessor attack)</text>
    <path
      d="M342,492.1254 L342,509.3755 L322,513.3755 L342,517.3755 L342,534.6255 A0,0 0 0 0 342,534.6255 L506,534.6255 A0,0 0 0 0 506,534.6255 L506,502.1254 L496,492.1254 L342,492.1254 A0,0 0 0 0 342,492.1254 "
      fill="#FEFFDD" style="stroke:#181818;stroke-width:0.5;" />
    <path d="M496,492.1254 L496,502.1254 L506,502.1254 L496,492.1254 " fill="#FEFFDD"
      style="stroke:#181818;stroke-width:0.5;" />
    <text fill="#000000" font-family="Oxanium" font-size="13" lengthAdjust="spacing"
      textLength="134" x="348" y="510.6455">Activation of software</text>
    <text fill="#000000" font-family="Oxanium" font-size="13" lengthAdjust="spacing"
      textLength="143" x="348" y="526.8955">of the selected attacker</text>
    <rect fill="#F1F1F1" height="50.0002" rx="12.5" ry="12.5"
      style="stroke:#2C84FA;stroke-width:0.5;" width="119" x="203" y="488.3753" />
    <text fill="#000000" font-family="Oxanium" font-size="12" lengthAdjust="spacing" textLength="99"
      x="213" y="510.8554">add the activated</text>
    <text fill="#000000" font-family="Oxanium" font-size="12" lengthAdjust="spacing" textLength="76"
      x="213" y="525.8555">software dice</text>
    <rect fill="#F1F1F1" height="80.0004" rx="12.5" ry="12.5"
      style="stroke:#2C84FA;stroke-width:0.5;" width="212" x="156.5" y="558.3756" />
    <text fill="#000000" font-family="Oxanium" font-size="12" lengthAdjust="spacing"
      textLength="149" x="166.5" y="580.8556">perform a roll of additional</text>
    <text fill="#000000" font-family="Oxanium" font-size="12" lengthAdjust="spacing"
      textLength="125" x="166.5" y="595.8558">software damage dice</text>
    <text fill="#000000" font-family="Oxanium" font-size="12" lengthAdjust="spacing"
      textLength="189" x="166.5" y="610.8559">and add the result to the result of</text>
    <text fill="#000000" font-family="Oxanium" font-size="12" lengthAdjust="spacing"
      textLength="125" x="166.5" y="625.856">neuroprocessor attack</text>
    <path
      d="M354.5,669.6261 L354.5,686.8761 L334.5,690.8761 L354.5,694.8761 L354.5,712.1262 A0,0 0 0 0 354.5,712.1262 L463.5,712.1262 A0,0 0 0 0 463.5,712.1262 L463.5,679.6261 L453.5,669.6261 L354.5,669.6261 A0,0 0 0 0 354.5,669.6261 "
      fill="#FEFFDD" style="stroke:#181818;stroke-width:0.5;" />
    <path d="M453.5,669.6261 L453.5,679.6261 L463.5,679.6261 L453.5,669.6261 " fill="#FEFFDD"
      style="stroke:#181818;stroke-width:0.5;" />
    <text fill="#000000" font-family="Oxanium" font-size="13" lengthAdjust="spacing" textLength="88"
      x="360.5" y="688.1461">node software</text>
    <text fill="#000000" font-family="Oxanium" font-size="13" lengthAdjust="spacing" textLength="60"
      x="360.5" y="704.3961">activation</text>
    <rect fill="#F1F1F1" height="65.0003" rx="12.5" ry="12.5"
      style="stroke:#2C84FA;stroke-width:0.5;" width="144" x="190.5" y="658.376" />
    <text fill="#000000" font-family="Oxanium" font-size="12" lengthAdjust="spacing"
      textLength="124" x="200.5" y="680.8561">Substract the value of</text>
    <text fill="#000000" font-family="Oxanium" font-size="12" lengthAdjust="spacing"
      textLength="121" x="200.5" y="695.8562">opponent's INF armor</text>
    <text fill="#000000" font-family="Oxanium" font-size="12" lengthAdjust="spacing"
      textLength="104" x="200.5" y="710.8563">from the roll result</text>
    <polygon fill="#F1F1F1"
      points="157.5,743.3763,367.5,743.3763,379.5,755.3763,367.5,767.3763,157.5,767.3763,145.5,755.3763,157.5,743.3763"
      style="stroke:#2C84FA;stroke-width:0.5;" />
    <text fill="#000000" font-family="Oxanium" font-size="11" lengthAdjust="spacing"
      textLength="210" x="157.5" y="759.9413">HP of the node less than or equal to zero?</text>
    <text fill="#F2F230" font-family="Oxanium" font-size="11" lengthAdjust="spacing" textLength="18"
      x="127.5" y="753.0663">yes</text>
    <text fill="#F2F230" font-family="Oxanium" font-size="11" lengthAdjust="spacing" textLength="12"
      x="382.5" y="753.0663">no</text>
    <rect fill="#0FFF50" height="35.0001" rx="12.5" ry="12.5"
      style="stroke:#2C84FA;stroke-width:0.5;" width="155" x="58" y="777.3763" />
    <text fill="#000000" font-family="Oxanium" font-size="12" lengthAdjust="spacing"
      textLength="135" x="68" y="799.8564">take control of the node</text>
    <path
      d="M508,781.1264 L508,798.3764 L488,802.3764 L508,806.3764 L508,823.6264 A0,0 0 0 0 508,823.6264 L617,823.6264 A0,0 0 0 0 617,823.6264 L617,791.1264 L607,781.1264 L508,781.1264 A0,0 0 0 0 508,781.1264 "
      fill="#FEFFDD" style="stroke:#181818;stroke-width:0.5;" />
    <path d="M607,781.1264 L607,791.1264 L617,791.1264 L607,781.1264 " fill="#FEFFDD"
      style="stroke:#181818;stroke-width:0.5;" />
    <text fill="#000000" font-family="Oxanium" font-size="13" lengthAdjust="spacing" textLength="88"
      x="514" y="799.6464">node software</text>
    <text fill="#000000" font-family="Oxanium" font-size="13" lengthAdjust="spacing" textLength="60"
      x="514" y="815.8964">activation</text>
    <rect fill="#F1F1F1" height="50.0002" rx="12.5" ry="12.5"
      style="stroke:#2C84FA;stroke-width:0.5;" width="197" x="291" y="777.3763" />
    <text fill="#000000" font-family="Oxanium" font-size="12" lengthAdjust="spacing"
      textLength="157" x="301" y="799.8564">Subtract the damage points</text>
    <text fill="#000000" font-family="Oxanium" font-size="12" lengthAdjust="spacing" textLength="49"
      x="301" y="814.8565">from the</text>
    <text fill="#000000" font-family="Oxanium" font-size="12" lengthAdjust="spacing"
      text-decoration="underline" textLength="35" x="353" y="814.8565">actual</text>
    <text fill="#000000" font-family="Oxanium" font-size="12" lengthAdjust="spacing" textLength="87"
      x="391" y="814.8565">HP of the node.</text>
    <polygon fill="#F1F1F1"
      points="262.5,833.3765,274.5,845.3765,262.5,857.3765,250.5,845.3765,262.5,833.3765"
      style="stroke:#2C84FA;stroke-width:0.5;" />
    <polygon fill="#F1F1F1"
      points="164,877.3765,361,877.3765,373,891.1264,361,904.8763,164,904.8763,152,891.1264,164,877.3765"
      style="stroke:#2C84FA;stroke-width:0.5;" />
    <text fill="#000000" font-family="Oxanium" font-size="11" lengthAdjust="spacing"
      textLength="194" x="164" y="888.8164">number of remaining points of damage</text>
    <text fill="#000000" font-family="Oxanium" font-size="11" lengthAdjust="spacing" textLength="92"
      x="176" y="902.5663">greater than zero?</text>
    <text fill="#F2F230" font-family="Oxanium" font-size="11" lengthAdjust="spacing" textLength="18"
      x="134" y="888.8164">yes</text>
    <text fill="#F2F230" font-family="Oxanium" font-size="11" lengthAdjust="spacing" textLength="12"
      x="376" y="888.8164">no</text>
    <path
      d="M249,918.6264 L249,935.8764 L229,939.8764 L249,943.8764 L249,961.1264 A0,0 0 0 0 249,961.1264 L358,961.1264 A0,0 0 0 0 358,961.1264 L358,928.6264 L348,918.6264 L249,918.6264 A0,0 0 0 0 249,918.6264 "
      fill="#FEFFDD" style="stroke:#181818;stroke-width:0.5;" />
    <path d="M348,918.6264 L348,928.6264 L358,928.6264 L348,918.6264 " fill="#FEFFDD"
      style="stroke:#181818;stroke-width:0.5;" />
    <text fill="#000000" font-family="Oxanium" font-size="13" lengthAdjust="spacing" textLength="88"
      x="255" y="937.1464">node software</text>
    <text fill="#000000" font-family="Oxanium" font-size="13" lengthAdjust="spacing" textLength="60"
      x="255" y="953.3964">activation</text>
    <rect fill="#F1F1F1" height="50.0002" rx="12.5" ry="12.5"
      style="stroke:#2C84FA;stroke-width:0.5;" width="218" x="11" y="914.8763" />
    <text fill="#000000" font-family="Oxanium" font-size="12" lengthAdjust="spacing"
      textLength="190" x="21" y="937.3564">subtract the remaining amount of</text>
    <text fill="#000000" font-family="Oxanium" font-size="12" lengthAdjust="spacing"
      textLength="198" x="21" y="952.3565">damage points from the node's INF</text>
    <rect fill="#F1F1F1" height="35.0001" rx="12.5" ry="12.5"
      style="stroke:#2C84FA;stroke-width:0.5;" width="191" x="24.5" y="984.8765" />
    <text fill="#000000" font-family="Oxanium" font-size="12" lengthAdjust="spacing"
      textLength="171" x="34.5" y="1007.3566">Perform a critical damage test</text>
    <polygon fill="#F1F1F1"
      points="86,1039.8766,154,1039.8766,166,1051.8766,154,1063.8766,86,1063.8766,74,1051.8766,86,1039.8766"
      style="stroke:#2C84FA;stroke-width:0.5;" />
    <text fill="#000000" font-family="Oxanium" font-size="11" lengthAdjust="spacing" textLength="68"
      x="86" y="1056.4416">Test passed?</text>
    <text fill="#F2F230" font-family="Oxanium" font-size="11" lengthAdjust="spacing" textLength="18"
      x="56" y="1049.5666">yes</text>
    <text fill="#F2F230" font-family="Oxanium" font-size="11" lengthAdjust="spacing" textLength="12"
      x="169" y="1049.5666">no</text>
    <ellipse cx="64" cy="1083.8766" fill="none" rx="10" ry="10"
      style="stroke:#E949F5;stroke-width:1.5;" />
    <line style="stroke:#E949F5;stroke-width:2.5;" x1="57.8128" x2="70.1872" y1="1077.6894"
      y2="1090.0638" />
    <line style="stroke:#E949F5;stroke-width:2.5;" x1="70.1872" x2="57.8128" y1="1077.6894"
      y2="1090.0638" />
    <path
      d="M251,1077.6267 L251,1094.8767 L231,1098.8767 L251,1102.8767 L251,1120.1267 A0,0 0 0 0 251,1120.1267 L360,1120.1267 A0,0 0 0 0 360,1120.1267 L360,1087.6267 L350,1077.6267 L251,1077.6267 A0,0 0 0 0 251,1077.6267 "
      fill="#FEFFDD" style="stroke:#181818;stroke-width:0.5;" />
    <path d="M350,1077.6267 L350,1087.6267 L360,1087.6267 L350,1077.6267 " fill="#FEFFDD"
      style="stroke:#181818;stroke-width:0.5;" />
    <text fill="#000000" font-family="Oxanium" font-size="13" lengthAdjust="spacing" textLength="88"
      x="257" y="1096.1467">node software</text>
    <text fill="#000000" font-family="Oxanium" font-size="13" lengthAdjust="spacing" textLength="60"
      x="257" y="1112.3967">activation</text>
    <rect fill="#F1F1F1" height="50.0002" rx="12.5" ry="12.5"
      style="stroke:#2C84FA;stroke-width:0.5;" width="110" x="121" y="1073.8766" />
    <text fill="#000000" font-family="Oxanium" font-size="12" lengthAdjust="spacing" textLength="86"
      x="131" y="1096.3567">apply all critical</text>
    <text fill="#000000" font-family="Oxanium" font-size="12" lengthAdjust="spacing" textLength="90"
      x="131" y="1111.3568">damage effects</text>
    <ellipse cx="405" cy="924.8763" fill="none" rx="10" ry="10"
      style="stroke:#E949F5;stroke-width:1.5;" />
    <line style="stroke:#E949F5;stroke-width:2.5;" x1="398.8128" x2="411.1872" y1="918.6891"
      y2="931.0635" />
    <line style="stroke:#E949F5;stroke-width:2.5;" x1="411.1872" x2="398.8128" y1="918.6891"
      y2="931.0635" />
    <ellipse cx="262.5" cy="1153.8768" fill="none" rx="10" ry="10"
      style="stroke:#E949F5;stroke-width:1.5;" />
    <line style="stroke:#E949F5;stroke-width:2.5;" x1="256.3128" x2="268.6872" y1="1147.6896"
      y2="1160.064" />
    <line style="stroke:#E949F5;stroke-width:2.5;" x1="268.6872" x2="256.3128" y1="1147.6896"
      y2="1160.064" />
    <line style="stroke:#2C84FA;stroke-width:1.0;" x1="262.5" x2="262.5" y1="212.4999" y2="237.3748" />
    <polygon fill="#2C84FA" points="258.5,227.3748,262.5,237.3748,266.5,227.3748,262.5,231.3748"
      style="stroke:#2C84FA;stroke-width:1.0;" />
    <line style="stroke:#2C84FA;stroke-width:1.0;" x1="323.5" x2="357.5" y1="200.4999" y2="200.4999" />
    <polygon fill="#2C84FA" points="353.5,244.8749,357.5,254.8749,361.5,244.8749,357.5,248.8749"
      style="stroke:#2C84FA;stroke-width:1.0;" />
    <line style="stroke:#2C84FA;stroke-width:1.0;" x1="357.5" x2="357.5" y1="200.4999" y2="304.3749" />
    <line style="stroke:#2C84FA;stroke-width:1.0;" x1="357.5" x2="274.5" y1="304.3749" y2="304.3749" />
    <polygon fill="#2C84FA" points="284.5,300.3749,274.5,304.3749,284.5,308.3749,280.5,304.3749"
      style="stroke:#2C84FA;stroke-width:1.0;" />
    <line style="stroke:#2C84FA;stroke-width:1.0;" x1="262.5" x2="262.5" y1="272.3749" y2="292.3749" />
    <polygon fill="#2C84FA" points="258.5,282.3749,262.5,292.3749,266.5,282.3749,262.5,286.3749"
      style="stroke:#2C84FA;stroke-width:1.0;" />
    <line style="stroke:#2C84FA;stroke-width:1.0;" x1="262.5" x2="262.5" y1="168.4999" y2="188.4999" />
    <polygon fill="#2C84FA" points="258.5,178.4999,262.5,188.4999,266.5,178.4999,262.5,182.4999"
      style="stroke:#2C84FA;stroke-width:1.0;" />
    <line style="stroke:#2C84FA;stroke-width:1.0;" x1="262.5" x2="262.5" y1="68.4999" y2="133.4998" />
    <polygon fill="#2C84FA" points="258.5,123.4998,262.5,133.4998,266.5,123.4998,262.5,127.4998"
      style="stroke:#2C84FA;stroke-width:1.0;" />
    <line style="stroke:#2C84FA;stroke-width:1.0;" x1="262.5" x2="262.5" y1="316.3749" y2="348.3749" />
    <polygon fill="#2C84FA" points="258.5,338.3749,262.5,348.3749,266.5,338.3749,262.5,342.3749"
      style="stroke:#2C84FA;stroke-width:1.0;" />
    <line style="stroke:#2C84FA;stroke-width:1.0;" x1="262.5" x2="262.5" y1="383.375" y2="403.375" />
    <polygon fill="#2C84FA" points="258.5,393.375,262.5,403.375,266.5,393.375,262.5,397.375"
      style="stroke:#2C84FA;stroke-width:1.0;" />
    <line style="stroke:#2C84FA;stroke-width:1.0;" x1="262.5" x2="262.5" y1="468.3753" y2="488.3753" />
    <polygon fill="#2C84FA" points="258.5,478.3753,262.5,488.3753,266.5,478.3753,262.5,482.3753"
      style="stroke:#2C84FA;stroke-width:1.0;" />
    <line style="stroke:#2C84FA;stroke-width:1.0;" x1="262.5" x2="262.5" y1="538.3756" y2="558.3756" />
    <polygon fill="#2C84FA" points="258.5,548.3756,262.5,558.3756,266.5,548.3756,262.5,552.3756"
      style="stroke:#2C84FA;stroke-width:1.0;" />
    <line style="stroke:#2C84FA;stroke-width:1.0;" x1="262.5" x2="262.5" y1="638.376" y2="658.376" />
    <polygon fill="#2C84FA" points="258.5,648.376,262.5,658.376,266.5,648.376,262.5,652.376"
      style="stroke:#2C84FA;stroke-width:1.0;" />
    <line style="stroke:#2C84FA;stroke-width:1.0;" x1="145.5" x2="135.5" y1="755.3763" y2="755.3763" />
    <line style="stroke:#2C84FA;stroke-width:1.0;" x1="135.5" x2="135.5" y1="755.3763" y2="777.3763" />
    <polygon fill="#2C84FA" points="131.5,767.3763,135.5,777.3763,139.5,767.3763,135.5,771.3763"
      style="stroke:#2C84FA;stroke-width:1.0;" />
    <line style="stroke:#2C84FA;stroke-width:1.0;" x1="379.5" x2="389.5" y1="755.3763" y2="755.3763" />
    <line style="stroke:#2C84FA;stroke-width:1.0;" x1="389.5" x2="389.5" y1="755.3763" y2="777.3763" />
    <polygon fill="#2C84FA" points="385.5,767.3763,389.5,777.3763,393.5,767.3763,389.5,771.3763"
      style="stroke:#2C84FA;stroke-width:1.0;" />
    <line style="stroke:#2C84FA;stroke-width:1.0;" x1="135.5" x2="135.5" y1="812.3764" y2="845.3765" />
    <line style="stroke:#2C84FA;stroke-width:1.0;" x1="135.5" x2="250.5" y1="845.3765" y2="845.3765" />
    <polygon fill="#2C84FA" points="240.5,841.3765,250.5,845.3765,240.5,849.3765,244.5,845.3765"
      style="stroke:#2C84FA;stroke-width:1.0;" />
    <line style="stroke:#2C84FA;stroke-width:1.0;" x1="389.5" x2="389.5" y1="827.3765" y2="845.3765" />
    <line style="stroke:#2C84FA;stroke-width:1.0;" x1="389.5" x2="274.5" y1="845.3765" y2="845.3765" />
    <polygon fill="#2C84FA" points="284.5,841.3765,274.5,845.3765,284.5,849.3765,280.5,845.3765"
      style="stroke:#2C84FA;stroke-width:1.0;" />
    <line style="stroke:#2C84FA;stroke-width:1.0;" x1="262.5" x2="262.5" y1="723.3763" y2="743.3763" />
    <polygon fill="#2C84FA" points="258.5,733.3763,262.5,743.3763,266.5,733.3763,262.5,737.3763"
      style="stroke:#2C84FA;stroke-width:1.0;" />
    <line style="stroke:#2C84FA;stroke-width:1.0;" x1="120" x2="120" y1="964.8765" y2="984.8765" />
    <polygon fill="#2C84FA" points="116,974.8765,120,984.8765,124,974.8765,120,978.8765"
      style="stroke:#2C84FA;stroke-width:1.0;" />
    <line style="stroke:#2C84FA;stroke-width:1.0;" x1="74" x2="64" y1="1051.8766" y2="1051.8766" />
    <line style="stroke:#2C84FA;stroke-width:1.0;" x1="64" x2="64" y1="1051.8766" y2="1073.8766" />
    <polygon fill="#2C84FA" points="60,1063.8766,64,1073.8766,68,1063.8766,64,1067.8766"
      style="stroke:#2C84FA;stroke-width:1.0;" />
    <line style="stroke:#2C84FA;stroke-width:1.0;" x1="166" x2="176" y1="1051.8766" y2="1051.8766" />
    <line style="stroke:#2C84FA;stroke-width:1.0;" x1="176" x2="176" y1="1051.8766" y2="1073.8766" />
    <polygon fill="#2C84FA" points="172,1063.8766,176,1073.8766,180,1063.8766,176,1067.8766"
      style="stroke:#2C84FA;stroke-width:1.0;" />
    <line style="stroke:#2C84FA;stroke-width:1.0;" x1="176" x2="176" y1="1123.8768" y2="1128.8768" />
    <line style="stroke:#2C84FA;stroke-width:1.0;" x1="176" x2="262.5" y1="1128.8768" y2="1128.8768" />
    <line style="stroke:#2C84FA;stroke-width:1.0;" x1="262.5" x2="262.5" y1="1128.8768"
      y2="1143.8768" />
    <polygon fill="#2C84FA" points="258.5,1133.8768,262.5,1143.8768,266.5,1133.8768,262.5,1137.8768"
      style="stroke:#2C84FA;stroke-width:1.0;" />
    <line style="stroke:#2C84FA;stroke-width:1.0;" x1="120" x2="120" y1="1019.8766" y2="1039.8766" />
    <polygon fill="#2C84FA" points="116,1029.8766,120,1039.8766,124,1029.8766,120,1033.8766"
      style="stroke:#2C84FA;stroke-width:1.0;" />
    <line style="stroke:#2C84FA;stroke-width:1.0;" x1="152" x2="120" y1="891.1264" y2="891.1264" />
    <line style="stroke:#2C84FA;stroke-width:1.0;" x1="120" x2="120" y1="891.1264" y2="914.8763" />
    <polygon fill="#2C84FA" points="116,904.8763,120,914.8763,124,904.8763,120,908.8763"
      style="stroke:#2C84FA;stroke-width:1.0;" />
    <line style="stroke:#2C84FA;stroke-width:1.0;" x1="373" x2="405" y1="891.1264" y2="891.1264" />
    <line style="stroke:#2C84FA;stroke-width:1.0;" x1="405" x2="405" y1="891.1264" y2="914.8763" />
    <polygon fill="#2C84FA" points="401,904.8763,405,914.8763,409,904.8763,405,908.8763"
      style="stroke:#2C84FA;stroke-width:1.0;" />
    <line style="stroke:#2C84FA;stroke-width:1.0;" x1="262.5" x2="262.5" y1="857.3765" y2="877.3765" />
    <polygon fill="#2C84FA" points="258.5,867.3765,262.5,877.3765,266.5,867.3765,262.5,871.3765"
      style="stroke:#2C84FA;stroke-width:1.0;" /><!--MD5=[96bf9b5298e8af6d41ca8949dbf09946]
    @startuml "Infosphere attack"
title "Infosphere attack"
skinparam defaultFontName Oxanium
    skinparam activity {
  StartColor #0fff50
  BarColor #2c84fa
  EndColor #e949f5
  BorderColor
    #2c84fa
  ArrowColor #2c84fa
  FontName Oxanium
}
start
group Determine \nthe damage dice
    :Neuroprocessor damage dice as a standard;
if (multiple attackers?) then (<color:#f2f230> yes)
    :add a die for each attacker;
else (<color:#f2f230> no)
endif
end group
:Make a dice roll;
    :Select an attacker and 
remember the result of his dice roll
(neuroprocessor attack);
:add
    the activated 
software dice;
note right
Activation of software
of the selected attacker
    endnote 
:perform a roll of additional
software damage dice 
and add the result to the result
    of 
neuroprocessor attack;
:Substract the value of
opponent's INF armor 
from the roll
    result;
note right
node software
activation
endnote
if (HP of the node less than or equal
    to zero?) then (<color:#f2f230> yes)
#0fff50 :take control of the node;
else (<color:#f2f230>
    no)
  :Subtract the damage points 
  from the __actual__ HP of the node.;
note right
node
    software
activation
endnote
endif
if (number of remaining points of damage 
    greater
    than zero?) then (<color:#f2f230> yes)
:subtract the remaining amount of 
damage points from
    the node's INF;
note right
node software
activation
endnote
:Perform a critical damage
    test;
if (Test passed?) then (<color:#f2f230> yes)
  end
else (<color:#f2f230> no)
  :apply
    all critical
  damage effects;
  note right
  node software
  activation
  endnote
endif
    else (<color:#f2f230> no)
 end
endif
end
@enduml

PlantUML version 1.2022.7(Mon Aug 22
    19:01:30 CEST 2022)
(GPL source distribution)
Java Runtime: OpenJDK Runtime Environment
JVM:
    OpenJDK 64-Bit Server VM
Default Encoding: UTF-8
Language: en
Country: GB
-->
  </g>
</svg>