<?xml version="1.0" encoding="UTF-8" standalone="no"?>
<svg
   contentStyleType="text/css"
   height="1142px"
   preserveAspectRatio="none"
   style="width:749px;height:1142px;background:#FFFFFF;"
   version="1.1"
   viewBox="0 0 749 1142"
   width="749px"
   zoomAndPan="magnify"
   id="svg303"
   sodipodi:docname="Atak na węzeł Infosfery dark.svg"
   inkscape:version="1.2.2 (b0a8486541, 2022-12-01)"
   xmlns:inkscape="http://www.inkscape.org/namespaces/inkscape"
   xmlns:sodipodi="http://sodipodi.sourceforge.net/DTD/sodipodi-0.dtd"
   xmlns="http://www.w3.org/2000/svg"
   xmlns:svg="http://www.w3.org/2000/svg">
  <sodipodi:namedview
     id="namedview305"
     pagecolor="#ffffff"
     bordercolor="#666666"
     borderopacity="1.0"
     inkscape:showpageshadow="2"
     inkscape:pageopacity="0.0"
     inkscape:pagecheckerboard="0"
     inkscape:deskcolor="#d1d1d1"
     showgrid="false"
     inkscape:zoom="0.82311734"
     inkscape:cx="336.52553"
     inkscape:cy="913.6"
     inkscape:window-width="1366"
     inkscape:window-height="699"
     inkscape:window-x="0"
     inkscape:window-y="0"
     inkscape:window-maximized="1"
     inkscape:current-layer="g301" />
  <defs
     id="defs2" />
  <g
     id="g301">
    <rect
       fill="none"
       height="27.4999"
       id="_title"
       style="stroke:none;stroke-width:1.0;"
       width="167"
       x="289.6875"
       y="15" />
    <text
       fill="#000000"
       font-family="Oxanium"
       font-size="14"
       font-weight="bold"
       lengthAdjust="spacing"
       textLength="157"
       x="294.6875"
       y="34.5599"
       id="text5"
       style="fill:#ffff00">Atak na węzeł Infosfery</text>
    <ellipse
       cx="330.875"
       cy="58.4999"
       fill="#0FFF50"
       rx="10"
       ry="10"
       style="stroke:#222222;stroke-width:1.0;"
       id="ellipse7" />
    <rect
       fill="none"
       height="232.3751"
       style="stroke:#000000;stroke-width:1.5;"
       width="280"
       x="191.375"
       y="78.4999"
       id="rect9" />
    <path
       d="M342.375,78.4999 L342.375,88.9998 L332.375,98.9998 L191.375,98.9998 "
       fill="none"
       style="stroke:#000000;stroke-width:1.5;"
       id="path11" />
    <text
       fill="#000000"
       font-family="Oxanium"
       font-size="14px"
       lengthAdjust="spacing"
       textLength="141"
       x="194.375"
       y="94.059898"
       id="text13"
       style="white-space:pre;inline-size:144.98;display:inline;fill:#ffff00"
       transform="matrix(0.89097647,0,0,1,21.313555,0)"
       xml:space="preserve"><tspan
         x="194.375"
         y="94.059898"
         id="tspan773"><tspan
           dx="0 0.43546882 0.43546882 0.43546978 0.43546787 0.43546978 0.43546978 0.43546978 0.43546596 0.43546978 0.43546978 0.43546596 0.43547359 0.43546596 0.43546978 0.43546596 0.43546978 0.43546978 0.43546978 0.43546596"
           id="tspan771">Określ kości obrażeń</tspan></tspan></text>
    <rect
       fill="#F1F1F1"
       height="35.0001"
       rx="12.5"
       ry="12.5"
       style="stroke:#2C84FA;stroke-width:0.5;"
       width="259"
       x="201.375"
       y="115.9998"
       id="rect15" />
    <text
       fill="#000000"
       font-family="Oxanium"
       font-size="12"
       lengthAdjust="spacing"
       textLength="239"
       x="211.375"
       y="138.4799"
       id="text17">standardowo kość obrażeń neuroprocesora</text>
    <rect
       fill="#F1F1F1"
       height="35.0001"
       rx="12.5"
       ry="12.5"
       style="stroke:#2C84FA;stroke-width:0.5;"
       width="217"
       x="222.375"
       y="219.8749"
       id="rect19" />
    <text
       fill="#000000"
       font-family="Oxanium"
       font-size="12"
       lengthAdjust="spacing"
       textLength="197"
       x="232.375"
       y="242.355"
       id="text21">dodaj kość za każdego atakującego</text>
    <polygon
       fill="#F1F1F1"
       points="282.375,171,379.375,171,391.375,183,379.375,195,282.375,195,270.375,183,282.375,171"
       style="stroke:#2C84FA;stroke-width:0.5;"
       id="polygon23" />
    <text
       fill="#000000"
       font-family="Oxanium"
       font-size="11"
       lengthAdjust="spacing"
       textLength="16"
       x="334.875"
       y="206.4399"
       id="text25"
       style="fill:#ffff00">tak</text>
    <text
       fill="#000000"
       font-family="Oxanium"
       font-size="11"
       lengthAdjust="spacing"
       textLength="97"
       x="282.375"
       y="187.5649"
       id="text27">wielu atakujących?</text>
    <text
       fill="#000000"
       font-family="Oxanium"
       font-size="11"
       lengthAdjust="spacing"
       textLength="15"
       x="391.375"
       y="180.69"
       id="text29"
       style="fill:#ffff00">nie</text>
    <polygon
       fill="#F1F1F1"
       points="330.875,274.875,342.875,286.875,330.875,298.875,318.875,286.875,330.875,274.875"
       style="stroke:#2C84FA;stroke-width:0.5;"
       id="polygon31" />
    <rect
       fill="#F1F1F1"
       height="35.0001"
       rx="12.5"
       ry="12.5"
       style="stroke:#2C84FA;stroke-width:0.5;"
       width="182"
       x="239.875"
       y="330.875"
       id="rect33" />
    <text
       fill="#000000"
       font-family="Oxanium"
       font-size="12"
       lengthAdjust="spacing"
       textLength="162"
       x="249.875"
       y="353.3551"
       id="text35">Wykonaj rzut kośćmi obrażeń</text>
    <rect
       fill="#F1F1F1"
       height="65.0003"
       rx="12.5"
       ry="12.5"
       style="stroke:#2C84FA;stroke-width:0.5;"
       width="214"
       x="223.875"
       y="385.8751"
       id="rect37" />
    <text
       fill="#000000"
       font-family="Oxanium"
       font-size="12px"
       lengthAdjust="spacing"
       textLength="143"
       x="233.875"
       y="408.35519"
       id="text39"
       transform="translate(25.463991)">Wybierz atakującego oraz</text>
    <text
       fill="#000000"
       font-family="Oxanium"
       font-size="12"
       lengthAdjust="spacing"
       textLength="194"
       x="233.875"
       y="423.3553"
       id="text41">zapamiętaj wynik rzutu jego kością</text>
    <text
       fill="#000000"
       font-family="Oxanium"
       font-size="12px"
       lengthAdjust="spacing"
       textLength="123"
       x="233.875"
       y="438.35541"
       id="text43"
       transform="translate(35.343987)">(atak neuroprocesora)</text>
    <path
       d="M451.375,474.6255 L451.375,491.8755 L431.375,495.8755 L451.375,499.8755 L451.375,517.1255 A0,0 0 0 0 451.375,517.1255 L640.375,517.1255 A0,0 0 0 0 640.375,517.1255 L640.375,484.6255 L630.375,474.6255 L451.375,474.6255 A0,0 0 0 0 451.375,474.6255 "
       fill="#FEFFDD"
       style="stroke:#181818;stroke-width:0.5;"
       id="path45" />
    <path
       d="M630.375,474.6255 L630.375,484.6255 L640.375,484.6255 L630.375,474.6255 "
       fill="#FEFFDD"
       style="stroke:#181818;stroke-width:0.5;"
       id="path47" />
    <text
       fill="#000000"
       font-family="Oxanium"
       font-size="13"
       lengthAdjust="spacing"
       textLength="168"
       x="457.375"
       y="493.1455"
       id="text49">Aktywacja oprogramowania</text>
    <text
       fill="#000000"
       font-family="Oxanium"
       font-size="13px"
       lengthAdjust="spacing"
       textLength="145"
       x="457.375"
       y="509.39551"
       id="text51"
       transform="translate(11.448003)">wybranego atakującego</text>
    <rect
       fill="#F1F1F1"
       height="50.0002"
       rx="12.5"
       ry="12.5"
       style="stroke:#2C84FA;stroke-width:0.5;"
       width="201"
       x="230.375"
       y="470.8754"
       id="rect53" />
    <text
       fill="#000000"
       font-family="Oxanium"
       font-size="12px"
       lengthAdjust="spacing"
       textLength="62"
       x="240.375"
       y="493.3555"
       id="text55"
       transform="translate(59.38)">dodaj kości</text>
    <text
       fill="#000000"
       font-family="Oxanium"
       font-size="12"
       lengthAdjust="spacing"
       textLength="181"
       x="240.375"
       y="508.3556"
       id="text57">aktywowanego oprogramowania</text>
    <rect
       fill="#F1F1F1"
       height="80.0004"
       rx="12.5"
       ry="12.5"
       style="stroke:#2C84FA;stroke-width:0.5;"
       width="207"
       x="227.375"
       y="540.8756"
       id="rect59" />
    <text
       fill="#000000"
       font-family="Oxanium"
       font-size="12px"
       lengthAdjust="spacing"
       textLength="148"
       x="237.375"
       y="563.35571"
       id="text61"
       transform="translate(18.335996)">wykonaj rzut dodatkowymi</text>
    <text
       fill="#000000"
       font-family="Oxanium"
       font-size="12"
       lengthAdjust="spacing"
       textLength="184"
       x="237.375"
       y="578.3558"
       id="text63">kośćmi obrażeń oprogramowania</text>
    <text
       fill="#000000"
       font-family="Oxanium"
       font-size="12px"
       lengthAdjust="spacing"
       textLength="142"
       x="237.375"
       y="593.3559"
       id="text65"
       transform="translate(21.047985)">i wynik dodaj do rezultatu</text>
    <text
       fill="#000000"
       font-family="Oxanium"
       font-size="12px"
       lengthAdjust="spacing"
       textLength="122"
       x="237.375"
       y="608.35602"
       id="text67"
       transform="translate(31.168)">ataku neuroprocesora</text>
    <path
       d="M454.875,644.6261 L454.875,661.8762 L434.875,665.8762 L454.875,669.8762 L454.875,687.1262 A0,0 0 0 0 454.875,687.1262 L642.875,687.1262 A0,0 0 0 0 642.875,687.1262 L642.875,654.6261 L632.875,644.6261 L454.875,644.6261 A0,0 0 0 0 454.875,644.6261 "
       fill="#FEFFDD"
       style="stroke:#181818;stroke-width:0.5;"
       id="path69" />
    <path
       d="M632.875,644.6261 L632.875,654.6261 L642.875,654.6261 L632.875,644.6261 "
       fill="#FEFFDD"
       style="stroke:#181818;stroke-width:0.5;"
       id="path71" />
    <text
       fill="#000000"
       font-family="Oxanium"
       font-size="13"
       lengthAdjust="spacing"
       textLength="167"
       x="460.875"
       y="663.1462"
       id="text73">aktywacja oprogramowania</text>
    <text
       fill="#000000"
       font-family="Oxanium"
       font-size="13px"
       lengthAdjust="spacing"
       textLength="35"
       x="460.875"
       y="679.39618"
       id="text75"
       transform="translate(66.181996)">węzła</text>
    <rect
       fill="#F1F1F1"
       height="50.0002"
       rx="12.5"
       ry="12.5"
       style="stroke:#2C84FA;stroke-width:0.5;"
       width="208"
       x="226.875"
       y="640.8761"
       id="rect77" />
    <text
       fill="#000000"
       font-family="Oxanium"
       font-size="12px"
       lengthAdjust="spacing"
       textLength="145"
       x="236.875"
       y="663.35608"
       id="text79"
       transform="translate(21.164004)">Od rezultatu rzutu odejmij</text>
    <text
       fill="#000000"
       font-family="Oxanium"
       font-size="12"
       lengthAdjust="spacing"
       textLength="188"
       x="236.875"
       y="678.3562"
       id="text81">wartość pancerza INF przeciwnika</text>
    <polygon
       fill="#F1F1F1"
       points="233.375,710.8763,428.375,710.8763,440.375,722.8763,428.375,734.8763,233.375,734.8763,221.375,722.8763,233.375,710.8763"
       style="stroke:#2C84FA;stroke-width:0.5;"
       id="polygon83" />
    <text
       fill="#000000"
       font-family="Oxanium"
       font-size="11"
       lengthAdjust="spacing"
       textLength="195"
       x="233.375"
       y="727.4412"
       id="text85">OCHR węzła mniejsza lub równa zero?</text>
    <text
       fill="#000000"
       font-family="Oxanium"
       font-size="11"
       lengthAdjust="spacing"
       textLength="16"
       x="205.375"
       y="720.5663"
       id="text87"
       style="fill:#ffff00">tak</text>
    <text
       fill="#000000"
       font-family="Oxanium"
       font-size="11"
       lengthAdjust="spacing"
       textLength="15"
       x="440.375"
       y="720.5663"
       id="text89"
       style="fill:#ffff00">nie</text>
    <rect
       fill="#0FFF50"
       height="35.0001"
       rx="12.5"
       ry="12.5"
       style="stroke:#2C84FA;stroke-width:0.5;"
       width="185"
       x="118.875"
       y="744.8763"
       id="rect91" />
    <text
       fill="#000000"
       font-family="Oxanium"
       font-size="12"
       lengthAdjust="spacing"
       textLength="165"
       x="128.875"
       y="767.3564"
       id="text93">przejęcie kontroli nad węzłem</text>
    <path
       d="M549.375,748.6264 L549.375,765.8764 L529.375,769.8764 L549.375,773.8764 L549.375,791.1264 A0,0 0 0 0 549.375,791.1264 L737.375,791.1264 A0,0 0 0 0 737.375,791.1264 L737.375,758.6264 L727.375,748.6264 L549.375,748.6264 A0,0 0 0 0 549.375,748.6264 "
       fill="#FEFFDD"
       style="stroke:#181818;stroke-width:0.5;"
       id="path95" />
    <path
       d="M727.375,748.6264 L727.375,758.6264 L737.375,758.6264 L727.375,748.6264 "
       fill="#FEFFDD"
       style="stroke:#181818;stroke-width:0.5;"
       id="path97" />
    <text
       fill="#000000"
       font-family="Oxanium"
       font-size="13"
       lengthAdjust="spacing"
       textLength="167"
       x="555.375"
       y="767.1464"
       id="text99">aktywacja oprogramowania</text>
    <text
       fill="#000000"
       font-family="Oxanium"
       font-size="13px"
       lengthAdjust="spacing"
       textLength="35"
       x="555.375"
       y="783.39642"
       id="text101"
       transform="translate(66.181996)">węzła</text>
    <rect
       fill="#F1F1F1"
       height="50.0002"
       rx="12.5"
       ry="12.5"
       style="stroke:#2C84FA;stroke-width:0.5;"
       width="158"
       x="371.375"
       y="744.8763"
       id="rect103" />
    <text
       fill="#000000"
       font-family="Oxanium"
       font-size="12px"
       lengthAdjust="spacing"
       textLength="131"
       x="381.375"
       y="767.35638"
       id="text105"
       transform="translate(3.4519923)">Odejmij punkty obrażeń</text>
    <g
       id="g693">
      <text
         fill="#000000"
         font-family="Oxanium"
         font-size="12"
         lengthAdjust="spacing"
         textLength="14"
         x="381.375"
         y="782.3565"
         id="text107">od</text>
      <text
         fill="#000000"
         font-family="Oxanium"
         font-size="12"
         lengthAdjust="spacing"
         text-decoration="underline"
         textLength="52"
         x="398.375"
         y="782.3565"
         id="text109">aktualnej</text>
      <text
         fill="#000000"
         font-family="Oxanium"
         font-size="12"
         lengthAdjust="spacing"
         textLength="66"
         x="453.375"
         y="782.3565"
         id="text111">OCHR węzła</text>
    </g>
    <polygon
       fill="#F1F1F1"
       points="330.875,800.8765,342.875,812.8765,330.875,824.8765,318.875,812.8765,330.875,800.8765"
       style="stroke:#2C84FA;stroke-width:0.5;"
       id="polygon113" />
    <polygon
       fill="#f1f1f1"
       points="420.875,844.8765 432.875,858.6264 420.875,872.3763 240.875,872.3763 228.875,858.6264 240.875,844.8765 "
       style="stroke:#2c84fa;stroke-width:0.5"
       id="polygon115"
       transform="matrix(1.0455147,0,0,1.2011458,-15.059681,-172.7091)" />
    <text
       fill="#000000"
       font-family="Oxanium"
       font-size="11"
       lengthAdjust="spacing"
       textLength="177"
       x="240.875"
       y="856.3164"
       id="text117">ilość pozostałych punktów obrażeń</text>
    <text
       fill="#000000"
       font-family="Oxanium"
       font-size="11px"
       lengthAdjust="spacing"
       textLength="91"
       x="240.875"
       y="870.06628"
       id="text119"
       transform="translate(43.142997)">większa niż zero?</text>
    <text
       fill="#000000"
       font-family="Oxanium"
       font-size="11px"
       lengthAdjust="spacing"
       textLength="16"
       x="212.875"
       y="856.31641"
       id="text121"
       transform="translate(-19.459653,-1.6325133)"
       style="fill:#ffff00">tak</text>
    <text
       fill="#000000"
       font-family="Oxanium"
       font-size="11px"
       lengthAdjust="spacing"
       textLength="15"
       x="432.875"
       y="856.31641"
       id="text123"
       transform="translate(25.936318,-2.2328416)"
       style="fill:#ffff00">nie</text>
    <path
       d="M277,886.1264 L277,903.3764 L257,907.3764 L277,911.3764 L277,928.6264 A0,0 0 0 0 277,928.6264 L466,928.6264 A0,0 0 0 0 466,928.6264 L466,896.1264 L456,886.1264 L277,886.1264 A0,0 0 0 0 277,886.1264 "
       fill="#FEFFDD"
       style="stroke:#181818;stroke-width:0.5;"
       id="path125" />
    <path
       d="M456,886.1264 L456,896.1264 L466,896.1264 L456,886.1264 "
       fill="#FEFFDD"
       style="stroke:#181818;stroke-width:0.5;"
       id="path127" />
    <text
       fill="#000000"
       font-family="Oxanium"
       font-size="13"
       lengthAdjust="spacing"
       textLength="168"
       x="283"
       y="904.6464"
       id="text129">Aktywacja oprogramowania</text>
    <text
       fill="#000000"
       font-family="Oxanium"
       font-size="13px"
       lengthAdjust="spacing"
       textLength="35"
       x="283"
       y="920.89642"
       id="text131"
       transform="translate(66.474004)">węzła</text>
    <rect
       fill="#F1F1F1"
       height="50.0002"
       rx="12.5"
       ry="12.5"
       style="stroke:#2C84FA;stroke-width:0.5;"
       width="246"
       x="11"
       y="882.3763"
       id="rect133" />
    <text
       fill="#000000"
       font-family="Oxanium"
       font-size="12"
       lengthAdjust="spacing"
       textLength="226"
       x="21"
       y="904.8564"
       id="text135">odejmij pozostałą ilość punktów obrażeń</text>
    <text
       fill="#000000"
       font-family="Oxanium"
       font-size="12px"
       lengthAdjust="spacing"
       textLength="71"
       x="21"
       y="919.85651"
       id="text137"
       transform="translate(77.500008)">od INF węzła</text>
    <rect
       fill="#F1F1F1"
       height="35.0001"
       rx="12.5"
       ry="12.5"
       style="stroke:#2C84FA;stroke-width:0.5;"
       width="224"
       x="22"
       y="952.3765"
       id="rect139" />
    <text
       fill="#000000"
       font-family="Oxanium"
       font-size="12"
       lengthAdjust="spacing"
       textLength="204"
       x="32"
       y="974.8566"
       id="text141">Wykonaj test na obrażenia krytyczne</text>
    <polygon
       fill="#F1F1F1"
       points="104.5,1007.3766,163.5,1007.3766,175.5,1019.3766,163.5,1031.3766,104.5,1031.3766,92.5,1019.3766,104.5,1007.3766"
       style="stroke:#2C84FA;stroke-width:0.5;"
       id="polygon143" />
    <text
       fill="#000000"
       font-family="Oxanium"
       font-size="11"
       lengthAdjust="spacing"
       textLength="59"
       x="104.5"
       y="1023.9415"
       id="text145">test zdany?</text>
    <text
       fill="#000000"
       font-family="Oxanium"
       font-size="11"
       lengthAdjust="spacing"
       textLength="16"
       x="76.5"
       y="1017.0666"
       id="text147"
       style="fill:#ffff00">tak</text>
    <text
       fill="#000000"
       font-family="Oxanium"
       font-size="11"
       lengthAdjust="spacing"
       textLength="15"
       x="175.5"
       y="1017.0666"
       id="text149"
       style="fill:#ffff00">nie</text>
    <ellipse
       cx="75.75"
       cy="1051.3766"
       fill="none"
       rx="10"
       ry="10"
       style="stroke:#E949F5;stroke-width:1.5;"
       id="ellipse151" />
    <line
       style="stroke:#E949F5;stroke-width:2.5;"
       x1="69.5628"
       x2="81.9372"
       y1="1045.1894"
       y2="1057.5638"
       id="line153" />
    <line
       style="stroke:#E949F5;stroke-width:2.5;"
       x1="81.9372"
       x2="69.5628"
       y1="1045.1894"
       y2="1057.5638"
       id="line155" />
    <path
       d="M293.75,1045.1267 L293.75,1062.3767 L273.75,1066.3767 L293.75,1070.3767 L293.75,1087.6267 A0,0 0 0 0 293.75,1087.6267 L482.75,1087.6267 A0,0 0 0 0 482.75,1087.6267 L482.75,1055.1267 L472.75,1045.1267 L293.75,1045.1267 A0,0 0 0 0 293.75,1045.1267 "
       fill="#FEFFDD"
       style="stroke:#181818;stroke-width:0.5;"
       id="path157" />
    <path
       d="M472.75,1045.1267 L472.75,1055.1267 L482.75,1055.1267 L472.75,1045.1267 "
       fill="#FEFFDD"
       style="stroke:#181818;stroke-width:0.5;"
       id="path159" />
    <text
       fill="#000000"
       font-family="Oxanium"
       font-size="13"
       lengthAdjust="spacing"
       textLength="168"
       x="299.75"
       y="1063.6467"
       id="text161">Aktywacja oprogramowania</text>
    <text
       fill="#000000"
       font-family="Oxanium"
       font-size="13px"
       lengthAdjust="spacing"
       textLength="35"
       x="299.75"
       y="1079.8967"
       id="text163"
       transform="translate(66.474004)">węzła</text>
    <rect
       fill="#F1F1F1"
       height="50.0002"
       rx="12.5"
       ry="12.5"
       style="stroke:#2C84FA;stroke-width:0.5;"
       width="163"
       x="110.75"
       y="1041.3766"
       id="rect165" />
    <text
       fill="#000000"
       font-family="Oxanium"
       font-size="12"
       lengthAdjust="spacing"
       textLength="143"
       x="120.75"
       y="1063.8567"
       id="text167">zastosuj wszystkie efekty</text>
    <text
       fill="#000000"
       font-family="Oxanium"
       font-size="12px"
       lengthAdjust="spacing"
       textLength="113"
       x="120.75"
       y="1078.8568"
       id="text169"
       transform="translate(15.203996)">obrażeń krytycznych</text>
    <ellipse
       cx="527.75"
       cy="892.3763"
       fill="none"
       rx="10"
       ry="10"
       style="stroke:#E949F5;stroke-width:1.5;"
       id="ellipse171" />
    <line
       style="stroke:#E949F5;stroke-width:2.5;"
       x1="521.5628"
       x2="533.9372"
       y1="886.1891"
       y2="898.5635"
       id="line173" />
    <line
       style="stroke:#E949F5;stroke-width:2.5;"
       x1="533.9372"
       x2="521.5628"
       y1="886.1891"
       y2="898.5635"
       id="line175" />
    <ellipse
       cx="330.875"
       cy="1121.3768"
       fill="none"
       rx="10"
       ry="10"
       style="stroke:#E949F5;stroke-width:1.5;"
       id="ellipse177" />
    <line
       style="stroke:#E949F5;stroke-width:2.5;"
       x1="324.6878"
       x2="337.0622"
       y1="1115.1896"
       y2="1127.564"
       id="line179" />
    <line
       style="stroke:#E949F5;stroke-width:2.5;"
       x1="337.0622"
       x2="324.6878"
       y1="1115.1896"
       y2="1127.564"
       id="line181" />
    <line
       style="stroke:#2C84FA;stroke-width:1.0;"
       x1="330.875"
       x2="330.875"
       y1="195"
       y2="219.8749"
       id="line183" />
    <polygon
       fill="#2C84FA"
       points="326.875,209.8749,330.875,219.8749,334.875,209.8749,330.875,213.8749"
       style="stroke:#2C84FA;stroke-width:1.0;"
       id="polygon185" />
    <line
       style="stroke:#2C84FA;stroke-width:1.0;"
       x1="391.375"
       x2="449.375"
       y1="183"
       y2="183"
       id="line187" />
    <polygon
       fill="#2C84FA"
       points="445.375,227.375,449.375,237.375,453.375,227.375,449.375,231.375"
       style="stroke:#2C84FA;stroke-width:1.0;"
       id="polygon189" />
    <line
       style="stroke:#2C84FA;stroke-width:1.0;"
       x1="449.375"
       x2="449.375"
       y1="183"
       y2="286.875"
       id="line191" />
    <line
       style="stroke:#2C84FA;stroke-width:1.0;"
       x1="449.375"
       x2="342.875"
       y1="286.875"
       y2="286.875"
       id="line193" />
    <polygon
       fill="#2C84FA"
       points="352.875,282.875,342.875,286.875,352.875,290.875,348.875,286.875"
       style="stroke:#2C84FA;stroke-width:1.0;"
       id="polygon195" />
    <line
       style="stroke:#2C84FA;stroke-width:1.0;"
       x1="330.875"
       x2="330.875"
       y1="254.875"
       y2="274.875"
       id="line197" />
    <polygon
       fill="#2C84FA"
       points="326.875,264.875,330.875,274.875,334.875,264.875,330.875,268.875"
       style="stroke:#2C84FA;stroke-width:1.0;"
       id="polygon199" />
    <line
       style="stroke:#2C84FA;stroke-width:1.0;"
       x1="330.875"
       x2="330.875"
       y1="151"
       y2="171"
       id="line201" />
    <polygon
       fill="#2C84FA"
       points="326.875,161,330.875,171,334.875,161,330.875,165"
       style="stroke:#2C84FA;stroke-width:1.0;"
       id="polygon203" />
    <line
       style="stroke:#2C84FA;stroke-width:1.0;"
       x1="330.875"
       x2="330.875"
       y1="68.4999"
       y2="115.9998"
       id="line205" />
    <polygon
       fill="#2C84FA"
       points="326.875,105.9998,330.875,115.9998,334.875,105.9998,330.875,109.9998"
       style="stroke:#2C84FA;stroke-width:1.0;"
       id="polygon207" />
    <line
       style="stroke:#2C84FA;stroke-width:1.0;"
       x1="330.875"
       x2="330.875"
       y1="298.875"
       y2="330.875"
       id="line209" />
    <polygon
       fill="#2C84FA"
       points="326.875,320.875,330.875,330.875,334.875,320.875,330.875,324.875"
       style="stroke:#2C84FA;stroke-width:1.0;"
       id="polygon211" />
    <line
       style="stroke:#2C84FA;stroke-width:1.0;"
       x1="330.875"
       x2="330.875"
       y1="365.8751"
       y2="385.8751"
       id="line213" />
    <polygon
       fill="#2C84FA"
       points="326.875,375.8751,330.875,385.8751,334.875,375.8751,330.875,379.8751"
       style="stroke:#2C84FA;stroke-width:1.0;"
       id="polygon215" />
    <line
       style="stroke:#2C84FA;stroke-width:1.0;"
       x1="330.875"
       x2="330.875"
       y1="450.8754"
       y2="470.8754"
       id="line217" />
    <polygon
       fill="#2C84FA"
       points="326.875,460.8754,330.875,470.8754,334.875,460.8754,330.875,464.8754"
       style="stroke:#2C84FA;stroke-width:1.0;"
       id="polygon219" />
    <line
       style="stroke:#2C84FA;stroke-width:1.0;"
       x1="330.875"
       x2="330.875"
       y1="520.8756"
       y2="540.8756"
       id="line221" />
    <polygon
       fill="#2C84FA"
       points="326.875,530.8756,330.875,540.8756,334.875,530.8756,330.875,534.8756"
       style="stroke:#2C84FA;stroke-width:1.0;"
       id="polygon223" />
    <line
       style="stroke:#2C84FA;stroke-width:1.0;"
       x1="330.875"
       x2="330.875"
       y1="620.8761"
       y2="640.8761"
       id="line225" />
    <polygon
       fill="#2C84FA"
       points="326.875,630.8761,330.875,640.8761,334.875,630.8761,330.875,634.8761"
       style="stroke:#2C84FA;stroke-width:1.0;"
       id="polygon227" />
    <line
       style="stroke:#2C84FA;stroke-width:1.0;"
       x1="221.375"
       x2="211.375"
       y1="722.8763"
       y2="722.8763"
       id="line229" />
    <line
       style="stroke:#2C84FA;stroke-width:1.0;"
       x1="211.375"
       x2="211.375"
       y1="722.8763"
       y2="744.8763"
       id="line231" />
    <polygon
       fill="#2C84FA"
       points="207.375,734.8763,211.375,744.8763,215.375,734.8763,211.375,738.8763"
       style="stroke:#2C84FA;stroke-width:1.0;"
       id="polygon233" />
    <line
       style="stroke:#2C84FA;stroke-width:1.0;"
       x1="440.375"
       x2="450.375"
       y1="722.8763"
       y2="722.8763"
       id="line235" />
    <line
       style="stroke:#2C84FA;stroke-width:1.0;"
       x1="450.375"
       x2="450.375"
       y1="722.8763"
       y2="744.8763"
       id="line237" />
    <polygon
       fill="#2C84FA"
       points="446.375,734.8763,450.375,744.8763,454.375,734.8763,450.375,738.8763"
       style="stroke:#2C84FA;stroke-width:1.0;"
       id="polygon239" />
    <line
       style="stroke:#2C84FA;stroke-width:1.0;"
       x1="211.375"
       x2="211.375"
       y1="779.8764"
       y2="812.8765"
       id="line241" />
    <line
       style="stroke:#2C84FA;stroke-width:1.0;"
       x1="211.375"
       x2="318.875"
       y1="812.8765"
       y2="812.8765"
       id="line243" />
    <polygon
       fill="#2C84FA"
       points="308.875,808.8765,318.875,812.8765,308.875,816.8765,312.875,812.8765"
       style="stroke:#2C84FA;stroke-width:1.0;"
       id="polygon245" />
    <line
       style="stroke:#2C84FA;stroke-width:1.0;"
       x1="450.375"
       x2="450.375"
       y1="794.8765"
       y2="812.8765"
       id="line247" />
    <line
       style="stroke:#2C84FA;stroke-width:1.0;"
       x1="450.375"
       x2="342.875"
       y1="812.8765"
       y2="812.8765"
       id="line249" />
    <polygon
       fill="#2C84FA"
       points="352.875,808.8765,342.875,812.8765,352.875,816.8765,348.875,812.8765"
       style="stroke:#2C84FA;stroke-width:1.0;"
       id="polygon251" />
    <line
       style="stroke:#2C84FA;stroke-width:1.0;"
       x1="330.875"
       x2="330.875"
       y1="690.8763"
       y2="710.8763"
       id="line253" />
    <polygon
       fill="#2C84FA"
       points="326.875,700.8763,330.875,710.8763,334.875,700.8763,330.875,704.8763"
       style="stroke:#2C84FA;stroke-width:1.0;"
       id="polygon255" />
    <line
       style="stroke:#2C84FA;stroke-width:1.0;"
       x1="134"
       x2="134"
       y1="932.3765"
       y2="952.3765"
       id="line257" />
    <polygon
       fill="#2C84FA"
       points="130,942.3765,134,952.3765,138,942.3765,134,946.3765"
       style="stroke:#2C84FA;stroke-width:1.0;"
       id="polygon259" />
    <line
       style="stroke:#2C84FA;stroke-width:1.0;"
       x1="92.5"
       x2="75.75"
       y1="1019.3766"
       y2="1019.3766"
       id="line261" />
    <line
       style="stroke:#2C84FA;stroke-width:1.0;"
       x1="75.75"
       x2="75.75"
       y1="1019.3766"
       y2="1041.3766"
       id="line263" />
    <polygon
       fill="#2C84FA"
       points="71.75,1031.3766,75.75,1041.3766,79.75,1031.3766,75.75,1035.3766"
       style="stroke:#2C84FA;stroke-width:1.0;"
       id="polygon265" />
    <line
       style="stroke:#2C84FA;stroke-width:1.0;"
       x1="175.5"
       x2="192.25"
       y1="1019.3766"
       y2="1019.3766"
       id="line267" />
    <line
       style="stroke:#2C84FA;stroke-width:1.0;"
       x1="192.25"
       x2="192.25"
       y1="1019.3766"
       y2="1041.3766"
       id="line269" />
    <polygon
       fill="#2C84FA"
       points="188.25,1031.3766,192.25,1041.3766,196.25,1031.3766,192.25,1035.3766"
       style="stroke:#2C84FA;stroke-width:1.0;"
       id="polygon271" />
    <line
       style="stroke:#2C84FA;stroke-width:1.0;"
       x1="192.25"
       x2="192.25"
       y1="1091.3768"
       y2="1096.3768"
       id="line273" />
    <line
       style="stroke:#2C84FA;stroke-width:1.0;"
       x1="192.25"
       x2="330.875"
       y1="1096.3768"
       y2="1096.3768"
       id="line275" />
    <line
       style="stroke:#2C84FA;stroke-width:1.0;"
       x1="330.875"
       x2="330.875"
       y1="1096.3768"
       y2="1111.3768"
       id="line277" />
    <polygon
       fill="#2C84FA"
       points="326.875,1101.3768,330.875,1111.3768,334.875,1101.3768,330.875,1105.3768"
       style="stroke:#2C84FA;stroke-width:1.0;"
       id="polygon279" />
    <line
       style="stroke:#2C84FA;stroke-width:1.0;"
       x1="134"
       x2="134"
       y1="987.3766"
       y2="1007.3766"
       id="line281" />
    <polygon
       fill="#2C84FA"
       points="130,997.3766,134,1007.3766,138,997.3766,134,1001.3766"
       style="stroke:#2C84FA;stroke-width:1.0;"
       id="polygon283" />
    <line
       style="stroke:#2c84fa;stroke-width:0.977014"
       x1="224.56355"
       x2="134"
       y1="858.6264"
       y2="858.6264"
       id="line285" />
    <line
       style="stroke:#2C84FA;stroke-width:1.0;"
       x1="134"
       x2="134"
       y1="858.6264"
       y2="882.3763"
       id="line287" />
    <polygon
       fill="#2C84FA"
       points="130,872.3763,134,882.3763,138,872.3763,134,876.3763"
       style="stroke:#2C84FA;stroke-width:1.0;"
       id="polygon289" />
    <line
       style="stroke:#2c84fa;stroke-width:0.976374"
       x1="437.30508"
       x2="527.75"
       y1="858.6264"
       y2="858.6264"
       id="line291" />
    <line
       style="stroke:#2C84FA;stroke-width:1.0;"
       x1="527.75"
       x2="527.75"
       y1="858.6264"
       y2="882.3763"
       id="line293" />
    <polygon
       fill="#2C84FA"
       points="523.75,872.3763,527.75,882.3763,531.75,872.3763,527.75,876.3763"
       style="stroke:#2C84FA;stroke-width:1.0;"
       id="polygon295" />
    <line
       style="stroke:#2c84fa;stroke-width:0.812277"
       x1="330.875"
       x2="330.875"
       y1="824.87653"
       y2="838.07239"
       id="line297" />
    <polygon
       fill="#2c84fa"
       points="330.875,844.8765 334.875,834.8765 330.875,838.8765 326.875,834.8765 "
       style="stroke:#2c84fa;stroke-width:1"
       id="polygon299"
       transform="translate(-0.0972864,-3.6340031)" />
    <!--MD5=[7d48171b8d37d318371be459c84ab25f]
@startuml "Atak na węzeł Infosfery"
title "Atak na węzeł Infosfery"
skinparam defaultFontName Oxanium
skinparam activity {
  StartColor #0fff50
  BarColor #2c84fa
  EndColor #e949f5
  BorderColor #2c84fa
  ArrowColor #2c84fa
  FontName Oxanium
}
start
group "Określ kości obrażeń" 
:standardowo kość obrażeń neuroprocesora;
if (wielu atakujących?) then (tak)
:dodaj kość za każdego atakującego;
else (nie)
endif
end group
:Wykonaj rzut kośćmi obrażeń;
:Wybierz atakującego oraz 
zapamiętaj wynik rzutu jego kością
(atak neuroprocesora);
:dodaj kości 
aktywowanego oprogramowania;
note right
Aktywacja oprogramowania
wybranego atakującego
endnote 
:wykonaj rzut dodatkowymi
kośćmi obrażeń oprogramowania 
i wynik dodaj do rezultatu 
ataku neuroprocesora;
:Od rezultatu rzutu odejmij 
wartość pancerza INF przeciwnika;
note right
aktywacja oprogramowania
węzła
endnote
if (OCHR węzła mniejsza lub równa zero?) then (tak)
#0fff50 :przejęcie kontroli nad węzłem;
else (nie)
  :Odejmij punkty obrażeń 
  od __aktualnej__ OCHR węzła;
note right
 aktywacja oprogramowania
 węzła
endnote
endif
if (ilość pozostałych punktów obrażeń 
większa niż zero?) then (tak)
:odejmij pozostałą ilość punktów obrażeń 
od INF węzła;
note right
Aktywacja oprogramowania
węzła
endnote
:Wykonaj test na obrażenia krytyczne;
if (test zdany?) then (tak)
  end
else (nie)
  :zastosuj wszystkie efekty 
  obrażeń krytycznych;
  note right
  Aktywacja oprogramowania
  węzła
  endnote
endif
else (nie)
 end
endif
end
@enduml

PlantUML version 1.2022.7(Mon Aug 22 19:01:30 CEST 2022)
(GPL source distribution)
Java Runtime: OpenJDK Runtime Environment
JVM: OpenJDK 64-Bit Server VM
Default Encoding: UTF-8
Language: en
Country: GB
-->
  </g>
</svg>
