<?xml version="1.0" encoding="UTF-8" standalone="no"?>
<svg xmlns="http://www.w3.org/2000/svg" xmlns:xlink="http://www.w3.org/1999/xlink"
  contentStyleType="text/css" height="1772px" preserveAspectRatio="none"
  style="width:662px;height:1772px;background:transparent;" version="1.1" viewBox="0 0 662 1772"
  width="662px" zoomAndPan="magnify">
  <defs />
  <g>
    <rect fill="none" height="27.4999" id="_title" style="stroke:none;stroke-width:1.0;" width="111"
      x="274.375" y="15" />
    <text fill="#000000" font-family="Oxanium" font-size="14" font-weight="bold"
      lengthAdjust="spacing" textLength="101" x="279.375" y="34.5599">Physical attack</text>
    <ellipse cx="339.75" cy="58.4999" fill="#0FFF50" rx="10" ry="10"
      style="stroke:#222222;stroke-width:1.0;" />
    <rect fill="none" height="430.2501" style="stroke:#000000;stroke-width:1.5;" width="230"
      x="230.75" y="78.4999" />
    <path d="M330.75,78.4999 L330.75,123.9997 L320.75,133.9997 L230.75,133.9997 " fill="none"
      style="stroke:#000000;stroke-width:1.5;" />
    <text fill="#000000" font-family="Oxanium" font-size="14" lengthAdjust="spacing" textLength="68"
      x="233.75" y="94.0599">Determine</text>
    <text fill="#000000" font-family="Oxanium" font-size="14" lengthAdjust="spacing" textLength="90"
      x="233.75" y="111.5598">the amount of</text>
    <text fill="#000000" font-family="Oxanium" font-size="14" lengthAdjust="spacing" textLength="82"
      x="233.75" y="129.0597">damage dice</text>
    <rect fill="#F1F1F1" height="35.0001" rx="12.5" ry="12.5"
      style="stroke:#2C84FA;stroke-width:0.5;" width="189" x="245.25" y="150.9997" />
    <text fill="#000000" font-family="Oxanium" font-size="12" lengthAdjust="spacing"
      textLength="169" x="255.25" y="173.4798">one damage die as a standard</text>
    <rect fill="#F1F1F1" height="35.0001" rx="12.5" ry="12.5"
      style="stroke:#2C84FA;stroke-width:0.5;" width="170" x="254.75" y="254.8747" />
    <text fill="#000000" font-family="Oxanium" font-size="12" lengthAdjust="spacing"
      textLength="150" x="264.75" y="277.3548">add a die for each attacker</text>
    <polygon fill="#F1F1F1"
      points="297.25,205.9998,382.25,205.9998,394.25,217.9998,382.25,229.9998,297.25,229.9998,285.25,217.9998,297.25,205.9998"
      style="stroke:#2C84FA;stroke-width:0.5;" />
    <text fill="#F2F230" font-family="Oxanium" font-size="11" lengthAdjust="spacing" textLength="18"
      x="346.75" y="241.4397">yes</text>
    <text fill="#000000" font-family="Oxanium" font-size="11" lengthAdjust="spacing" textLength="85"
      x="297.25" y="222.5648">many attackers?</text>
    <text fill="#F2F230" font-family="Oxanium" font-size="11" lengthAdjust="spacing" textLength="12"
      x="397.25" y="215.6898">no</text>
    <polygon fill="#F1F1F1"
      points="339.75,309.8749,351.75,321.8749,339.75,333.8749,327.75,321.8749,339.75,309.8749"
      style="stroke:#2C84FA;stroke-width:0.5;" />
    <rect fill="#F1F1F1" height="50.0002" rx="12.5" ry="12.5"
      style="stroke:#2C84FA;stroke-width:0.5;" width="178" x="250.75" y="402.7498" />
    <text fill="#000000" font-family="Oxanium" font-size="12" lengthAdjust="spacing"
      textLength="100" x="260.75" y="425.2299">add a die for each</text>
    <text fill="#000000" font-family="Oxanium" font-size="12" lengthAdjust="spacing"
      textLength="158" x="260.75" y="440.23">attacker with a dual weapon</text>
    <polygon fill="#F1F1F1"
      points="287.25,353.8749,392.25,353.8749,404.25,365.8749,392.25,377.8749,287.25,377.8749,275.25,365.8749,287.25,353.8749"
      style="stroke:#2C84FA;stroke-width:0.5;" />
    <text fill="#F2F230" font-family="Oxanium" font-size="11" lengthAdjust="spacing" textLength="18"
      x="346.75" y="389.3148">yes</text>
    <text fill="#000000" font-family="Oxanium" font-size="11" lengthAdjust="spacing"
      textLength="105" x="287.25" y="370.4398">dual-weapon attack?</text>
    <text fill="#F2F230" font-family="Oxanium" font-size="11" lengthAdjust="spacing" textLength="12"
      x="407.25" y="363.5649">no</text>
    <polygon fill="#F1F1F1"
      points="339.75,472.75,351.75,484.75,339.75,496.75,327.75,484.75,339.75,472.75"
      style="stroke:#2C84FA;stroke-width:0.5;" />
    <rect fill="none" height="404" style="stroke:#000000;stroke-width:1.5;" width="439.75"
      x="192.25" y="518.75" />
    <path d="M284.25,518.75 L284.25,564.2498 L274.25,574.2498 L192.25,574.2498 " fill="none"
      style="stroke:#000000;stroke-width:1.5;" />
    <text fill="#000000" font-family="Oxanium" font-size="14" lengthAdjust="spacing" textLength="68"
      x="195.25" y="534.3099">Determine</text>
    <text fill="#000000" font-family="Oxanium" font-size="14" lengthAdjust="spacing" textLength="68"
      x="195.25" y="551.8099">the type of</text>
    <text fill="#000000" font-family="Oxanium" font-size="14" lengthAdjust="spacing" textLength="82"
      x="195.25" y="569.3098">damage dice</text>
    <rect fill="#F1F1F1" height="35.0001" rx="12.5" ry="12.5"
      style="stroke:#2C84FA;stroke-width:0.5;" width="181" x="249.25" y="591.2498" />
    <text fill="#000000" font-family="Oxanium" font-size="12" lengthAdjust="spacing"
      textLength="161" x="259.25" y="613.7299">Individually for each attacker</text>
    <polygon fill="#F1F1F1"
      points="254.75,646.2499,424.75,646.2499,436.75,658.2499,424.75,670.2499,254.75,670.2499,242.75,658.2499,254.75,646.2499"
      style="stroke:#2C84FA;stroke-width:0.5;" />
    <text fill="#000000" font-family="Oxanium" font-size="11" lengthAdjust="spacing"
      textLength="170" x="254.75" y="662.8149">attack without a defined weapon?</text>
    <text fill="#F2F230" font-family="Oxanium" font-size="11" lengthAdjust="spacing" textLength="18"
      x="224.75" y="655.9399">yes</text>
    <text fill="#F2F230" font-family="Oxanium" font-size="11" lengthAdjust="spacing" textLength="12"
      x="439.75" y="655.9399">no</text>
    <rect fill="#F1F1F1" height="35.0001" rx="12.5" ry="12.5"
      style="stroke:#2C84FA;stroke-width:0.5;" width="41" x="212.25" y="680.2499" />
    <text fill="#000000" font-family="Oxanium" font-size="12" lengthAdjust="spacing" textLength="21"
      x="222.25" y="702.73">1d4</text>
    <rect fill="#F1F1F1" height="35.0001" rx="12.5" ry="12.5"
      style="stroke:#2C84FA;stroke-width:0.5;" width="139" x="377.25" y="680.2499" />
    <text fill="#000000" font-family="Oxanium" font-size="12" lengthAdjust="spacing"
      textLength="119" x="387.25" y="702.73">weapon damage dice</text>
    <polygon fill="#F1F1F1"
      points="408.25,735.25,485.25,735.25,497.25,747.25,485.25,759.25,408.25,759.25,396.25,747.25,408.25,735.25"
      style="stroke:#2C84FA;stroke-width:0.5;" />
    <text fill="#000000" font-family="Oxanium" font-size="11" lengthAdjust="spacing" textLength="77"
      x="408.25" y="751.815">attack modifier</text>
    <rect fill="#F1F1F1" height="50.0002" rx="12.5" ry="12.5"
      style="stroke:#2C84FA;stroke-width:0.5;" width="145" x="281.5" y="796.7498" />
    <text fill="#000000" font-family="Oxanium" font-size="12" lengthAdjust="spacing"
      textLength="105" x="291.5" y="819.2299">1d4 or respectively</text>
    <text fill="#000000" font-family="Oxanium" font-size="12" lengthAdjust="spacing"
      text-decoration="underline" textLength="58" x="291.5" y="834.23">decreased</text>
    <text fill="#000000" font-family="Oxanium" font-size="12" lengthAdjust="spacing" textLength="64"
      x="352.5" y="834.23">weapon die</text>
    <rect fill="#F1F1F1" height="50.0002" rx="12.5" ry="12.5"
      style="stroke:#2C84FA;stroke-width:0.5;" width="141" x="471" y="796.7498" />
    <text fill="#000000" font-family="Oxanium" font-size="12" lengthAdjust="spacing"
      textLength="112" x="481" y="819.2299">1d12 or respectively</text>
    <text fill="#000000" font-family="Oxanium" font-size="12" lengthAdjust="spacing"
      text-decoration="underline" textLength="54" x="481" y="834.23">increased</text>
    <text fill="#000000" font-family="Oxanium" font-size="12" lengthAdjust="spacing" textLength="64"
      x="538" y="834.23">weapon die</text>
    <polygon fill="#F1F1F1"
      points="446.75,856.75,446.75,856.75,458.75,868.75,446.75,880.75,446.75,880.75,434.75,868.75,446.75,856.75"
      style="stroke:#2C84FA;stroke-width:0.5;" />
    <polygon fill="#F1F1F1"
      points="339.75,886.75,351.75,898.75,339.75,910.75,327.75,898.75,339.75,886.75"
      style="stroke:#2C84FA;stroke-width:0.5;" />
    <path
      d="M412.75,947.125 L412.75,956.25 L392.75,960.25 L412.75,964.25 L412.75,973.3751 A0,0 0 0 0 412.75,973.3751 L612.75,973.3751 A0,0 0 0 0 612.75,973.3751 L612.75,957.125 L602.75,947.125 L412.75,947.125 A0,0 0 0 0 412.75,947.125 "
      fill="#FEFFDD" style="stroke:#181818;stroke-width:0.5;" />
    <path d="M602.75,947.125 L602.75,957.125 L612.75,957.125 L602.75,947.125 " fill="#FEFFDD"
      style="stroke:#181818;stroke-width:0.5;" />
    <text fill="#000000" font-family="Oxanium" font-size="13" lengthAdjust="spacing"
      textLength="179" x="418.75" y="965.6451">Attacker cybermod activation</text>
    <rect fill="#F1F1F1" height="35.0001" rx="12.5" ry="12.5"
      style="stroke:#2C84FA;stroke-width:0.5;" width="106" x="286.75" y="942.75" />
    <text fill="#000000" font-family="Oxanium" font-size="12" lengthAdjust="spacing" textLength="86"
      x="296.75" y="965.2301">Make a dice roll</text>
    <rect fill="#F1F1F1" height="65.0003" rx="12.5" ry="12.5"
      style="stroke:#2C84FA;stroke-width:0.5;" width="148" x="265.75" y="1046.625" />
    <text fill="#000000" font-family="Oxanium" font-size="12" lengthAdjust="spacing"
      textLength="128" x="275.75" y="1069.1051">repeat the damage roll</text>
    <text fill="#000000" font-family="Oxanium" font-size="12" lengthAdjust="spacing"
      textLength="102" x="275.75" y="1084.1052">for each character</text>
    <text fill="#000000" font-family="Oxanium" font-size="12" lengthAdjust="spacing"
      textLength="113" x="275.75" y="1099.1053">within striking range</text>
    <polygon fill="#F1F1F1"
      points="257.75,997.7501,421.75,997.7501,433.75,1009.7501,421.75,1021.7501,257.75,1021.7501,245.75,1009.7501,257.75,997.7501"
      style="stroke:#2C84FA;stroke-width:0.5;" />
    <text fill="#F2F230" font-family="Oxanium" font-size="11" lengthAdjust="spacing" textLength="18"
      x="346.75" y="1033.19">yes</text>
    <text fill="#000000" font-family="Oxanium" font-size="11" lengthAdjust="spacing"
      textLength="164" x="257.75" y="1014.3151">The weapon has a blast feature?</text>
    <polygon fill="#F1F1F1"
      points="339.75,1131.6254,351.75,1143.6254,339.75,1155.6254,327.75,1143.6254,339.75,1131.6254"
      style="stroke:#2C84FA;stroke-width:0.5;" />
    <rect fill="#F1F1F1" height="35.0001" rx="12.5" ry="12.5"
      style="stroke:#2C84FA;stroke-width:0.5;" width="155" x="262.25" y="1175.6254" />
    <text fill="#000000" font-family="Oxanium" font-size="12" lengthAdjust="spacing"
      textLength="135" x="272.25" y="1198.1055">Select the highest score</text>
    <rect fill="#F1F1F1" height="65.0003" rx="12.5" ry="12.5"
      style="stroke:#2C84FA;stroke-width:0.5;" width="158" x="260.75" y="1230.6255" />
    <text fill="#000000" font-family="Oxanium" font-size="12" lengthAdjust="spacing"
      textLength="100" x="270.75" y="1253.1056">Substract victim's</text>
    <text fill="#000000" font-family="Oxanium" font-size="12" lengthAdjust="spacing"
      text-decoration="underline" textLength="35" x="373.75" y="1253.1056">actual</text>
    <text fill="#000000" font-family="Oxanium" font-size="12" lengthAdjust="spacing" textLength="66"
      x="273.75" y="1268.1057">armor value</text>
    <text fill="#000000" font-family="Oxanium" font-size="12" lengthAdjust="spacing"
      textLength="104" x="273.75" y="1283.1058">from the roll result</text>
    <path
      d="M469.75,1368.2508 L469.75,1385.5008 L449.75,1389.5008 L469.75,1393.5008 L469.75,1410.7509 A0,0 0 0 0 469.75,1410.7509 L626.75,1410.7509 A0,0 0 0 0 626.75,1410.7509 L626.75,1378.2508 L616.75,1368.2508 L469.75,1368.2508 A0,0 0 0 0 469.75,1368.2508 "
      fill="#FEFFDD" style="stroke:#181818;stroke-width:0.5;" />
    <path d="M616.75,1368.2508 L616.75,1378.2508 L626.75,1378.2508 L616.75,1368.2508 "
      fill="#FEFFDD" style="stroke:#181818;stroke-width:0.5;" />
    <text fill="#000000" font-family="Oxanium" font-size="13" lengthAdjust="spacing"
      textLength="136" x="475.75" y="1386.7708">Oponnent's cybermod</text>
    <text fill="#000000" font-family="Oxanium" font-size="13" lengthAdjust="spacing" textLength="60"
      x="475.75" y="1403.0209">activation</text>
    <rect fill="#F1F1F1" height="50.0002" rx="12.5" ry="12.5"
      style="stroke:#2C84FA;stroke-width:0.5;" width="220" x="229.75" y="1364.5007" />
    <text fill="#000000" font-family="Oxanium" font-size="12" lengthAdjust="spacing"
      textLength="157" x="239.75" y="1386.9808">Subtract the damage points</text>
    <text fill="#000000" font-family="Oxanium" font-size="12" lengthAdjust="spacing" textLength="49"
      x="239.75" y="1401.9809">from the</text>
    <text fill="#000000" font-family="Oxanium" font-size="12" lengthAdjust="spacing"
      text-decoration="underline" textLength="35" x="291.75" y="1401.9809">actual</text>
    <text fill="#000000" font-family="Oxanium" font-size="12" lengthAdjust="spacing"
      textLength="110" x="329.75" y="1401.9809">HP of the opponent</text>
    <polygon fill="#F1F1F1"
      points="234.75,1315.6258,444.75,1315.6258,456.75,1327.6258,444.75,1339.6258,234.75,1339.6258,222.75,1327.6258,234.75,1315.6258"
      style="stroke:#2C84FA;stroke-width:0.5;" />
    <text fill="#F2F230" font-family="Oxanium" font-size="11" lengthAdjust="spacing" textLength="12"
      x="346.75" y="1351.0657">no</text>
    <text fill="#000000" font-family="Oxanium" font-size="11" lengthAdjust="spacing"
      textLength="210" x="234.75" y="1332.1907">Opponent's HP less than or equal to zero?</text>
    <text fill="#F2F230" font-family="Oxanium" font-size="11" lengthAdjust="spacing" textLength="18"
      x="459.75" y="1325.3158">yes</text>
    <polygon fill="#F1F1F1"
      points="339.75,1434.5009,351.75,1446.5009,339.75,1458.5009,327.75,1446.5009,339.75,1434.5009"
      style="stroke:#2C84FA;stroke-width:0.5;" />
    <polygon fill="#F1F1F1"
      points="195.25,1478.5009,484.25,1478.5009,496.25,1490.5009,484.25,1502.5009,195.25,1502.5009,183.25,1490.5009,195.25,1478.5009"
      style="stroke:#2C84FA;stroke-width:0.5;" />
    <text fill="#000000" font-family="Oxanium" font-size="11" lengthAdjust="spacing"
      textLength="289" x="195.25" y="1495.0659">number of remaining points of damage greater than
      zero?</text>
    <text fill="#F2F230" font-family="Oxanium" font-size="11" lengthAdjust="spacing" textLength="18"
      x="165.25" y="1488.191">yes</text>
    <text fill="#F2F230" font-family="Oxanium" font-size="11" lengthAdjust="spacing" textLength="12"
      x="499.25" y="1488.191">no</text>
    <path
      d="M328,1516.251 L328,1533.501 L308,1537.501 L328,1541.501 L328,1558.7511 A0,0 0 0 0 328,1558.7511 L485,1558.7511 A0,0 0 0 0 485,1558.7511 L485,1526.251 L475,1516.251 L328,1516.251 A0,0 0 0 0 328,1516.251 "
      fill="#FEFFDD" style="stroke:#181818;stroke-width:0.5;" />
    <path d="M475,1516.251 L475,1526.251 L485,1526.251 L475,1516.251 " fill="#FEFFDD"
      style="stroke:#181818;stroke-width:0.5;" />
    <text fill="#000000" font-family="Oxanium" font-size="13" lengthAdjust="spacing"
      textLength="136" x="334" y="1534.771">Oponnent's cybermod</text>
    <text fill="#000000" font-family="Oxanium" font-size="13" lengthAdjust="spacing" textLength="60"
      x="334" y="1551.0211">activation</text>
    <rect fill="#F1F1F1" height="50.0002" rx="12.5" ry="12.5"
      style="stroke:#2C84FA;stroke-width:0.5;" width="297" x="11" y="1512.5009" />
    <text fill="#000000" font-family="Oxanium" font-size="12" lengthAdjust="spacing"
      textLength="277" x="21" y="1534.981">subtract the remaining amount of damage points</text>
    <text fill="#000000" font-family="Oxanium" font-size="12" lengthAdjust="spacing"
      textLength="142" x="21" y="1549.9811">from your opponent's BIO</text>
    <rect fill="#F1F1F1" height="35.0001" rx="12.5" ry="12.5"
      style="stroke:#2C84FA;stroke-width:0.5;" width="191" x="64" y="1582.5012" />
    <text fill="#000000" font-family="Oxanium" font-size="12" lengthAdjust="spacing"
      textLength="171" x="74" y="1604.9812">Perform a critical damage test</text>
    <polygon fill="#F1F1F1"
      points="125.5,1637.5013,193.5,1637.5013,205.5,1649.5013,193.5,1661.5013,125.5,1661.5013,113.5,1649.5013,125.5,1637.5013"
      style="stroke:#2C84FA;stroke-width:0.5;" />
    <text fill="#000000" font-family="Oxanium" font-size="11" lengthAdjust="spacing" textLength="68"
      x="125.5" y="1654.0662">Test passed?</text>
    <text fill="#F2F230" font-family="Oxanium" font-size="11" lengthAdjust="spacing" textLength="18"
      x="95.5" y="1647.1913">yes</text>
    <text fill="#F2F230" font-family="Oxanium" font-size="11" lengthAdjust="spacing" textLength="12"
      x="208.5" y="1647.1913">no</text>
    <ellipse cx="103.5" cy="1681.5013" fill="none" rx="10" ry="10"
      style="stroke:#E949F5;stroke-width:1.5;" />
    <line style="stroke:#E949F5;stroke-width:2.5;" x1="97.3128" x2="109.6872" y1="1675.3141"
      y2="1687.6884" />
    <line style="stroke:#E949F5;stroke-width:2.5;" x1="109.6872" x2="97.3128" y1="1675.3141"
      y2="1687.6884" />
    <path
      d="M290.5,1675.2513 L290.5,1692.5014 L270.5,1696.5014 L290.5,1700.5014 L290.5,1717.7514 A0,0 0 0 0 290.5,1717.7514 L374.5,1717.7514 A0,0 0 0 0 374.5,1717.7514 L374.5,1685.2513 L364.5,1675.2513 L290.5,1675.2513 A0,0 0 0 0 290.5,1675.2513 "
      fill="#FEFFDD" style="stroke:#181818;stroke-width:0.5;" />
    <path d="M364.5,1675.2513 L364.5,1685.2513 L374.5,1685.2513 L364.5,1675.2513 " fill="#FEFFDD"
      style="stroke:#181818;stroke-width:0.5;" />
    <text fill="#000000" font-family="Oxanium" font-size="13" lengthAdjust="spacing" textLength="63"
      x="296.5" y="1693.7714">Cybermod</text>
    <text fill="#000000" font-family="Oxanium" font-size="13" lengthAdjust="spacing" textLength="60"
      x="296.5" y="1710.0214">activation</text>
    <rect fill="#F1F1F1" height="50.0002" rx="12.5" ry="12.5"
      style="stroke:#2C84FA;stroke-width:0.5;" width="110" x="160.5" y="1671.5013" />
    <text fill="#000000" font-family="Oxanium" font-size="12" lengthAdjust="spacing" textLength="86"
      x="170.5" y="1693.9813">apply all critical</text>
    <text fill="#000000" font-family="Oxanium" font-size="12" lengthAdjust="spacing" textLength="90"
      x="170.5" y="1708.9814">damage effects</text>
    <ellipse cx="520" cy="1522.5009" fill="none" rx="10" ry="10"
      style="stroke:#E949F5;stroke-width:1.5;" />
    <line style="stroke:#E949F5;stroke-width:2.5;" x1="513.8128" x2="526.1872" y1="1516.3138"
      y2="1528.6881" />
    <line style="stroke:#E949F5;stroke-width:2.5;" x1="526.1872" x2="513.8128" y1="1516.3138"
      y2="1528.6881" />
    <ellipse cx="339.75" cy="1751.5015" fill="none" rx="10" ry="10"
      style="stroke:#E949F5;stroke-width:1.5;" />
    <line style="stroke:#E949F5;stroke-width:2.5;" x1="333.5628" x2="345.9372" y1="1745.3143"
      y2="1757.6887" />
    <line style="stroke:#E949F5;stroke-width:2.5;" x1="345.9372" x2="333.5628" y1="1745.3143"
      y2="1757.6887" />
    <line style="stroke:#2C84FA;stroke-width:1.0;" x1="339.75" x2="339.75" y1="229.9998"
      y2="254.8747" />
    <polygon fill="#2C84FA" points="335.75,244.8747,339.75,254.8747,343.75,244.8747,339.75,248.8747"
      style="stroke:#2C84FA;stroke-width:1.0;" />
    <line style="stroke:#2C84FA;stroke-width:1.0;" x1="394.25" x2="434.75" y1="217.9998"
      y2="217.9998" />
    <polygon fill="#2C84FA" points="430.75,262.3748,434.75,272.3748,438.75,262.3748,434.75,266.3748"
      style="stroke:#2C84FA;stroke-width:1.0;" />
    <line style="stroke:#2C84FA;stroke-width:1.0;" x1="434.75" x2="434.75" y1="217.9998"
      y2="321.8749" />
    <line style="stroke:#2C84FA;stroke-width:1.0;" x1="434.75" x2="351.75" y1="321.8749"
      y2="321.8749" />
    <polygon fill="#2C84FA" points="361.75,317.8749,351.75,321.8749,361.75,325.8749,357.75,321.8749"
      style="stroke:#2C84FA;stroke-width:1.0;" />
    <line style="stroke:#2C84FA;stroke-width:1.0;" x1="339.75" x2="339.75" y1="289.8749"
      y2="309.8749" />
    <polygon fill="#2C84FA" points="335.75,299.8749,339.75,309.8749,343.75,299.8749,339.75,303.8749"
      style="stroke:#2C84FA;stroke-width:1.0;" />
    <line style="stroke:#2C84FA;stroke-width:1.0;" x1="339.75" x2="339.75" y1="185.9998"
      y2="205.9998" />
    <polygon fill="#2C84FA" points="335.75,195.9998,339.75,205.9998,343.75,195.9998,339.75,199.9998"
      style="stroke:#2C84FA;stroke-width:1.0;" />
    <line style="stroke:#2C84FA;stroke-width:1.0;" x1="339.75" x2="339.75" y1="377.8749"
      y2="402.7498" />
    <polygon fill="#2C84FA" points="335.75,392.7498,339.75,402.7498,343.75,392.7498,339.75,396.7498"
      style="stroke:#2C84FA;stroke-width:1.0;" />
    <line style="stroke:#2C84FA;stroke-width:1.0;" x1="404.25" x2="438.75" y1="365.8749"
      y2="365.8749" />
    <polygon fill="#2C84FA" points="434.75,417.7499,438.75,427.7499,442.75,417.7499,438.75,421.7499"
      style="stroke:#2C84FA;stroke-width:1.0;" />
    <line style="stroke:#2C84FA;stroke-width:1.0;" x1="438.75" x2="438.75" y1="365.8749" y2="484.75" />
    <line style="stroke:#2C84FA;stroke-width:1.0;" x1="438.75" x2="351.75" y1="484.75" y2="484.75" />
    <polygon fill="#2C84FA" points="361.75,480.75,351.75,484.75,361.75,488.75,357.75,484.75"
      style="stroke:#2C84FA;stroke-width:1.0;" />
    <line style="stroke:#2C84FA;stroke-width:1.0;" x1="339.75" x2="339.75" y1="452.75" y2="472.75" />
    <polygon fill="#2C84FA" points="335.75,462.75,339.75,472.75,343.75,462.75,339.75,466.75"
      style="stroke:#2C84FA;stroke-width:1.0;" />
    <line style="stroke:#2C84FA;stroke-width:1.0;" x1="339.75" x2="339.75" y1="333.8749"
      y2="353.8749" />
    <polygon fill="#2C84FA" points="335.75,343.8749,339.75,353.8749,343.75,343.8749,339.75,347.8749"
      style="stroke:#2C84FA;stroke-width:1.0;" />
    <line style="stroke:#2C84FA;stroke-width:1.0;" x1="339.75" x2="339.75" y1="68.4999"
      y2="150.9997" />
    <polygon fill="#2C84FA" points="335.75,140.9997,339.75,150.9997,343.75,140.9997,339.75,144.9997"
      style="stroke:#2C84FA;stroke-width:1.0;" />
    <line style="stroke:#2C84FA;stroke-width:1.0;" x1="396.25" x2="354" y1="747.25" y2="747.25" />
    <line style="stroke:#2C84FA;stroke-width:1.0;" x1="354" x2="354" y1="747.25" y2="796.7498" />
    <polygon fill="#2C84FA" points="350,786.7498,354,796.7498,358,786.7498,354,790.7498"
      style="stroke:#2C84FA;stroke-width:1.0;" />
    <text fill="#F2F230" font-family="Oxanium" font-size="11" lengthAdjust="spacing" textLength="94"
      x="357" y="776.5649">weakened position</text>
    <line style="stroke:#2C84FA;stroke-width:1.0;" x1="497.25" x2="541.5" y1="747.25" y2="747.25" />
    <line style="stroke:#2C84FA;stroke-width:1.0;" x1="541.5" x2="541.5" y1="747.25" y2="796.7498" />
    <polygon fill="#2C84FA" points="537.5,786.7498,541.5,796.7498,545.5,786.7498,541.5,790.7498"
      style="stroke:#2C84FA;stroke-width:1.0;" />
    <text fill="#F2F230" font-family="Oxanium" font-size="11" lengthAdjust="spacing" textLength="52"
      x="544.5" y="776.5649">advantage</text>
    <line style="stroke:#2C84FA;stroke-width:1.0;" x1="354" x2="354" y1="846.75" y2="868.75" />
    <line style="stroke:#2C84FA;stroke-width:1.0;" x1="354" x2="434.75" y1="868.75" y2="868.75" />
    <polygon fill="#2C84FA" points="424.75,864.75,434.75,868.75,424.75,872.75,428.75,868.75"
      style="stroke:#2C84FA;stroke-width:1.0;" />
    <line style="stroke:#2C84FA;stroke-width:1.0;" x1="541.5" x2="541.5" y1="846.75" y2="868.75" />
    <line style="stroke:#2C84FA;stroke-width:1.0;" x1="541.5" x2="458.75" y1="868.75" y2="868.75" />
    <polygon fill="#2C84FA" points="468.75,864.75,458.75,868.75,468.75,872.75,464.75,868.75"
      style="stroke:#2C84FA;stroke-width:1.0;" />
    <line style="stroke:#2C84FA;stroke-width:1.0;" x1="446.75" x2="446.75" y1="715.25" y2="735.25" />
    <polygon fill="#2C84FA" points="442.75,725.25,446.75,735.25,450.75,725.25,446.75,729.25"
      style="stroke:#2C84FA;stroke-width:1.0;" />
    <line style="stroke:#2C84FA;stroke-width:1.0;" x1="242.75" x2="232.75" y1="658.2499"
      y2="658.2499" />
    <line style="stroke:#2C84FA;stroke-width:1.0;" x1="232.75" x2="232.75" y1="658.2499"
      y2="680.2499" />
    <polygon fill="#2C84FA" points="228.75,670.2499,232.75,680.2499,236.75,670.2499,232.75,674.2499"
      style="stroke:#2C84FA;stroke-width:1.0;" />
    <line style="stroke:#2C84FA;stroke-width:1.0;" x1="436.75" x2="446.75" y1="658.2499"
      y2="658.2499" />
    <line style="stroke:#2C84FA;stroke-width:1.0;" x1="446.75" x2="446.75" y1="658.2499"
      y2="680.2499" />
    <polygon fill="#2C84FA" points="442.75,670.2499,446.75,680.2499,450.75,670.2499,446.75,674.2499"
      style="stroke:#2C84FA;stroke-width:1.0;" />
    <line style="stroke:#2C84FA;stroke-width:1.0;" x1="232.75" x2="232.75" y1="715.25" y2="898.75" />
    <line style="stroke:#2C84FA;stroke-width:1.0;" x1="232.75" x2="327.75" y1="898.75" y2="898.75" />
    <polygon fill="#2C84FA" points="317.75,894.75,327.75,898.75,317.75,902.75,321.75,898.75"
      style="stroke:#2C84FA;stroke-width:1.0;" />
    <line style="stroke:#2C84FA;stroke-width:1.0;" x1="446.75" x2="446.75" y1="880.75" y2="898.75" />
    <line style="stroke:#2C84FA;stroke-width:1.0;" x1="446.75" x2="351.75" y1="898.75" y2="898.75" />
    <polygon fill="#2C84FA" points="361.75,894.75,351.75,898.75,361.75,902.75,357.75,898.75"
      style="stroke:#2C84FA;stroke-width:1.0;" />
    <line style="stroke:#2C84FA;stroke-width:1.0;" x1="339.75" x2="339.75" y1="626.2499"
      y2="646.2499" />
    <polygon fill="#2C84FA" points="335.75,636.2499,339.75,646.2499,343.75,636.2499,339.75,640.2499"
      style="stroke:#2C84FA;stroke-width:1.0;" />
    <line style="stroke:#2C84FA;stroke-width:1.0;" x1="339.75" x2="339.75" y1="496.75" y2="591.2498" />
    <polygon fill="#2C84FA" points="335.75,581.2498,339.75,591.2498,343.75,581.2498,339.75,585.2498"
      style="stroke:#2C84FA;stroke-width:1.0;" />
    <line style="stroke:#2C84FA;stroke-width:1.0;" x1="339.75" x2="339.75" y1="910.75" y2="942.75" />
    <polygon fill="#2C84FA" points="335.75,932.75,339.75,942.75,343.75,932.75,339.75,936.75"
      style="stroke:#2C84FA;stroke-width:1.0;" />
    <line style="stroke:#2C84FA;stroke-width:1.0;" x1="339.75" x2="339.75" y1="1021.7501"
      y2="1046.625" />
    <polygon fill="#2C84FA" points="335.75,1036.625,339.75,1046.625,343.75,1036.625,339.75,1040.625"
      style="stroke:#2C84FA;stroke-width:1.0;" />
    <line style="stroke:#2C84FA;stroke-width:1.0;" x1="433.75" x2="445.75" y1="1009.7501"
      y2="1009.7501" />
    <polygon fill="#2C84FA"
      points="441.75,1069.1252,445.75,1079.1252,449.75,1069.1252,445.75,1073.1252"
      style="stroke:#2C84FA;stroke-width:1.0;" />
    <line style="stroke:#2C84FA;stroke-width:1.0;" x1="445.75" x2="445.75" y1="1009.7501"
      y2="1143.6254" />
    <line style="stroke:#2C84FA;stroke-width:1.0;" x1="445.75" x2="351.75" y1="1143.6254"
      y2="1143.6254" />
    <polygon fill="#2C84FA"
      points="361.75,1139.6254,351.75,1143.6254,361.75,1147.6254,357.75,1143.6254"
      style="stroke:#2C84FA;stroke-width:1.0;" />
    <line style="stroke:#2C84FA;stroke-width:1.0;" x1="339.75" x2="339.75" y1="1111.6254"
      y2="1131.6254" />
    <polygon fill="#2C84FA"
      points="335.75,1121.6254,339.75,1131.6254,343.75,1121.6254,339.75,1125.6254"
      style="stroke:#2C84FA;stroke-width:1.0;" />
    <line style="stroke:#2C84FA;stroke-width:1.0;" x1="339.75" x2="339.75" y1="977.7501"
      y2="997.7501" />
    <polygon fill="#2C84FA" points="335.75,987.7501,339.75,997.7501,343.75,987.7501,339.75,991.7501"
      style="stroke:#2C84FA;stroke-width:1.0;" />
    <line style="stroke:#2C84FA;stroke-width:1.0;" x1="339.75" x2="339.75" y1="1155.6254"
      y2="1175.6254" />
    <polygon fill="#2C84FA"
      points="335.75,1165.6254,339.75,1175.6254,343.75,1165.6254,339.75,1169.6254"
      style="stroke:#2C84FA;stroke-width:1.0;" />
    <line style="stroke:#2C84FA;stroke-width:1.0;" x1="339.75" x2="339.75" y1="1210.6255"
      y2="1230.6255" />
    <polygon fill="#2C84FA"
      points="335.75,1220.6255,339.75,1230.6255,343.75,1220.6255,339.75,1224.6255"
      style="stroke:#2C84FA;stroke-width:1.0;" />
    <line style="stroke:#2C84FA;stroke-width:1.0;" x1="339.75" x2="339.75" y1="1339.6258"
      y2="1364.5007" />
    <polygon fill="#2C84FA"
      points="335.75,1354.5007,339.75,1364.5007,343.75,1354.5007,339.75,1358.5007"
      style="stroke:#2C84FA;stroke-width:1.0;" />
    <line style="stroke:#2C84FA;stroke-width:1.0;" x1="456.75" x2="636.75" y1="1327.6258"
      y2="1327.6258" />
    <polygon fill="#2C84FA"
      points="632.75,1379.5008,636.75,1389.5008,640.75,1379.5008,636.75,1383.5008"
      style="stroke:#2C84FA;stroke-width:1.0;" />
    <line style="stroke:#2C84FA;stroke-width:1.0;" x1="636.75" x2="636.75" y1="1327.6258"
      y2="1446.5009" />
    <line style="stroke:#2C84FA;stroke-width:1.0;" x1="636.75" x2="351.75" y1="1446.5009"
      y2="1446.5009" />
    <polygon fill="#2C84FA"
      points="361.75,1442.5009,351.75,1446.5009,361.75,1450.5009,357.75,1446.5009"
      style="stroke:#2C84FA;stroke-width:1.0;" />
    <line style="stroke:#2C84FA;stroke-width:1.0;" x1="339.75" x2="339.75" y1="1414.5009"
      y2="1434.5009" />
    <polygon fill="#2C84FA"
      points="335.75,1424.5009,339.75,1434.5009,343.75,1424.5009,339.75,1428.5009"
      style="stroke:#2C84FA;stroke-width:1.0;" />
    <line style="stroke:#2C84FA;stroke-width:1.0;" x1="339.75" x2="339.75" y1="1295.6258"
      y2="1315.6258" />
    <polygon fill="#2C84FA"
      points="335.75,1305.6258,339.75,1315.6258,343.75,1305.6258,339.75,1309.6258"
      style="stroke:#2C84FA;stroke-width:1.0;" />
    <line style="stroke:#2C84FA;stroke-width:1.0;" x1="159.5" x2="159.5" y1="1562.5012"
      y2="1582.5012" />
    <polygon fill="#2C84FA" points="155.5,1572.5012,159.5,1582.5012,163.5,1572.5012,159.5,1576.5012"
      style="stroke:#2C84FA;stroke-width:1.0;" />
    <line style="stroke:#2C84FA;stroke-width:1.0;" x1="113.5" x2="103.5" y1="1649.5013"
      y2="1649.5013" />
    <line style="stroke:#2C84FA;stroke-width:1.0;" x1="103.5" x2="103.5" y1="1649.5013"
      y2="1671.5013" />
    <polygon fill="#2C84FA" points="99.5,1661.5013,103.5,1671.5013,107.5,1661.5013,103.5,1665.5013"
      style="stroke:#2C84FA;stroke-width:1.0;" />
    <line style="stroke:#2C84FA;stroke-width:1.0;" x1="205.5" x2="215.5" y1="1649.5013"
      y2="1649.5013" />
    <line style="stroke:#2C84FA;stroke-width:1.0;" x1="215.5" x2="215.5" y1="1649.5013"
      y2="1671.5013" />
    <polygon fill="#2C84FA" points="211.5,1661.5013,215.5,1671.5013,219.5,1661.5013,215.5,1665.5013"
      style="stroke:#2C84FA;stroke-width:1.0;" />
    <line style="stroke:#2C84FA;stroke-width:1.0;" x1="215.5" x2="215.5" y1="1721.5015"
      y2="1726.5015" />
    <line style="stroke:#2C84FA;stroke-width:1.0;" x1="215.5" x2="339.75" y1="1726.5015"
      y2="1726.5015" />
    <line style="stroke:#2C84FA;stroke-width:1.0;" x1="339.75" x2="339.75" y1="1726.5015"
      y2="1741.5015" />
    <polygon fill="#2C84FA"
      points="335.75,1731.5015,339.75,1741.5015,343.75,1731.5015,339.75,1735.5015"
      style="stroke:#2C84FA;stroke-width:1.0;" />
    <line style="stroke:#2C84FA;stroke-width:1.0;" x1="159.5" x2="159.5" y1="1617.5013"
      y2="1637.5013" />
    <polygon fill="#2C84FA" points="155.5,1627.5013,159.5,1637.5013,163.5,1627.5013,159.5,1631.5013"
      style="stroke:#2C84FA;stroke-width:1.0;" />
    <line style="stroke:#2C84FA;stroke-width:1.0;" x1="183.25" x2="159.5" y1="1490.5009"
      y2="1490.5009" />
    <line style="stroke:#2C84FA;stroke-width:1.0;" x1="159.5" x2="159.5" y1="1490.5009"
      y2="1512.5009" />
    <polygon fill="#2C84FA" points="155.5,1502.5009,159.5,1512.5009,163.5,1502.5009,159.5,1506.5009"
      style="stroke:#2C84FA;stroke-width:1.0;" />
    <line style="stroke:#2C84FA;stroke-width:1.0;" x1="496.25" x2="520" y1="1490.5009"
      y2="1490.5009" />
    <line style="stroke:#2C84FA;stroke-width:1.0;" x1="520" x2="520" y1="1490.5009" y2="1512.5009" />
    <polygon fill="#2C84FA" points="516,1502.5009,520,1512.5009,524,1502.5009,520,1506.5009"
      style="stroke:#2C84FA;stroke-width:1.0;" />
    <line style="stroke:#2C84FA;stroke-width:1.0;" x1="339.75" x2="339.75" y1="1458.5009"
      y2="1478.5009" />
    <polygon fill="#2C84FA"
      points="335.75,1468.5009,339.75,1478.5009,343.75,1468.5009,339.75,1472.5009"
      style="stroke:#2C84FA;stroke-width:1.0;" /><!--MD5=[9149fdb490a79e82f3eff573a0a2dded]
    @startuml "Physical attack"
title "Physical attack"
skinparam defaultFontName Oxanium
    skinparam activity {
  StartColor #0fff50
  BarColor #2c84fa
  EndColor #e949f5
  BorderColor
    #2c84fa
  ArrowColor #2c84fa
  FontName Oxanium
}
start
group Determine \nthe amount
    of\ndamage dice
:one damage die as a standard;
if (many attackers?) then (<color:#f2f230> yes)
    :add a die for each attacker;
else (<color:#f2f230> no)
endif
if (dual-weapon attack?) then
    (<color:#f2f230> yes)
:add a die for each 
attacker with a dual weapon;
else (<color:#f2f230>
    no)
endif
end group
group Determine \nthe type of\ndamage dice
:Individually for each
    attacker;
if (attack without a defined weapon?) then (<color:#f2f230> yes)
:1d4;
else
    (<color:#f2f230> no)
:weapon damage dice;
switch (attack modifier)
case (<color:#f2f230>
    weakened position)
:1d4 or respectively 
__decreased__ weapon die;
case (<color:#f2f230>
    advantage)
:1d12 or respectively 
__increased__ weapon die;
endswitch 
endif
end group
    :Make a dice roll;
note right
Attacker cybermod activation
end note
if (The weapon has a
    blast feature?) then (<color:#f2f230> yes)
:repeat the damage roll
for each character 
within
    striking range;
endif
:Select the highest score;
:Substract victim's __actual__  
 armor
    value
 from the roll result;
if (Opponent's HP less than or equal to zero?) then
    (<color:#f2f230> no)
:Subtract the damage points 
from the __actual__ HP of the opponent;
note
    right
Oponnent's cybermod
activation
endnote
else (<color:#f2f230> yes)
endif 
if (number
    of remaining points of damage greater than zero?) then (<color:#f2f230> yes)
:subtract the
    remaining amount of damage points 
from your opponent's BIO;
note right
Oponnent's cybermod
    activation
endnote
:Perform a critical damage test;
if (Test passed?) then (<color:#f2f230>
    yes)
  end
else (<color:#f2f230> no)
  :apply all critical
  damage effects;
  note right
    Cybermod
    activation
  endnote
endif
else (<color:#f2f230> no)
 end
endif
end
@enduml
    PlantUML version 1.2022.7(Mon Aug 22 19:01:30 CEST 2022)
(GPL source distribution)
Java
    Runtime: OpenJDK Runtime Environment
JVM: OpenJDK 64-Bit Server VM
Default Encoding: UTF-8
    Language: en
Country: GB
-->
  </g>
</svg>