<?xml version="1.0" encoding="UTF-8" standalone="no"?>
<svg
   contentStyleType="text/css"
   height="1155px"
   preserveAspectRatio="none"
   style="width:706px;height:1155px;background:#FFFFFF;"
   version="1.1"
   viewBox="0 0 706 1155"
   width="706px"
   zoomAndPan="magnify"
   id="svg377"
   sodipodi:docname="Walka fizyczna dark.svg"
   inkscape:version="1.2.2 (b0a8486541, 2022-12-01)"
   inkscape:export-filename="Walka fizyczna.png"
   inkscape:export-xdpi="300"
   inkscape:export-ydpi="300"
   xmlns:inkscape="http://www.inkscape.org/namespaces/inkscape"
   xmlns:sodipodi="http://sodipodi.sourceforge.net/DTD/sodipodi-0.dtd"
   xmlns="http://www.w3.org/2000/svg"
   xmlns:svg="http://www.w3.org/2000/svg">
  <sodipodi:namedview
     id="namedview379"
     pagecolor="#ffffff"
     bordercolor="#666666"
     borderopacity="1.0"
     inkscape:showpageshadow="2"
     inkscape:pageopacity="0.0"
     inkscape:pagecheckerboard="0"
     inkscape:deskcolor="#d1d1d1"
     showgrid="false"
     inkscape:zoom="0.81385282"
     inkscape:cx="337.89893"
     inkscape:cy="645.07978"
     inkscape:window-width="1366"
     inkscape:window-height="699"
     inkscape:window-x="0"
     inkscape:window-y="0"
     inkscape:window-maximized="1"
     inkscape:current-layer="g375" />
  <defs
     id="defs2" />
  <g
     id="g375">
    <rect
       fill="none"
       height="27.4999"
       id="_title"
       style="stroke:none;stroke-width:1.0;"
       width="109"
       x="297.375"
       y="15" />
    <ellipse
       cx="387.5"
       cy="58.4999"
       fill="#0FFF50"
       rx="10"
       ry="10"
       style="stroke:#222222;stroke-width:1.0;"
       id="ellipse7" />
    <rect
       fill="#F1F1F1"
       height="35.0001"
       rx="12.5"
       ry="12.5"
       style="stroke:#2C84FA;stroke-width:0.5;"
       width="115"
       x="330"
       y="88.4999"
       id="rect9" />
    <text
       fill="#000000"
       font-family="Oxanium"
       font-size="12"
       lengthAdjust="spacing"
       textLength="95"
       x="340"
       y="110.98"
       id="text11">Rozpocznij rundę</text>
    <path
       d="M207,195.8748 L207,238.3748 A0,0 0 0 0 207,238.3748 L308,238.3748 A0,0 0 0 0 308,238.3748 L308,221.1248 L328,217.1248 L308,213.1248 L308,205.8748 L298,195.8748 L207,195.8748 A0,0 0 0 0 207,195.8748 "
       fill="#FEFFDD"
       style="stroke:#181818;stroke-width:0.5;"
       id="path13" />
    <path
       d="M298,195.8748 L298,205.8748 L308,205.8748 L298,195.8748 "
       fill="#FEFFDD"
       style="stroke:#181818;stroke-width:0.5;"
       id="path15" />
    <text
       fill="#000000"
       font-family="Oxanium"
       font-size="13"
       lengthAdjust="spacing"
       textLength="61"
       x="213"
       y="214.3948"
       id="text17">Aktywacja</text>
    <text
       fill="#000000"
       font-family="Oxanium"
       font-size="13"
       lengthAdjust="spacing"
       textLength="80"
       x="213"
       y="230.6448"
       id="text19">cybermodów</text>
    <rect
       fill="#F1F1F1"
       height="35.0001"
       rx="12.5"
       ry="12.5"
       style="stroke:#2C84FA;stroke-width:0.5;"
       width="119"
       x="328"
       y="199.6247"
       id="rect21" />
    <text
       fill="#000000"
       font-family="Oxanium"
       font-size="12"
       lengthAdjust="spacing"
       textLength="99"
       x="338"
       y="222.1048"
       id="text23">Zażądaj testu BIO</text>
    <polygon
       fill="#F1F1F1"
       points="297,258.3748,478,258.3748,490,270.3748,478,282.3748,297,282.3748,285,270.3748,297,258.3748"
       style="stroke:#2C84FA;stroke-width:0.5;"
       id="polygon25" />
    <text
       fill="#000000"
       font-family="Oxanium"
       font-size="11"
       lengthAdjust="spacing"
       textLength="181"
       x="297"
       y="274.9398"
       id="text27">Test udany i gracz ma dokąd uciec?</text>
    <text
       fill="#000000"
       font-family="Oxanium"
       font-size="11px"
       lengthAdjust="spacing"
       textLength="16"
       x="269"
       y="268.06479"
       id="text29"
       transform="translate(-17.6398,10.587274)"
       style="fill:#ffff00">tak</text>
    <text
       fill="#000000"
       font-family="Oxanium"
       font-size="11px"
       lengthAdjust="spacing"
       textLength="15"
       x="490"
       y="268.06479"
       id="text31"
       transform="translate(20.11056,11.159146)"
       style="fill:#ffff00">nie</text>
    <text
       fill="#000000"
       font-family="Oxanium"
       font-size="11px"
       lengthAdjust="spacing"
       textLength="15"
       x="490"
       y="268.06479"
       id="text31-3"
       transform="translate(-28.147133,-114.88883)"
       style="fill:#ffff00">nie</text>
    <rect
       fill="#F1F1F1"
       height="35.0001"
       rx="12.5"
       ry="12.5"
       style="stroke:#2C84FA;stroke-width:0.5;"
       width="147"
       x="201.5"
       y="292.3748"
       id="rect33" />
    <text
       fill="#000000"
       font-family="Oxanium"
       font-size="12"
       lengthAdjust="spacing"
       textLength="127"
       x="211.5"
       y="314.8549"
       id="text35">Gracz opuszcza starcie</text>
    <rect
       fill="#F1F1F1"
       height="35.0001"
       rx="12.5"
       ry="12.5"
       style="stroke:#2C84FA;stroke-width:0.5;"
       width="162"
       x="419"
       y="292.3748"
       id="rect41" />
    <text
       fill="#000000"
       font-family="Oxanium"
       font-size="12"
       lengthAdjust="spacing"
       textLength="142"
       x="429"
       y="314.8549"
       id="text43">Gracz pozostaje w starciu</text>
    <polygon
       fill="#f1f1f1"
       points="431.5,143.5 443.5,157.2499 431.5,170.9998 343.5,170.9998 331.5,157.2499 343.5,143.5 "
       style="stroke:#2c84fa;stroke-width:0.5"
       id="polygon45"
       transform="matrix(1.0696189,0,0,1.2528675,-26.977329,-39.76339)" />
    <text
       fill="#000000"
       font-family="Oxanium"
       font-size="11px"
       lengthAdjust="spacing"
       textLength="16"
       x="391.5"
       y="182.4397"
       id="text47"
       transform="translate(3.549172,6.1853846)"
       style="fill:#ffff00">tak</text>
    <text
       fill="#000000"
       font-family="Oxanium"
       font-size="11"
       lengthAdjust="spacing"
       textLength="74"
       x="343.5"
       y="154.9399"
       id="text49">Gracz chce się</text>
    <text
       fill="#000000"
       font-family="Oxanium"
       font-size="11"
       lengthAdjust="spacing"
       textLength="88"
       x="343.5"
       y="168.6898"
       id="text51">wycofać z walki?</text>
    <polygon
       fill="#F1F1F1"
       points="387.5,389.3749,399.5,401.3749,387.5,413.3749,375.5,401.3749,387.5,389.3749"
       style="stroke:#2C84FA;stroke-width:0.5;"
       id="polygon53" />
    <polygon
       fill="#f1f1f1"
       points="480.5,433.3749 492.5,447.1248 480.5,460.8747 294.5,460.8747 282.5,447.1248 294.5,433.3749 "
       style="stroke:#2c84fa;stroke-width:0.5"
       id="polygon55"
       transform="matrix(1.0293001,0,0,1.1845573,-11.353788,-82.520149)" />
    <text
       fill="#000000"
       font-family="Oxanium"
       font-size="11"
       lengthAdjust="spacing"
       textLength="165"
       x="294.5"
       y="444.8148"
       id="text57">postać może zostać zaskoczona</text>
    <text
       fill="#000000"
       font-family="Oxanium"
       font-size="11"
       lengthAdjust="spacing"
       textLength="186"
       x="294.5"
       y="458.5647"
       id="text59">a chce działać przed przeciwnikami?</text>
    <text
       fill="#000000"
       font-family="Oxanium"
       font-size="11px"
       lengthAdjust="spacing"
       textLength="16"
       x="266.5"
       y="444.81479"
       id="text61"
       transform="translate(-13.892934,-0.10351398)"
       style="fill:#ffff00">tak</text>
    <text
       fill="#000000"
       font-family="Oxanium"
       font-size="11px"
       lengthAdjust="spacing"
       textLength="15"
       x="492.5"
       y="444.81479"
       id="text63"
       transform="translate(17.574468,-1.0593213)"
       style="fill:#ffff00">nie</text>
    <path
       d="M45,470.8747 L45,513.3747 A0,0 0 0 0 45,513.3747 L146,513.3747 A0,0 0 0 0 146,513.3747 L146,496.1247 L166,492.1247 L146,488.1247 L146,480.8747 L136,470.8747 L45,470.8747 A0,0 0 0 0 45,470.8747 "
       fill="#FEFFDD"
       style="stroke:#181818;stroke-width:0.5;"
       id="path65" />
    <path
       d="M136,470.8747 L136,480.8747 L146,480.8747 L136,470.8747 "
       fill="#FEFFDD"
       style="stroke:#181818;stroke-width:0.5;"
       id="path67" />
    <text
       fill="#000000"
       font-family="Oxanium"
       font-size="13"
       lengthAdjust="spacing"
       textLength="61"
       x="51"
       y="489.3947"
       id="text69">Aktywacja</text>
    <text
       fill="#000000"
       font-family="Oxanium"
       font-size="13"
       lengthAdjust="spacing"
       textLength="80"
       x="51"
       y="505.6447"
       id="text71">cybermodów</text>
    <rect
       fill="#F1F1F1"
       height="35.0001"
       rx="12.5"
       ry="12.5"
       style="stroke:#2C84FA;stroke-width:0.5;"
       width="119"
       x="166"
       y="474.6247"
       id="rect73" />
    <text
       fill="#000000"
       font-family="Oxanium"
       font-size="12"
       lengthAdjust="spacing"
       textLength="99"
       x="176"
       y="497.1048"
       id="text75">Zażądaj testu BIO</text>
    <polygon
       fill="#F1F1F1"
       points="184,540.8749,267,540.8749,279,552.8749,267,564.8749,184,564.8749,172,552.8749,184,540.8749"
       style="stroke:#2C84FA;stroke-width:0.5;"
       id="polygon77" />
    <text
       fill="#000000"
       font-family="Oxanium"
       font-size="11"
       lengthAdjust="spacing"
       textLength="83"
       x="184"
       y="557.4399"
       id="text79">Test BIO zdany?</text>
    <text
       fill="#000000"
       font-family="Oxanium"
       font-size="11"
       lengthAdjust="spacing"
       textLength="16"
       x="156"
       y="550.5649"
       id="text81"
       style="fill:#ffff00">tak</text>
    <text
       fill="#000000"
       font-family="Oxanium"
       font-size="11"
       lengthAdjust="spacing"
       textLength="15"
       x="279"
       y="550.5649"
       id="text83"
       style="fill:#ffff00">nie</text>
    <rect
       fill="#F1F1F1"
       height="35.0001"
       rx="12.5"
       ry="12.5"
       style="stroke:#2C84FA;stroke-width:0.5;"
       width="211"
       x="11"
       y="574.8749"
       id="rect85" />
    <text
       fill="#000000"
       font-family="Oxanium"
       font-size="12"
       lengthAdjust="spacing"
       textLength="191"
       x="21"
       y="597.355"
       id="text87">Postać działa przed przeciwnikami</text>
    <rect
       fill="#F1F1F1"
       height="50.0002"
       rx="12.5"
       ry="12.5"
       style="stroke:#2C84FA;stroke-width:0.5;"
       width="185"
       x="242"
       y="574.8749"
       id="rect89" />
    <text
       fill="#000000"
       font-family="Oxanium"
       font-size="12"
       lengthAdjust="spacing"
       textLength="165"
       x="252"
       y="597.355"
       id="text91">Wszystkie działania w rundzie</text>
    <text
       fill="#000000"
       font-family="Oxanium"
       font-size="12"
       lengthAdjust="spacing"
       textLength="148"
       x="252"
       y="612.3551"
       id="text93">odbywają się jednocześnie</text>
    <polygon
       fill="#F1F1F1"
       points="225.5,630.8751,237.5,642.8751,225.5,654.8751,213.5,642.8751,225.5,630.8751"
       style="stroke:#2C84FA;stroke-width:0.5;"
       id="polygon95" />
    <rect
       fill="#F1F1F1"
       height="50.0002"
       rx="12.5"
       ry="12.5"
       style="stroke:#2C84FA;stroke-width:0.5;"
       width="185"
       x="457"
       y="470.8747"
       id="rect97" />
    <text
       fill="#000000"
       font-family="Oxanium"
       font-size="12"
       lengthAdjust="spacing"
       textLength="165"
       x="467"
       y="493.3548"
       id="text99">Wszystkie działania w rundzie</text>
    <text
       fill="#000000"
       font-family="Oxanium"
       font-size="12"
       lengthAdjust="spacing"
       textLength="148"
       x="467"
       y="508.3549"
       id="text101">odbywają się jednocześnie</text>
    <polygon
       fill="#F1F1F1"
       points="387.5,660.8751,399.5,672.8751,387.5,684.8751,375.5,672.8751,387.5,660.8751"
       style="stroke:#2C84FA;stroke-width:0.5;"
       id="polygon103" />
    <rect
       fill="#F1F1F1"
       height="35.0001"
       rx="12.5"
       ry="12.5"
       style="stroke:#2C84FA;stroke-width:0.5;"
       width="227"
       x="274"
       y="704.8751"
       id="rect105" />
    <text
       fill="#000000"
       font-family="Oxanium"
       font-size="12"
       lengthAdjust="spacing"
       textLength="207"
       x="284"
       y="727.3552"
       id="text107">Postać może wykonać ruch (do 12 m)</text>
    <rect
       fill="#F1F1F1"
       height="35.0001"
       rx="12.5"
       ry="12.5"
       style="stroke:#2C84FA;stroke-width:0.5;"
       width="251"
       x="262"
       y="759.8752"
       id="rect109" />
    <text
       fill="#000000"
       font-family="Oxanium"
       font-size="12"
       lengthAdjust="spacing"
       textLength="231"
       x="272"
       y="782.3553"
       id="text111">Postać może wykonać atak lub inną akcję</text>
    <polygon
       fill="#F1F1F1"
       points="347.5,814.8753,427.5,814.8753,439.5,826.8753,427.5,838.8753,347.5,838.8753,335.5,826.8753,347.5,814.8753"
       style="stroke:#2C84FA;stroke-width:0.5;"
       id="polygon113" />
    <text
       fill="#000000"
       font-family="Oxanium"
       font-size="11"
       lengthAdjust="spacing"
       textLength="80"
       x="347.5"
       y="831.4403"
       id="text115">Atak czy akcja?</text>
    <text
       fill="#000000"
       font-family="Oxanium"
       font-size="11"
       lengthAdjust="spacing"
       textLength="22"
       x="313.5"
       y="824.5653"
       id="text117"
       style="fill:#ffff00">atak</text>
    <text
       fill="#000000"
       font-family="Oxanium"
       font-size="11"
       lengthAdjust="spacing"
       textLength="27"
       x="439.5"
       y="824.5653"
       id="text119"
       style="fill:#ffff00">akcja</text>
    <rect
       fill="#F2F230"
       height="35.0001"
       rx="12.5"
       ry="12.5"
       style="stroke:#2C84FA;stroke-width:0.5;"
       width="173"
       x="103.25"
       y="848.8753"
       id="rect121" />
    <text
       fill="#000000"
       font-family="Oxanium"
       font-size="12"
       lengthAdjust="spacing"
       textLength="153"
       x="113.25"
       y="871.3554"
       id="text123">Przejdź do algorytmu ataku</text>
    <polygon
       fill="#F1F1F1"
       points="528.75,848.8753,641.75,848.8753,653.75,860.8753,641.75,872.8753,528.75,872.8753,516.75,860.8753,528.75,848.8753"
       style="stroke:#2C84FA;stroke-width:0.5;"
       id="polygon125" />
    <text
       fill="#000000"
       font-family="Oxanium"
       font-size="11"
       lengthAdjust="spacing"
       textLength="113"
       x="528.75"
       y="865.4403"
       id="text127">akcja jest ryzykowna?</text>
    <text
       fill="#000000"
       font-family="Oxanium"
       font-size="11"
       lengthAdjust="spacing"
       textLength="16"
       x="500.75"
       y="858.5653"
       id="text129"
       style="fill:#ffff00">tak</text>
    <text
       fill="#000000"
       font-family="Oxanium"
       font-size="11"
       lengthAdjust="spacing"
       textLength="15"
       x="653.75"
       y="858.5653"
       id="text131"
       style="fill:#ffff00">nie</text>
    <path
       d="M306.25,882.8753 L306.25,925.3754 A0,0 0 0 0 306.25,925.3754 L407.25,925.3754 A0,0 0 0 0 407.25,925.3754 L407.25,908.1253 L427.25,904.1253 L407.25,900.1253 L407.25,892.8753 L397.25,882.8753 L306.25,882.8753 A0,0 0 0 0 306.25,882.8753 "
       fill="#FEFFDD"
       style="stroke:#181818;stroke-width:0.5;"
       id="path133" />
    <path
       d="M397.25,882.8753 L397.25,892.8753 L407.25,892.8753 L397.25,882.8753 "
       fill="#FEFFDD"
       style="stroke:#181818;stroke-width:0.5;"
       id="path135" />
    <text
       fill="#000000"
       font-family="Oxanium"
       font-size="13"
       lengthAdjust="spacing"
       textLength="61"
       x="312.25"
       y="901.3953"
       id="text137">Aktywacja</text>
    <text
       fill="#000000"
       font-family="Oxanium"
       font-size="13"
       lengthAdjust="spacing"
       textLength="80"
       x="312.25"
       y="917.6454"
       id="text139">cybermodów</text>
    <rect
       fill="#F1F1F1"
       height="35.0001"
       rx="12.5"
       ry="12.5"
       style="stroke:#2C84FA;stroke-width:0.5;"
       width="159"
       x="427.25"
       y="886.6253"
       id="rect141" />
    <text
       fill="#000000"
       font-family="Oxanium"
       font-size="12"
       lengthAdjust="spacing"
       textLength="139"
       x="437.25"
       y="909.1054"
       id="text143">Zażądaj rzutu obronnego</text>
    <polygon
       fill="#F1F1F1"
       points="475.75,945.3754,537.75,945.3754,549.75,957.3754,537.75,969.3754,475.75,969.3754,463.75,957.3754,475.75,945.3754"
       style="stroke:#2C84FA;stroke-width:0.5;"
       id="polygon145" />
    <text
       fill="#000000"
       font-family="Oxanium"
       font-size="11"
       lengthAdjust="spacing"
       textLength="62"
       x="475.75"
       y="961.9403"
       id="text147">Test zdany?</text>
    <text
       fill="#000000"
       font-family="Oxanium"
       font-size="11"
       lengthAdjust="spacing"
       textLength="16"
       x="447.75"
       y="955.0654"
       id="text149"
       style="fill:#ffff00">tak</text>
    <text
       fill="#000000"
       font-family="Oxanium"
       font-size="11"
       lengthAdjust="spacing"
       textLength="15"
       x="549.75"
       y="955.0654"
       id="text151"
       style="fill:#ffff00">nie</text>
    <rect
       fill="#0FFF50"
       height="35.0001"
       rx="12.5"
       ry="12.5"
       style="stroke:#2C84FA;stroke-width:0.5;"
       width="64"
       x="421.75"
       y="979.3754"
       id="rect153" />
    <text
       fill="#000000"
       font-family="Oxanium"
       font-size="12"
       font-weight="bold"
       lengthAdjust="spacing"
       textLength="44"
       x="431.75"
       y="1001.8554"
       id="text155">SUKCES</text>
    <rect
       fill="#FF54FF"
       height="35.0001"
       rx="12.5"
       ry="12.5"
       style="stroke:#2C84FA;stroke-width:0.5;"
       width="76"
       x="521.75"
       y="979.3754"
       id="rect157" />
    <text
       fill="#000000"
       font-family="Oxanium"
       font-size="12"
       font-weight="bold"
       lengthAdjust="spacing"
       textLength="56"
       x="531.75"
       y="1001.8554"
       id="text159">PORAŻKA</text>
    <polygon
       fill="#F1F1F1"
       points="506.75,1020.3755,518.75,1032.3755,506.75,1044.3755,494.75,1032.3755,506.75,1020.3755"
       style="stroke:#2C84FA;stroke-width:0.5;"
       id="polygon161" />
    <rect
       fill="#0FFF50"
       height="35.0001"
       rx="12.5"
       ry="12.5"
       style="stroke:#2C84FA;stroke-width:0.5;"
       width="64"
       x="631.75"
       y="882.8753"
       id="rect163" />
    <text
       fill="#000000"
       font-family="Oxanium"
       font-size="12"
       font-weight="bold"
       lengthAdjust="spacing"
       textLength="44"
       x="641.75"
       y="905.3554"
       id="text165">SUKCES</text>
    <polygon
       fill="#F1F1F1"
       points="585.25,1050.3755,597.25,1062.3755,585.25,1074.3755,573.25,1062.3755,585.25,1050.3755"
       style="stroke:#2C84FA;stroke-width:0.5;"
       id="polygon167" />
    <polygon
       fill="#F1F1F1"
       points="387.5,1080.3755,399.5,1092.3755,387.5,1104.3755,375.5,1092.3755,387.5,1080.3755"
       style="stroke:#2C84FA;stroke-width:0.5;"
       id="polygon169" />
    <ellipse
       cx="387.5"
       cy="1134.3755"
       fill="none"
       rx="10"
       ry="10"
       style="stroke:#E949F5;stroke-width:1.5;"
       id="ellipse171" />
    <line
       style="stroke:#E949F5;stroke-width:2.5;"
       x1="381.3128"
       x2="393.6872"
       y1="1128.1883"
       y2="1140.5626"
       id="line173" />
    <line
       style="stroke:#E949F5;stroke-width:2.5;"
       x1="393.6872"
       x2="381.3128"
       y1="1128.1883"
       y2="1140.5626"
       id="line175" />
    <circle
       cx="274.82623"
       cy="358.99326"
       fill="none"
       style="stroke:#e949f5;stroke-width:1.5"
       id="ellipse171-7"
       r="10" />
    <line
       style="stroke:#e949f5;stroke-width:2.5"
       x1="268.63904"
       x2="281.01343"
       y1="352.80612"
       y2="365.18039"
       id="line173-5" />
    <line
       style="stroke:#e949f5;stroke-width:2.5"
       x1="281.01343"
       x2="268.63904"
       y1="352.80612"
       y2="365.18039"
       id="line175-3" />
    <line
       style="stroke:#2C84FA;stroke-width:1.0;"
       x1="387.5"
       x2="387.5"
       y1="68.4999"
       y2="88.4999"
       id="line177" />
    <polygon
       fill="#2C84FA"
       points="383.5,78.4999,387.5,88.4999,391.5,78.4999,387.5,82.4999"
       style="stroke:#2C84FA;stroke-width:1.0;"
       id="polygon179" />
    <line
       style="stroke:#2C84FA;stroke-width:1.0;"
       x1="275"
       x2="275"
       y1="327.3749"
       y2="347.3749"
       id="line181" />
    <polygon
       fill="#2C84FA"
       points="271,337.3749,275,347.3749,279,337.3749,275,341.3749"
       style="stroke:#2C84FA;stroke-width:1.0;"
       id="polygon183" />
    <line
       style="stroke:#2C84FA;stroke-width:1.0;"
       x1="285"
       x2="275"
       y1="270.3748"
       y2="270.3748"
       id="line185" />
    <line
       style="stroke:#2C84FA;stroke-width:1.0;"
       x1="275"
       x2="275"
       y1="270.3748"
       y2="292.3748"
       id="line187" />
    <polygon
       fill="#2C84FA"
       points="271,282.3748,275,292.3748,279,282.3748,275,286.3748"
       style="stroke:#2C84FA;stroke-width:1.0;"
       id="polygon189" />
    <line
       style="stroke:#2C84FA;stroke-width:1.0;"
       x1="490"
       x2="500"
       y1="270.3748"
       y2="270.3748"
       id="line191" />
    <line
       style="stroke:#2C84FA;stroke-width:1.0;"
       x1="500"
       x2="500"
       y1="270.3748"
       y2="292.3748"
       id="line193" />
    <polygon
       fill="#2C84FA"
       points="496,282.3748,500,292.3748,504,282.3748,500,286.3748"
       style="stroke:#2C84FA;stroke-width:1.0;"
       id="polygon195" />
    <line
       style="stroke:#2C84FA;stroke-width:1.0;"
       x1="500"
       x2="500"
       y1="327.3749"
       y2="374.3749"
       id="line197" />
    <line
       style="stroke:#2C84FA;stroke-width:1.0;"
       x1="500"
       x2="387.5"
       y1="374.3749"
       y2="374.3749"
       id="line199" />
    <line
       style="stroke:#2C84FA;stroke-width:1.0;"
       x1="387.5"
       x2="387.5"
       y1="374.3749"
       y2="389.3749"
       id="line201" />
    <polygon
       fill="#2C84FA"
       points="383.5,379.3749,387.5,389.3749,391.5,379.3749,387.5,383.3749"
       style="stroke:#2C84FA;stroke-width:1.0;"
       id="polygon203" />
    <line
       style="stroke:#2C84FA;stroke-width:1.0;"
       x1="387.5"
       x2="387.5"
       y1="234.6248"
       y2="258.3748"
       id="line205" />
    <polygon
       fill="#2C84FA"
       points="383.5,248.3748,387.5,258.3748,391.5,248.3748,387.5,252.3748"
       style="stroke:#2C84FA;stroke-width:1.0;"
       id="polygon207" />
    <line
       style="stroke:#2c84fa;stroke-width:0.930125"
       x1="387.5"
       x2="387.5"
       y1="174.86037"
       y2="199.62469"
       id="line209" />
    <polygon
       fill="#2C84FA"
       points="383.5,189.6247,387.5,199.6247,391.5,189.6247,387.5,193.6247"
       style="stroke:#2C84FA;stroke-width:1.0;"
       id="polygon211" />
    <line
       style="stroke:#2c84fa;stroke-width:0.988666"
       x1="447.05002"
       x2="601"
       y1="157.24989"
       y2="157.24989"
       id="line213" />
    <polygon
       fill="#2C84FA"
       points="597,274.7499,601,284.7499,605,274.7499,601,278.7499"
       style="stroke:#2C84FA;stroke-width:1.0;"
       id="polygon215" />
    <line
       style="stroke:#2C84FA;stroke-width:1.0;"
       x1="601"
       x2="601"
       y1="157.2499"
       y2="401.3749"
       id="line217" />
    <line
       style="stroke:#2C84FA;stroke-width:1.0;"
       x1="601"
       x2="399.5"
       y1="401.3749"
       y2="401.3749"
       id="line219" />
    <polygon
       fill="#2C84FA"
       points="409.5,397.3749,399.5,401.3749,409.5,405.3749,405.5,401.3749"
       style="stroke:#2C84FA;stroke-width:1.0;"
       id="polygon221" />
    <line
       style="stroke:#2c84fa;stroke-width:0.828776"
       x1="387.5"
       x2="387.5"
       y1="123.5"
       y2="137.23741"
       id="line223" />
    <polygon
       fill="#2c84fa"
       points="387.5,143.5 391.5,133.5 387.5,137.5 383.5,133.5 "
       style="stroke:#2c84fa;stroke-width:1"
       id="polygon225"
       transform="translate(-0.01103018,-5.2393347)" />
    <line
       style="stroke:#2C84FA;stroke-width:1.0;"
       x1="172"
       x2="116.5"
       y1="552.8749"
       y2="552.8749"
       id="line227" />
    <line
       style="stroke:#2C84FA;stroke-width:1.0;"
       x1="116.5"
       x2="116.5"
       y1="552.8749"
       y2="574.8749"
       id="line229" />
    <polygon
       fill="#2C84FA"
       points="112.5,564.8749,116.5,574.8749,120.5,564.8749,116.5,568.8749"
       style="stroke:#2C84FA;stroke-width:1.0;"
       id="polygon231" />
    <line
       style="stroke:#2C84FA;stroke-width:1.0;"
       x1="279"
       x2="334.5"
       y1="552.8749"
       y2="552.8749"
       id="line233" />
    <line
       style="stroke:#2C84FA;stroke-width:1.0;"
       x1="334.5"
       x2="334.5"
       y1="552.8749"
       y2="574.8749"
       id="line235" />
    <polygon
       fill="#2C84FA"
       points="330.5,564.8749,334.5,574.8749,338.5,564.8749,334.5,568.8749"
       style="stroke:#2C84FA;stroke-width:1.0;"
       id="polygon237" />
    <line
       style="stroke:#2C84FA;stroke-width:1.0;"
       x1="116.5"
       x2="116.5"
       y1="609.875"
       y2="642.8751"
       id="line239" />
    <line
       style="stroke:#2C84FA;stroke-width:1.0;"
       x1="116.5"
       x2="213.5"
       y1="642.8751"
       y2="642.8751"
       id="line241" />
    <polygon
       fill="#2C84FA"
       points="203.5,638.8751,213.5,642.8751,203.5,646.8751,207.5,642.8751"
       style="stroke:#2C84FA;stroke-width:1.0;"
       id="polygon243" />
    <line
       style="stroke:#2C84FA;stroke-width:1.0;"
       x1="334.5"
       x2="334.5"
       y1="624.8751"
       y2="642.8751"
       id="line245" />
    <line
       style="stroke:#2C84FA;stroke-width:1.0;"
       x1="334.5"
       x2="237.5"
       y1="642.8751"
       y2="642.8751"
       id="line247" />
    <polygon
       fill="#2C84FA"
       points="247.5,638.8751,237.5,642.8751,247.5,646.8751,243.5,642.8751"
       style="stroke:#2C84FA;stroke-width:1.0;"
       id="polygon249" />
    <line
       style="stroke:#2C84FA;stroke-width:1.0;"
       x1="225.5"
       x2="225.5"
       y1="509.6248"
       y2="540.8749"
       id="line251" />
    <polygon
       fill="#2C84FA"
       points="221.5,530.8749,225.5,540.8749,229.5,530.8749,225.5,534.8749"
       style="stroke:#2C84FA;stroke-width:1.0;"
       id="polygon253" />
    <line
       style="stroke:#2c84fa;stroke-width:0.973858"
       x1="279.55875"
       x2="225.5"
       y1="447.12479"
       y2="447.12479"
       id="line255" />
    <line
       style="stroke:#2C84FA;stroke-width:1.0;"
       x1="225.5"
       x2="225.5"
       y1="447.1248"
       y2="474.6247"
       id="line257" />
    <polygon
       fill="#2C84FA"
       points="221.5,464.6247,225.5,474.6247,229.5,464.6247,225.5,468.6247"
       style="stroke:#2C84FA;stroke-width:1.0;"
       id="polygon259" />
    <line
       style="stroke:#2c84fa;stroke-width:0.972546"
       x1="495.58676"
       x2="549.5"
       y1="447.12479"
       y2="447.12479"
       id="line261" />
    <line
       style="stroke:#2C84FA;stroke-width:1.0;"
       x1="549.5"
       x2="549.5"
       y1="447.1248"
       y2="470.8747"
       id="line263" />
    <polygon
       fill="#2C84FA"
       points="545.5,460.8747,549.5,470.8747,553.5,460.8747,549.5,464.8747"
       style="stroke:#2C84FA;stroke-width:1.0;"
       id="polygon265" />
    <line
       style="stroke:#2C84FA;stroke-width:1.0;"
       x1="225.5"
       x2="225.5"
       y1="654.8751"
       y2="672.8751"
       id="line267" />
    <line
       style="stroke:#2C84FA;stroke-width:1.0;"
       x1="225.5"
       x2="375.5"
       y1="672.8751"
       y2="672.8751"
       id="line269" />
    <polygon
       fill="#2C84FA"
       points="365.5,668.8751,375.5,672.8751,365.5,676.8751,369.5,672.8751"
       style="stroke:#2C84FA;stroke-width:1.0;"
       id="polygon271" />
    <line
       style="stroke:#2C84FA;stroke-width:1.0;"
       x1="549.5"
       x2="549.5"
       y1="520.8749"
       y2="672.8751"
       id="line273" />
    <line
       style="stroke:#2C84FA;stroke-width:1.0;"
       x1="549.5"
       x2="399.5"
       y1="672.8751"
       y2="672.8751"
       id="line275" />
    <polygon
       fill="#2C84FA"
       points="409.5,668.8751,399.5,672.8751,409.5,676.8751,405.5,672.8751"
       style="stroke:#2C84FA;stroke-width:1.0;"
       id="polygon277" />
    <line
       style="stroke:#2c84fa;stroke-width:0.882534"
       x1="387.5"
       x2="387.5"
       y1="413.37491"
       y2="428.95224"
       id="line279" />
    <polygon
       fill="#2c84fa"
       points="387.5,433.3749 391.5,423.3749 387.5,427.3749 383.5,423.3749 "
       style="stroke:#2c84fa;stroke-width:1"
       id="polygon281"
       transform="translate(-0.10733212,-3.5008089)" />
    <line
       style="stroke:#2C84FA;stroke-width:1.0;"
       x1="387.5"
       x2="387.5"
       y1="684.8751"
       y2="704.8751"
       id="line283" />
    <polygon
       fill="#2C84FA"
       points="383.5,694.8751,387.5,704.8751,391.5,694.8751,387.5,698.8751"
       style="stroke:#2C84FA;stroke-width:1.0;"
       id="polygon285" />
    <line
       style="stroke:#2C84FA;stroke-width:1.0;"
       x1="387.5"
       x2="387.5"
       y1="739.8752"
       y2="759.8752"
       id="line287" />
    <polygon
       fill="#2C84FA"
       points="383.5,749.8752,387.5,759.8752,391.5,749.8752,387.5,753.8752"
       style="stroke:#2C84FA;stroke-width:1.0;"
       id="polygon289" />
    <line
       style="stroke:#2C84FA;stroke-width:1.0;"
       x1="463.75"
       x2="453.75"
       y1="957.3754"
       y2="957.3754"
       id="line291" />
    <line
       style="stroke:#2C84FA;stroke-width:1.0;"
       x1="453.75"
       x2="453.75"
       y1="957.3754"
       y2="979.3754"
       id="line293" />
    <polygon
       fill="#2C84FA"
       points="449.75,969.3754,453.75,979.3754,457.75,969.3754,453.75,973.3754"
       style="stroke:#2C84FA;stroke-width:1.0;"
       id="polygon295" />
    <line
       style="stroke:#2C84FA;stroke-width:1.0;"
       x1="549.75"
       x2="559.75"
       y1="957.3754"
       y2="957.3754"
       id="line297" />
    <line
       style="stroke:#2C84FA;stroke-width:1.0;"
       x1="559.75"
       x2="559.75"
       y1="957.3754"
       y2="979.3754"
       id="line299" />
    <polygon
       fill="#2C84FA"
       points="555.75,969.3754,559.75,979.3754,563.75,969.3754,559.75,973.3754"
       style="stroke:#2C84FA;stroke-width:1.0;"
       id="polygon301" />
    <line
       style="stroke:#2C84FA;stroke-width:1.0;"
       x1="453.75"
       x2="453.75"
       y1="1014.3755"
       y2="1032.3755"
       id="line303" />
    <line
       style="stroke:#2C84FA;stroke-width:1.0;"
       x1="453.75"
       x2="494.75"
       y1="1032.3755"
       y2="1032.3755"
       id="line305" />
    <polygon
       fill="#2C84FA"
       points="484.75,1028.3755,494.75,1032.3755,484.75,1036.3755,488.75,1032.3755"
       style="stroke:#2C84FA;stroke-width:1.0;"
       id="polygon307" />
    <line
       style="stroke:#2C84FA;stroke-width:1.0;"
       x1="559.75"
       x2="559.75"
       y1="1014.3755"
       y2="1032.3755"
       id="line309" />
    <line
       style="stroke:#2C84FA;stroke-width:1.0;"
       x1="559.75"
       x2="518.75"
       y1="1032.3755"
       y2="1032.3755"
       id="line311" />
    <polygon
       fill="#2C84FA"
       points="528.75,1028.3755,518.75,1032.3755,528.75,1036.3755,524.75,1032.3755"
       style="stroke:#2C84FA;stroke-width:1.0;"
       id="polygon313" />
    <line
       style="stroke:#2C84FA;stroke-width:1.0;"
       x1="506.75"
       x2="506.75"
       y1="921.6254"
       y2="945.3754"
       id="line315" />
    <polygon
       fill="#2C84FA"
       points="502.75,935.3754,506.75,945.3754,510.75,935.3754,506.75,939.3754"
       style="stroke:#2C84FA;stroke-width:1.0;"
       id="polygon317" />
    <line
       style="stroke:#2C84FA;stroke-width:1.0;"
       x1="516.75"
       x2="506.75"
       y1="860.8753"
       y2="860.8753"
       id="line319" />
    <line
       style="stroke:#2C84FA;stroke-width:1.0;"
       x1="506.75"
       x2="506.75"
       y1="860.8753"
       y2="886.6253"
       id="line321" />
    <polygon
       fill="#2C84FA"
       points="502.75,876.6253,506.75,886.6253,510.75,876.6253,506.75,880.6253"
       style="stroke:#2C84FA;stroke-width:1.0;"
       id="polygon323" />
    <line
       style="stroke:#2C84FA;stroke-width:1.0;"
       x1="653.75"
       x2="663.75"
       y1="860.8753"
       y2="860.8753"
       id="line325" />
    <line
       style="stroke:#2C84FA;stroke-width:1.0;"
       x1="663.75"
       x2="663.75"
       y1="860.8753"
       y2="882.8753"
       id="line327" />
    <polygon
       fill="#2C84FA"
       points="659.75,872.8753,663.75,882.8753,667.75,872.8753,663.75,876.8753"
       style="stroke:#2C84FA;stroke-width:1.0;"
       id="polygon329" />
    <line
       style="stroke:#2C84FA;stroke-width:1.0;"
       x1="506.75"
       x2="506.75"
       y1="1044.3755"
       y2="1062.3755"
       id="line331" />
    <line
       style="stroke:#2C84FA;stroke-width:1.0;"
       x1="506.75"
       x2="573.25"
       y1="1062.3755"
       y2="1062.3755"
       id="line333" />
    <polygon
       fill="#2C84FA"
       points="563.25,1058.3755,573.25,1062.3755,563.25,1066.3755,567.25,1062.3755"
       style="stroke:#2C84FA;stroke-width:1.0;"
       id="polygon335" />
    <line
       style="stroke:#2C84FA;stroke-width:1.0;"
       x1="663.75"
       x2="663.75"
       y1="917.8754"
       y2="1062.3755"
       id="line337" />
    <line
       style="stroke:#2C84FA;stroke-width:1.0;"
       x1="663.75"
       x2="597.25"
       y1="1062.3755"
       y2="1062.3755"
       id="line339" />
    <polygon
       fill="#2C84FA"
       points="607.25,1058.3755,597.25,1062.3755,607.25,1066.3755,603.25,1062.3755"
       style="stroke:#2C84FA;stroke-width:1.0;"
       id="polygon341" />
    <line
       style="stroke:#2C84FA;stroke-width:1.0;"
       x1="335.5"
       x2="189.75"
       y1="826.8753"
       y2="826.8753"
       id="line343" />
    <line
       style="stroke:#2C84FA;stroke-width:1.0;"
       x1="189.75"
       x2="189.75"
       y1="826.8753"
       y2="848.8753"
       id="line345" />
    <polygon
       fill="#2C84FA"
       points="185.75,838.8753,189.75,848.8753,193.75,838.8753,189.75,842.8753"
       style="stroke:#2C84FA;stroke-width:1.0;"
       id="polygon347" />
    <line
       style="stroke:#2C84FA;stroke-width:1.0;"
       x1="439.5"
       x2="585.25"
       y1="826.8753"
       y2="826.8753"
       id="line349" />
    <line
       style="stroke:#2C84FA;stroke-width:1.0;"
       x1="585.25"
       x2="585.25"
       y1="826.8753"
       y2="848.8753"
       id="line351" />
    <polygon
       fill="#2C84FA"
       points="581.25,838.8753,585.25,848.8753,589.25,838.8753,585.25,842.8753"
       style="stroke:#2C84FA;stroke-width:1.0;"
       id="polygon353" />
    <line
       style="stroke:#2C84FA;stroke-width:1.0;"
       x1="189.75"
       x2="189.75"
       y1="883.8754"
       y2="1092.3755"
       id="line355" />
    <line
       style="stroke:#2C84FA;stroke-width:1.0;"
       x1="189.75"
       x2="375.5"
       y1="1092.3755"
       y2="1092.3755"
       id="line357" />
    <polygon
       fill="#2C84FA"
       points="365.5,1088.3755,375.5,1092.3755,365.5,1096.3755,369.5,1092.3755"
       style="stroke:#2C84FA;stroke-width:1.0;"
       id="polygon359" />
    <line
       style="stroke:#2C84FA;stroke-width:1.0;"
       x1="585.25"
       x2="585.25"
       y1="1074.3755"
       y2="1092.3755"
       id="line361" />
    <line
       style="stroke:#2C84FA;stroke-width:1.0;"
       x1="585.25"
       x2="399.5"
       y1="1092.3755"
       y2="1092.3755"
       id="line363" />
    <polygon
       fill="#2C84FA"
       points="409.5,1088.3755,399.5,1092.3755,409.5,1096.3755,405.5,1092.3755"
       style="stroke:#2C84FA;stroke-width:1.0;"
       id="polygon365" />
    <line
       style="stroke:#2C84FA;stroke-width:1.0;"
       x1="387.5"
       x2="387.5"
       y1="794.8753"
       y2="814.8753"
       id="line367" />
    <polygon
       fill="#2C84FA"
       points="383.5,804.8753,387.5,814.8753,391.5,804.8753,387.5,808.8753"
       style="stroke:#2C84FA;stroke-width:1.0;"
       id="polygon369" />
    <line
       style="stroke:#2C84FA;stroke-width:1.0;"
       x1="387.5"
       x2="387.5"
       y1="1104.3755"
       y2="1124.3755"
       id="line371" />
    <polygon
       fill="#2C84FA"
       points="383.5,1114.3755,387.5,1124.3755,391.5,1114.3755,387.5,1118.3755"
       style="stroke:#2C84FA;stroke-width:1.0;"
       id="polygon373" />
    <!--MD5=[cb10f6df0f400e6d226acc6dd4bb3f8e]
@startuml "Walka fizyczna"
title "Walka fizyczna"
skinparam defaultFontName Oxanium
skinparam activity {
  StartColor #0fff50
  BarColor #2c84fa
  EndColor #e949f5
  BorderColor #2c84fa
  ArrowColor #2c84fa
  FontName Oxanium
}
start
:Rozpocznij rundę;
if (Gracz chce się
wycofać z walki?) then (tak)
:Zażądaj testu BIO;
 note left
   Aktywacja 
   cybermodów
 endnote
if (Test udany i gracz ma dokąd uciec?) then (tak)
:Gracz opuszcza starcie;
stop
else (nie)
:Gracz pozostaje w starciu;
endif
endif
if (postać może zostać zaskoczona
a chce działać przed przeciwnikami?) then (tak)
  :Zażądaj testu BIO;
  note left
   Aktywacja 
   cybermodów
  endnote
  if (Test BIO zdany?) then (tak)
    :Postać działa przed przeciwnikami;
  else (nie)
    :Wszystkie działania w rundzie
    odbywają się jednocześnie;
  endif
else (nie)
  :Wszystkie działania w rundzie
  odbywają się jednocześnie;
endif
:Postać może wykonać ruch (do 12 m);
:Postać może wykonać atak lub inną akcję;
if (Atak czy akcja?) then (atak)
#f2f230 :Przejdź do algorytmu ataku;
else (akcja)
  if (akcja jest ryzykowna?) then (tak)
    :Zażądaj rzutu obronnego;
    note left
      Aktywacja 
      cybermodów
    endnote
    if (Test zdany?) then (tak)
    #0fff50 :**SUKCES**;
    else (nie)
    #ff54ff:**PORAŻKA**;
    endif
  else (nie)
    #0fff50 :**SUKCES**;
  endif 
endif
end
@enduml

PlantUML version 1.2022.7(Mon Aug 22 19:01:30 CEST 2022)
(GPL source distribution)
Java Runtime: OpenJDK Runtime Environment
JVM: OpenJDK 64-Bit Server VM
Default Encoding: UTF-8
Language: en
Country: GB
-->
  </g>
</svg>
