<?xml version="1.0" encoding="UTF-8" standalone="no"?>
<svg xmlns="http://www.w3.org/2000/svg" xmlns:xlink="http://www.w3.org/1999/xlink"
  contentStyleType="text/css" height="1158px" preserveAspectRatio="none"
  style="width:675px;height:1158px;background:transparent;" version="1.1" viewBox="0 0 675 1158"
  width="675px" zoomAndPan="magnify">
  <defs />
  <g>
    <rect fill="none" height="27.4999" id="_title" style="stroke:none;stroke-width:1.0;" width="118"
      x="277.375" y="15" />
    <text fill="#000000" font-family="Oxanium" font-size="14" font-weight="bold"
      lengthAdjust="spacing" textLength="108" x="282.375" y="34.5599">Physical combat</text>
    <ellipse cx="367.375" cy="58.4999" fill="#0FFF50" rx="10" ry="10"
      style="stroke:#222222;stroke-width:1.0;" />
    <rect fill="#F1F1F1" height="35.0001" rx="12.5" ry="12.5"
      style="stroke:#2C84FA;stroke-width:0.5;" width="105" x="314.875" y="88.4999" />
    <text fill="#000000" font-family="Oxanium" font-size="12" lengthAdjust="spacing" textLength="85"
      x="324.875" y="110.98">Start the round</text>
    <path
      d="M202.875,195.8748 L202.875,238.3748 A0,0 0 0 0 202.875,238.3748 L289.875,238.3748 A0,0 0 0 0 289.875,238.3748 L289.875,221.1248 L309.875,217.1248 L289.875,213.1248 L289.875,205.8748 L279.875,195.8748 L202.875,195.8748 A0,0 0 0 0 202.875,195.8748 "
      fill="#FEFFDD" style="stroke:#181818;stroke-width:0.5;" />
    <path d="M279.875,195.8748 L279.875,205.8748 L289.875,205.8748 L279.875,195.8748 "
      fill="#FEFFDD" style="stroke:#181818;stroke-width:0.5;" />
    <text fill="#000000" font-family="Oxanium" font-size="13" lengthAdjust="spacing" textLength="63"
      x="208.875" y="214.3948">Cybermod</text>
    <text fill="#000000" font-family="Oxanium" font-size="13" lengthAdjust="spacing" textLength="60"
      x="208.875" y="230.6448">activation</text>
    <rect fill="#F1F1F1" height="35.0001" rx="12.5" ry="12.5"
      style="stroke:#2C84FA;stroke-width:0.5;" width="115" x="309.875" y="199.6247" />
    <text fill="#000000" font-family="Oxanium" font-size="12" lengthAdjust="spacing" textLength="95"
      x="319.875" y="222.1048">Request BIO test</text>
    <polygon fill="#F1F1F1"
      points="294.875,258.3748,439.875,258.3748,451.875,272.1247,439.875,285.8746,294.875,285.8746,282.875,272.1247,294.875,258.3748"
      style="stroke:#2C84FA;stroke-width:0.5;" />
    <text fill="#000000" font-family="Oxanium" font-size="11" lengthAdjust="spacing"
      textLength="136" x="294.875" y="269.8147">Test passed and the player</text>
    <text fill="#000000" font-family="Oxanium" font-size="11" lengthAdjust="spacing"
      textLength="133" x="306.875" y="283.5646">has a safe place to run to?</text>
    <text fill="#F2F230" font-family="Oxanium" font-size="11" lengthAdjust="spacing" textLength="18"
      x="264.875" y="269.8147">yes</text>
    <text fill="#F2F230" font-family="Oxanium" font-size="11" lengthAdjust="spacing" textLength="12"
      x="454.875" y="269.8147">no</text>
    <rect fill="#F1F1F1" height="35.0001" rx="12.5" ry="12.5"
      style="stroke:#2C84FA;stroke-width:0.5;" width="162" x="183.375" y="295.8746" />
    <text fill="#000000" font-family="Oxanium" font-size="12" lengthAdjust="spacing"
      textLength="142" x="193.375" y="318.3547">Player leaves the combat</text>
    <ellipse cx="264.375" cy="361.8747" fill="none" rx="11" ry="11"
      style="stroke:#222222;stroke-width:1.0;" />
    <ellipse cx="264.375" cy="361.8747" fill="#222222" rx="6" ry="6"
      style="stroke:#111111;stroke-width:1.0;" />
    <rect fill="#F1F1F1" height="35.0001" rx="12.5" ry="12.5"
      style="stroke:#2C84FA;stroke-width:0.5;" width="210" x="365.375" y="295.8746" />
    <text fill="#000000" font-family="Oxanium" font-size="12" lengthAdjust="spacing"
      textLength="190" x="375.375" y="318.3547">The player remains in the struggle</text>
    <polygon fill="#F1F1F1"
      points="298.875,143.5,435.875,143.5,447.875,157.2499,435.875,170.9998,298.875,170.9998,286.875,157.2499,298.875,143.5"
      style="stroke:#2C84FA;stroke-width:0.5;" />
    <text fill="#F2F230" font-family="Oxanium" font-size="11" lengthAdjust="spacing" textLength="18"
      x="374.375" y="182.4397">yes</text>
    <text fill="#000000" font-family="Oxanium" font-size="11" lengthAdjust="spacing"
      textLength="100" x="298.875" y="154.9399">The player wants to</text>
    <text fill="#000000" font-family="Oxanium" font-size="11" lengthAdjust="spacing"
      textLength="125" x="310.875" y="168.6898">withdraw from the fight?</text>
    <polygon fill="#F1F1F1"
      points="367.375,392.8747,379.375,404.8747,367.375,416.8747,355.375,404.8747,367.375,392.8747"
      style="stroke:#2C84FA;stroke-width:0.5;" />
    <polygon fill="#F1F1F1"
      points="271.375,436.8747,463.375,436.8747,475.375,450.6246,463.375,464.3745,271.375,464.3745,259.375,450.6246,271.375,436.8747"
      style="stroke:#2C84FA;stroke-width:0.5;" />
    <text fill="#000000" font-family="Oxanium" font-size="11" lengthAdjust="spacing"
      textLength="178" x="271.375" y="448.3146">character may be taken by surprise</text>
    <text fill="#000000" font-family="Oxanium" font-size="11" lengthAdjust="spacing"
      textLength="180" x="283.375" y="462.0645">and wants to act before opponents?</text>
    <text fill="#F2F230" font-family="Oxanium" font-size="11" lengthAdjust="spacing" textLength="18"
      x="241.375" y="448.3146">yes</text>
    <text fill="#F2F230" font-family="Oxanium" font-size="11" lengthAdjust="spacing" textLength="12"
      x="478.375" y="448.3146">no</text>
    <path
      d="M51.75,474.3745 L51.75,516.8745 A0,0 0 0 0 51.75,516.8745 L138.75,516.8745 A0,0 0 0 0 138.75,516.8745 L138.75,499.6245 L158.75,495.6245 L138.75,491.6245 L138.75,484.3745 L128.75,474.3745 L51.75,474.3745 A0,0 0 0 0 51.75,474.3745 "
      fill="#FEFFDD" style="stroke:#181818;stroke-width:0.5;" />
    <path d="M128.75,474.3745 L128.75,484.3745 L138.75,484.3745 L128.75,474.3745 " fill="#FEFFDD"
      style="stroke:#181818;stroke-width:0.5;" />
    <text fill="#000000" font-family="Oxanium" font-size="13" lengthAdjust="spacing" textLength="63"
      x="57.75" y="492.8945">Cybermod</text>
    <text fill="#000000" font-family="Oxanium" font-size="13" lengthAdjust="spacing" textLength="60"
      x="57.75" y="509.1445">activation</text>
    <rect fill="#F1F1F1" height="35.0001" rx="12.5" ry="12.5"
      style="stroke:#2C84FA;stroke-width:0.5;" width="115" x="158.75" y="478.1245" />
    <text fill="#000000" font-family="Oxanium" font-size="12" lengthAdjust="spacing" textLength="95"
      x="168.75" y="500.6045">Request BIO test</text>
    <polygon fill="#F1F1F1"
      points="173.25,544.3747,259.25,544.3747,271.25,556.3747,259.25,568.3747,173.25,568.3747,161.25,556.3747,173.25,544.3747"
      style="stroke:#2C84FA;stroke-width:0.5;" />
    <text fill="#000000" font-family="Oxanium" font-size="11" lengthAdjust="spacing" textLength="86"
      x="173.25" y="560.9397">BIO test passed?</text>
    <text fill="#F2F230" font-family="Oxanium" font-size="11" lengthAdjust="spacing" textLength="18"
      x="143.25" y="554.0647">yes</text>
    <text fill="#F2F230" font-family="Oxanium" font-size="11" lengthAdjust="spacing" textLength="12"
      x="274.25" y="554.0647">no</text>
    <rect fill="#F1F1F1" height="35.0001" rx="12.5" ry="12.5"
      style="stroke:#2C84FA;stroke-width:0.5;" width="204" x="11" y="578.3747" />
    <text fill="#000000" font-family="Oxanium" font-size="12" lengthAdjust="spacing"
      textLength="184" x="21" y="600.8548">Character acts before opponents</text>
    <rect fill="#F1F1F1" height="50.0002" rx="12.5" ry="12.5"
      style="stroke:#2C84FA;stroke-width:0.5;" width="169" x="235" y="578.3747" />
    <text fill="#000000" font-family="Oxanium" font-size="12" lengthAdjust="spacing"
      textLength="138" x="245" y="600.8548">All activities in the round</text>
    <text fill="#000000" font-family="Oxanium" font-size="12" lengthAdjust="spacing"
      textLength="146" x="248" y="615.8549">take place simultaneously</text>
    <polygon fill="#F1F1F1"
      points="216.25,634.3749,228.25,646.3749,216.25,658.3749,204.25,646.3749,216.25,634.3749"
      style="stroke:#2C84FA;stroke-width:0.5;" />
    <rect fill="#F1F1F1" height="50.0002" rx="12.5" ry="12.5"
      style="stroke:#2C84FA;stroke-width:0.5;" width="169" x="434" y="474.3745" />
    <text fill="#000000" font-family="Oxanium" font-size="12" lengthAdjust="spacing"
      textLength="138" x="444" y="496.8546">All activities in the round</text>
    <text fill="#000000" font-family="Oxanium" font-size="12" lengthAdjust="spacing"
      textLength="146" x="447" y="511.8547">take place simultaneously</text>
    <polygon fill="#F1F1F1"
      points="367.375,664.3749,379.375,676.3749,367.375,688.3749,355.375,676.3749,367.375,664.3749"
      style="stroke:#2C84FA;stroke-width:0.5;" />
    <rect fill="#F1F1F1" height="35.0001" rx="12.5" ry="12.5"
      style="stroke:#2C84FA;stroke-width:0.5;" width="154" x="290.375" y="708.3749" />
    <text fill="#000000" font-family="Oxanium" font-size="12" lengthAdjust="spacing"
      textLength="134" x="300.375" y="730.855">The character can move</text>
    <rect fill="#F1F1F1" height="35.0001" rx="12.5" ry="12.5"
      style="stroke:#2C84FA;stroke-width:0.5;" width="296" x="219.375" y="763.375" />
    <text fill="#000000" font-family="Oxanium" font-size="12" lengthAdjust="spacing"
      textLength="276" x="229.375" y="785.8551">A character can perform an attack or other action</text>
    <polygon fill="#F1F1F1"
      points="324.375,818.3751,410.375,818.3751,422.375,830.3751,410.375,842.3751,324.375,842.3751,312.375,830.3751,324.375,818.3751"
      style="stroke:#2C84FA;stroke-width:0.5;" />
    <text fill="#000000" font-family="Oxanium" font-size="11" lengthAdjust="spacing" textLength="86"
      x="324.375" y="834.9401">Attack or action?</text>
    <text fill="#F2F230" font-family="Oxanium" font-size="11" lengthAdjust="spacing" textLength="32"
      x="280.375" y="828.0651">attack</text>
    <text fill="#F2F230" font-family="Oxanium" font-size="11" lengthAdjust="spacing" textLength="31"
      x="425.375" y="828.0651">action</text>
    <rect fill="#F2F230" height="35.0001" rx="12.5" ry="12.5"
      style="stroke:#2C84FA;stroke-width:0.5;" width="154" x="105.75" y="852.3751" />
    <text fill="#000000" font-family="Oxanium" font-size="12" lengthAdjust="spacing"
      textLength="134" x="115.75" y="874.8552">Skip to attack algorithm</text>
    <polygon fill="#F1F1F1"
      points="504,852.3751,600,852.3751,612,864.3751,600,876.3751,504,876.3751,492,864.3751,504,852.3751"
      style="stroke:#2C84FA;stroke-width:0.5;" />
    <text fill="#000000" font-family="Oxanium" font-size="11" lengthAdjust="spacing" textLength="96"
      x="504" y="868.9401">the action is risky?</text>
    <text fill="#F2F230" font-family="Oxanium" font-size="11" lengthAdjust="spacing" textLength="18"
      x="474" y="862.0651">yes</text>
    <text fill="#F2F230" font-family="Oxanium" font-size="11" lengthAdjust="spacing" textLength="12"
      x="615" y="862.0651">no</text>
    <path
      d="M289.75,886.3751 L289.75,928.8752 A0,0 0 0 0 289.75,928.8752 L376.75,928.8752 A0,0 0 0 0 376.75,928.8752 L376.75,911.6251 L396.75,907.6251 L376.75,903.6251 L376.75,896.3751 L366.75,886.3751 L289.75,886.3751 A0,0 0 0 0 289.75,886.3751 "
      fill="#FEFFDD" style="stroke:#181818;stroke-width:0.5;" />
    <path d="M366.75,886.3751 L366.75,896.3751 L376.75,896.3751 L366.75,886.3751 " fill="#FEFFDD"
      style="stroke:#181818;stroke-width:0.5;" />
    <text fill="#000000" font-family="Oxanium" font-size="13" lengthAdjust="spacing" textLength="63"
      x="295.75" y="904.8951">Cybermod</text>
    <text fill="#000000" font-family="Oxanium" font-size="13" lengthAdjust="spacing" textLength="60"
      x="295.75" y="921.1452">activation</text>
    <rect fill="#F1F1F1" height="35.0001" rx="12.5" ry="12.5"
      style="stroke:#2C84FA;stroke-width:0.5;" width="155" x="396.75" y="890.1251" />
    <text fill="#000000" font-family="Oxanium" font-size="12" lengthAdjust="spacing"
      textLength="135" x="406.75" y="912.6052">Request proper save roll</text>
    <polygon fill="#F1F1F1"
      points="440.25,948.8752,508.25,948.8752,520.25,960.8752,508.25,972.8752,440.25,972.8752,428.25,960.8752,440.25,948.8752"
      style="stroke:#2C84FA;stroke-width:0.5;" />
    <text fill="#000000" font-family="Oxanium" font-size="11" lengthAdjust="spacing" textLength="68"
      x="440.25" y="965.4401">Test passed?</text>
    <text fill="#F2F230" font-family="Oxanium" font-size="11" lengthAdjust="spacing" textLength="18"
      x="410.25" y="958.5652">yes</text>
    <text fill="#F2F230" font-family="Oxanium" font-size="11" lengthAdjust="spacing" textLength="12"
      x="523.25" y="958.5652">no</text>
    <rect fill="#0FFF50" height="35.0001" rx="12.5" ry="12.5"
      style="stroke:#2C84FA;stroke-width:0.5;" width="70" x="383.25" y="982.8752" />
    <text fill="#000000" font-family="Oxanium" font-size="12" font-weight="bold"
      lengthAdjust="spacing" textLength="50" x="393.25" y="1005.3552">SUCCESS</text>
    <rect fill="#FF54FF" height="35.0001" rx="12.5" ry="12.5"
      style="stroke:#2C84FA;stroke-width:0.5;" width="69" x="495.75" y="982.8752" />
    <text fill="#000000" font-family="Oxanium" font-size="12" font-weight="bold"
      lengthAdjust="spacing" textLength="49" x="505.75" y="1005.3552">FAILURE</text>
    <polygon fill="#F1F1F1"
      points="474.25,1023.8753,486.25,1035.8753,474.25,1047.8753,462.25,1035.8753,474.25,1023.8753"
      style="stroke:#2C84FA;stroke-width:0.5;" />
    <rect fill="#0FFF50" height="35.0001" rx="12.5" ry="12.5"
      style="stroke:#2C84FA;stroke-width:0.5;" width="70" x="594.75" y="886.3751" />
    <text fill="#000000" font-family="Oxanium" font-size="12" font-weight="bold"
      lengthAdjust="spacing" textLength="50" x="604.75" y="908.8552">SUCCESS</text>
    <polygon fill="#F1F1F1"
      points="552,1053.8753,564,1065.8753,552,1077.8753,540,1065.8753,552,1053.8753"
      style="stroke:#2C84FA;stroke-width:0.5;" />
    <polygon fill="#F1F1F1"
      points="367.375,1083.8753,379.375,1095.8753,367.375,1107.8753,355.375,1095.8753,367.375,1083.8753"
      style="stroke:#2C84FA;stroke-width:0.5;" />
    <ellipse cx="367.375" cy="1137.8753" fill="none" rx="10" ry="10"
      style="stroke:#E949F5;stroke-width:1.5;" />
    <line style="stroke:#E949F5;stroke-width:2.5;" x1="361.1878" x2="373.5622" y1="1131.6881"
      y2="1144.0624" />
    <line style="stroke:#E949F5;stroke-width:2.5;" x1="373.5622" x2="361.1878" y1="1131.6881"
      y2="1144.0624" />
    <line style="stroke:#2C84FA;stroke-width:1.0;" x1="367.375" x2="367.375" y1="68.4999"
      y2="88.4999" />
    <polygon fill="#2C84FA" points="363.375,78.4999,367.375,88.4999,371.375,78.4999,367.375,82.4999"
      style="stroke:#2C84FA;stroke-width:1.0;" />
    <line style="stroke:#2C84FA;stroke-width:1.0;" x1="264.375" x2="264.375" y1="330.8747"
      y2="350.8747" />
    <polygon fill="#2C84FA"
      points="260.375,340.8747,264.375,350.8747,268.375,340.8747,264.375,344.8747"
      style="stroke:#2C84FA;stroke-width:1.0;" />
    <line style="stroke:#2C84FA;stroke-width:1.0;" x1="282.875" x2="264.375" y1="272.1247"
      y2="272.1247" />
    <line style="stroke:#2C84FA;stroke-width:1.0;" x1="264.375" x2="264.375" y1="272.1247"
      y2="295.8746" />
    <polygon fill="#2C84FA"
      points="260.375,285.8746,264.375,295.8746,268.375,285.8746,264.375,289.8746"
      style="stroke:#2C84FA;stroke-width:1.0;" />
    <line style="stroke:#2C84FA;stroke-width:1.0;" x1="451.875" x2="470.375" y1="272.1247"
      y2="272.1247" />
    <line style="stroke:#2C84FA;stroke-width:1.0;" x1="470.375" x2="470.375" y1="272.1247"
      y2="295.8746" />
    <polygon fill="#2C84FA"
      points="466.375,285.8746,470.375,295.8746,474.375,285.8746,470.375,289.8746"
      style="stroke:#2C84FA;stroke-width:1.0;" />
    <line style="stroke:#2C84FA;stroke-width:1.0;" x1="470.375" x2="470.375" y1="330.8747"
      y2="377.8747" />
    <line style="stroke:#2C84FA;stroke-width:1.0;" x1="470.375" x2="367.375" y1="377.8747"
      y2="377.8747" />
    <line style="stroke:#2C84FA;stroke-width:1.0;" x1="367.375" x2="367.375" y1="377.8747"
      y2="392.8747" />
    <polygon fill="#2C84FA"
      points="363.375,382.8747,367.375,392.8747,371.375,382.8747,367.375,386.8747"
      style="stroke:#2C84FA;stroke-width:1.0;" />
    <line style="stroke:#2C84FA;stroke-width:1.0;" x1="367.375" x2="367.375" y1="234.6248"
      y2="258.3748" />
    <polygon fill="#2C84FA"
      points="363.375,248.3748,367.375,258.3748,371.375,248.3748,367.375,252.3748"
      style="stroke:#2C84FA;stroke-width:1.0;" />
    <line style="stroke:#2C84FA;stroke-width:1.0;" x1="367.375" x2="367.375" y1="170.9998"
      y2="199.6247" />
    <polygon fill="#2C84FA"
      points="363.375,189.6247,367.375,199.6247,371.375,189.6247,367.375,193.6247"
      style="stroke:#2C84FA;stroke-width:1.0;" />
    <line style="stroke:#2C84FA;stroke-width:1.0;" x1="447.875" x2="595.375" y1="157.2499"
      y2="157.2499" />
    <polygon fill="#2C84FA"
      points="591.375,276.4998,595.375,286.4998,599.375,276.4998,595.375,280.4998"
      style="stroke:#2C84FA;stroke-width:1.0;" />
    <line style="stroke:#2C84FA;stroke-width:1.0;" x1="595.375" x2="595.375" y1="157.2499"
      y2="404.8747" />
    <line style="stroke:#2C84FA;stroke-width:1.0;" x1="595.375" x2="379.375" y1="404.8747"
      y2="404.8747" />
    <polygon fill="#2C84FA"
      points="389.375,400.8747,379.375,404.8747,389.375,408.8747,385.375,404.8747"
      style="stroke:#2C84FA;stroke-width:1.0;" />
    <line style="stroke:#2C84FA;stroke-width:1.0;" x1="367.375" x2="367.375" y1="123.5" y2="143.5" />
    <polygon fill="#2C84FA" points="363.375,133.5,367.375,143.5,371.375,133.5,367.375,137.5"
      style="stroke:#2C84FA;stroke-width:1.0;" />
    <line style="stroke:#2C84FA;stroke-width:1.0;" x1="161.25" x2="113" y1="556.3747" y2="556.3747" />
    <line style="stroke:#2C84FA;stroke-width:1.0;" x1="113" x2="113" y1="556.3747" y2="578.3747" />
    <polygon fill="#2C84FA" points="109,568.3747,113,578.3747,117,568.3747,113,572.3747"
      style="stroke:#2C84FA;stroke-width:1.0;" />
    <line style="stroke:#2C84FA;stroke-width:1.0;" x1="271.25" x2="319.5" y1="556.3747"
      y2="556.3747" />
    <line style="stroke:#2C84FA;stroke-width:1.0;" x1="319.5" x2="319.5" y1="556.3747" y2="578.3747" />
    <polygon fill="#2C84FA" points="315.5,568.3747,319.5,578.3747,323.5,568.3747,319.5,572.3747"
      style="stroke:#2C84FA;stroke-width:1.0;" />
    <line style="stroke:#2C84FA;stroke-width:1.0;" x1="113" x2="113" y1="613.3748" y2="646.3749" />
    <line style="stroke:#2C84FA;stroke-width:1.0;" x1="113" x2="204.25" y1="646.3749" y2="646.3749" />
    <polygon fill="#2C84FA" points="194.25,642.3749,204.25,646.3749,194.25,650.3749,198.25,646.3749"
      style="stroke:#2C84FA;stroke-width:1.0;" />
    <line style="stroke:#2C84FA;stroke-width:1.0;" x1="319.5" x2="319.5" y1="628.3749" y2="646.3749" />
    <line style="stroke:#2C84FA;stroke-width:1.0;" x1="319.5" x2="228.25" y1="646.3749"
      y2="646.3749" />
    <polygon fill="#2C84FA" points="238.25,642.3749,228.25,646.3749,238.25,650.3749,234.25,646.3749"
      style="stroke:#2C84FA;stroke-width:1.0;" />
    <line style="stroke:#2C84FA;stroke-width:1.0;" x1="216.25" x2="216.25" y1="513.1246"
      y2="544.3747" />
    <polygon fill="#2C84FA" points="212.25,534.3747,216.25,544.3747,220.25,534.3747,216.25,538.3747"
      style="stroke:#2C84FA;stroke-width:1.0;" />
    <line style="stroke:#2C84FA;stroke-width:1.0;" x1="259.375" x2="216.25" y1="450.6246"
      y2="450.6246" />
    <line style="stroke:#2C84FA;stroke-width:1.0;" x1="216.25" x2="216.25" y1="450.6246"
      y2="478.1245" />
    <polygon fill="#2C84FA" points="212.25,468.1245,216.25,478.1245,220.25,468.1245,216.25,472.1245"
      style="stroke:#2C84FA;stroke-width:1.0;" />
    <line style="stroke:#2C84FA;stroke-width:1.0;" x1="475.375" x2="518.5" y1="450.6246"
      y2="450.6246" />
    <line style="stroke:#2C84FA;stroke-width:1.0;" x1="518.5" x2="518.5" y1="450.6246" y2="474.3745" />
    <polygon fill="#2C84FA" points="514.5,464.3745,518.5,474.3745,522.5,464.3745,518.5,468.3745"
      style="stroke:#2C84FA;stroke-width:1.0;" />
    <line style="stroke:#2C84FA;stroke-width:1.0;" x1="216.25" x2="216.25" y1="658.3749"
      y2="676.3749" />
    <line style="stroke:#2C84FA;stroke-width:1.0;" x1="216.25" x2="355.375" y1="676.3749"
      y2="676.3749" />
    <polygon fill="#2C84FA"
      points="345.375,672.3749,355.375,676.3749,345.375,680.3749,349.375,676.3749"
      style="stroke:#2C84FA;stroke-width:1.0;" />
    <line style="stroke:#2C84FA;stroke-width:1.0;" x1="518.5" x2="518.5" y1="524.3747" y2="676.3749" />
    <line style="stroke:#2C84FA;stroke-width:1.0;" x1="518.5" x2="379.375" y1="676.3749"
      y2="676.3749" />
    <polygon fill="#2C84FA"
      points="389.375,672.3749,379.375,676.3749,389.375,680.3749,385.375,676.3749"
      style="stroke:#2C84FA;stroke-width:1.0;" />
    <line style="stroke:#2C84FA;stroke-width:1.0;" x1="367.375" x2="367.375" y1="416.8747"
      y2="436.8747" />
    <polygon fill="#2C84FA"
      points="363.375,426.8747,367.375,436.8747,371.375,426.8747,367.375,430.8747"
      style="stroke:#2C84FA;stroke-width:1.0;" />
    <line style="stroke:#2C84FA;stroke-width:1.0;" x1="367.375" x2="367.375" y1="688.3749"
      y2="708.3749" />
    <polygon fill="#2C84FA"
      points="363.375,698.3749,367.375,708.3749,371.375,698.3749,367.375,702.3749"
      style="stroke:#2C84FA;stroke-width:1.0;" />
    <line style="stroke:#2C84FA;stroke-width:1.0;" x1="367.375" x2="367.375" y1="743.375"
      y2="763.375" />
    <polygon fill="#2C84FA" points="363.375,753.375,367.375,763.375,371.375,753.375,367.375,757.375"
      style="stroke:#2C84FA;stroke-width:1.0;" />
    <line style="stroke:#2C84FA;stroke-width:1.0;" x1="428.25" x2="418.25" y1="960.8752"
      y2="960.8752" />
    <line style="stroke:#2C84FA;stroke-width:1.0;" x1="418.25" x2="418.25" y1="960.8752"
      y2="982.8752" />
    <polygon fill="#2C84FA" points="414.25,972.8752,418.25,982.8752,422.25,972.8752,418.25,976.8752"
      style="stroke:#2C84FA;stroke-width:1.0;" />
    <line style="stroke:#2C84FA;stroke-width:1.0;" x1="520.25" x2="530.25" y1="960.8752"
      y2="960.8752" />
    <line style="stroke:#2C84FA;stroke-width:1.0;" x1="530.25" x2="530.25" y1="960.8752"
      y2="982.8752" />
    <polygon fill="#2C84FA" points="526.25,972.8752,530.25,982.8752,534.25,972.8752,530.25,976.8752"
      style="stroke:#2C84FA;stroke-width:1.0;" />
    <line style="stroke:#2C84FA;stroke-width:1.0;" x1="418.25" x2="418.25" y1="1017.8753"
      y2="1035.8753" />
    <line style="stroke:#2C84FA;stroke-width:1.0;" x1="418.25" x2="462.25" y1="1035.8753"
      y2="1035.8753" />
    <polygon fill="#2C84FA"
      points="452.25,1031.8753,462.25,1035.8753,452.25,1039.8753,456.25,1035.8753"
      style="stroke:#2C84FA;stroke-width:1.0;" />
    <line style="stroke:#2C84FA;stroke-width:1.0;" x1="530.25" x2="530.25" y1="1017.8753"
      y2="1035.8753" />
    <line style="stroke:#2C84FA;stroke-width:1.0;" x1="530.25" x2="486.25" y1="1035.8753"
      y2="1035.8753" />
    <polygon fill="#2C84FA"
      points="496.25,1031.8753,486.25,1035.8753,496.25,1039.8753,492.25,1035.8753"
      style="stroke:#2C84FA;stroke-width:1.0;" />
    <line style="stroke:#2C84FA;stroke-width:1.0;" x1="474.25" x2="474.25" y1="925.1252"
      y2="948.8752" />
    <polygon fill="#2C84FA" points="470.25,938.8752,474.25,948.8752,478.25,938.8752,474.25,942.8752"
      style="stroke:#2C84FA;stroke-width:1.0;" />
    <line style="stroke:#2C84FA;stroke-width:1.0;" x1="492" x2="474.25" y1="864.3751" y2="864.3751" />
    <line style="stroke:#2C84FA;stroke-width:1.0;" x1="474.25" x2="474.25" y1="864.3751"
      y2="890.1251" />
    <polygon fill="#2C84FA" points="470.25,880.1251,474.25,890.1251,478.25,880.1251,474.25,884.1251"
      style="stroke:#2C84FA;stroke-width:1.0;" />
    <line style="stroke:#2C84FA;stroke-width:1.0;" x1="612" x2="629.75" y1="864.3751" y2="864.3751" />
    <line style="stroke:#2C84FA;stroke-width:1.0;" x1="629.75" x2="629.75" y1="864.3751"
      y2="886.3751" />
    <polygon fill="#2C84FA" points="625.75,876.3751,629.75,886.3751,633.75,876.3751,629.75,880.3751"
      style="stroke:#2C84FA;stroke-width:1.0;" />
    <line style="stroke:#2C84FA;stroke-width:1.0;" x1="474.25" x2="474.25" y1="1047.8753"
      y2="1065.8753" />
    <line style="stroke:#2C84FA;stroke-width:1.0;" x1="474.25" x2="540" y1="1065.8753"
      y2="1065.8753" />
    <polygon fill="#2C84FA" points="530,1061.8753,540,1065.8753,530,1069.8753,534,1065.8753"
      style="stroke:#2C84FA;stroke-width:1.0;" />
    <line style="stroke:#2C84FA;stroke-width:1.0;" x1="629.75" x2="629.75" y1="921.3752"
      y2="1065.8753" />
    <line style="stroke:#2C84FA;stroke-width:1.0;" x1="629.75" x2="564" y1="1065.8753"
      y2="1065.8753" />
    <polygon fill="#2C84FA" points="574,1061.8753,564,1065.8753,574,1069.8753,570,1065.8753"
      style="stroke:#2C84FA;stroke-width:1.0;" />
    <line style="stroke:#2C84FA;stroke-width:1.0;" x1="312.375" x2="182.75" y1="830.3751"
      y2="830.3751" />
    <line style="stroke:#2C84FA;stroke-width:1.0;" x1="182.75" x2="182.75" y1="830.3751"
      y2="852.3751" />
    <polygon fill="#2C84FA" points="178.75,842.3751,182.75,852.3751,186.75,842.3751,182.75,846.3751"
      style="stroke:#2C84FA;stroke-width:1.0;" />
    <line style="stroke:#2C84FA;stroke-width:1.0;" x1="422.375" x2="552" y1="830.3751" y2="830.3751" />
    <line style="stroke:#2C84FA;stroke-width:1.0;" x1="552" x2="552" y1="830.3751" y2="852.3751" />
    <polygon fill="#2C84FA" points="548,842.3751,552,852.3751,556,842.3751,552,846.3751"
      style="stroke:#2C84FA;stroke-width:1.0;" />
    <line style="stroke:#2C84FA;stroke-width:1.0;" x1="182.75" x2="182.75" y1="887.3752"
      y2="1095.8753" />
    <line style="stroke:#2C84FA;stroke-width:1.0;" x1="182.75" x2="355.375" y1="1095.8753"
      y2="1095.8753" />
    <polygon fill="#2C84FA"
      points="345.375,1091.8753,355.375,1095.8753,345.375,1099.8753,349.375,1095.8753"
      style="stroke:#2C84FA;stroke-width:1.0;" />
    <line style="stroke:#2C84FA;stroke-width:1.0;" x1="552" x2="552" y1="1077.8753" y2="1095.8753" />
    <line style="stroke:#2C84FA;stroke-width:1.0;" x1="552" x2="379.375" y1="1095.8753"
      y2="1095.8753" />
    <polygon fill="#2C84FA"
      points="389.375,1091.8753,379.375,1095.8753,389.375,1099.8753,385.375,1095.8753"
      style="stroke:#2C84FA;stroke-width:1.0;" />
    <line style="stroke:#2C84FA;stroke-width:1.0;" x1="367.375" x2="367.375" y1="798.3751"
      y2="818.3751" />
    <polygon fill="#2C84FA"
      points="363.375,808.3751,367.375,818.3751,371.375,808.3751,367.375,812.3751"
      style="stroke:#2C84FA;stroke-width:1.0;" />
    <line style="stroke:#2C84FA;stroke-width:1.0;" x1="367.375" x2="367.375" y1="1107.8753"
      y2="1127.8753" />
    <polygon fill="#2C84FA"
      points="363.375,1117.8753,367.375,1127.8753,371.375,1117.8753,367.375,1121.8753"
      style="stroke:#2C84FA;stroke-width:1.0;" /><!--MD5=[c55097c3529b3b07595b0bcb4f043ab4]
    @startuml "Physical combat"
title "Physical combat"
skinparam defaultFontName Oxanium
    skinparam activity {
  StartColor #0fff50
  BarColor #2c84fa
  EndColor #e949f5
  BorderColor
    #2c84fa
  ArrowColor #2c84fa
  FontName Oxanium
}
start
:Start the round;
if (The player
    wants to
    withdraw from the fight?) then (<color:#f2f230> yes)
:Request BIO test;
 note
    left
   Cybermod 
   activation
 endnote
if (Test passed and the player 
    has a safe
    place to run to?) then (<color:#f2f230> yes)
:Player leaves the combat;
stop
else
    (<color:#f2f230> no)
:The player remains in the struggle;
endif
endif
if (character may be
    taken by surprise
    and wants to act before opponents?) then (<color:#f2f230> yes)
  :Request
    BIO test;
  note left
   Cybermod 
   activation
  endnote
  if (BIO test passed?) then
    (<color:#f2f230> yes)
    :Character acts before opponents;
  else (<color:#f2f230> no)
    :All
    activities in the round
     take place simultaneously;
  endif
else (<color:#f2f230> no)
    :All activities in the round
   take place simultaneously;
endif
:The character can move;
:A
    character can perform an attack or other action;
if (Attack or action?) then (<color:#f2f230>
    attack)
#f2f230 :Skip to attack algorithm;
else (<color:#f2f230> action)
  if (the action is
    risky?) then (<color:#f2f230> yes)
    :Request proper save roll;
    note left
      Cybermod
    activation
    endnote
    if (Test passed?) then (<color:#f2f230> yes)
    #0fff50
    :**SUCCESS**;
    else (<color:#f2f230> no)
    #ff54ff:**FAILURE**;
    endif
  else
    (<color:#f2f230> no)
    #0fff50 :**SUCCESS**;
  endif 
endif
end
@enduml

PlantUML
    version 1.2022.7(Mon Aug 22 19:01:30 CEST 2022)
(GPL source distribution)
Java Runtime:
    OpenJDK Runtime Environment
JVM: OpenJDK 64-Bit Server VM
Default Encoding: UTF-8
Language:
    en
Country: GB
-->
  </g>
</svg>